SplineFontDB: 3.2
FontName: CSLSans-MediumItalic
FullName: CSL Sans Medium Italic
FamilyName: CSL Sans Medium
Weight: Medium
Copyright: Copyright (c) 2019 IBM Corp. with Reserved Font Name "Plex"\n\nCopyright (c) 2019 The HMI Sans Project Authors (https://github.com/somegoodpixels/hmi-sans)\nCopyright (c) 2021 The CSL Sans Project Authors (https://github.com/cssobral2013/CSL-Sans)\nThis Font Software is licensed under the SIL Open Font License, Version 1.1.\nThis license is copied below, and is also available with a FAQ at: http://scripts.sil.org/OFL.
Version: 2.001;January 31, 2022;FontCreator 14.0.0.2808 64-bit
ItalicAngle: -11.3
UnderlinePosition: -189
UnderlineWidth: 77
Ascent: 800
Descent: 200
InvalidEm: 0
sfntRevision: 0x00020041
LayerCount: 2
Layer: 0 1 "Back" 1
Layer: 1 1 "Fore" 0
XUID: [1021 651 537639564 14809]
StyleMap: 0x0001
FSType: 0
OS2Version: 4
OS2_WeightWidthSlopeOnly: 0
OS2_UseTypoMetrics: 0
CreationTime: 1550580399
ModificationTime: 1643660372
PfmFamily: 81
TTFWeight: 500
TTFWidth: 5
LineGap: 0
VLineGap: 0
Panose: 0 0 6 0 0 0 0 0 0 0
OS2TypoAscent: 1000
OS2TypoAOffset: 0
OS2TypoDescent: -220
OS2TypoDOffset: 0
OS2TypoLinegap: 0
OS2WinAscent: 1000
OS2WinAOffset: 0
OS2WinDescent: 220
OS2WinDOffset: 0
HheadAscent: 1000
HheadAOffset: 0
HheadDescent: -220
HheadDOffset: 0
OS2SubXSize: 650
OS2SubYSize: 600
OS2SubXOff: -15
OS2SubYOff: 75
OS2SupXSize: 650
OS2SupYSize: 600
OS2SupXOff: 70
OS2SupYOff: 350
OS2StrikeYSize: 77
OS2StrikeYPos: 312
OS2CapHeight: 698
OS2XHeight: 520
OS2Vendor: 'UKWN'
OS2CodePages: 2000019f.00000000
OS2UnicodeRanges: 20000287.10000013.00000000.00000000
Lookup: 258 0 0 "'kern' Kerning Horizontal lookup 0" { "'kern' Kerning Horizontal lookup 0 per glyph data 0"  "'kern' Kerning Horizontal lookup 0 kerning class 1"  "'kern' Kerning Horizontal lookup 0 kerning class 2"  "'kern' Kerning Horizontal lookup 0 kerning class 3"  } ['kern' ('DFLT' <'dflt' > 'cyrl' <'dflt' > 'grek' <'dflt' > 'latn' <'dflt' > ) ]
DEI: 91125

StartChar: .notdef
Encoding: 65536 -1 0
Width: 472
Flags: W
LayerCount: 2
Fore
SplineSet
440 0 m 1,0,-1
 440 780 l 1,1,-1
 32 780 l 1,2,-1
 32 0 l 1,3,-1
 440 0 l 1,0,-1
363 77 m 1,4,-1
 109 77 l 1,5,-1
 109 703 l 1,6,-1
 363 703 l 1,7,-1
 363 77 l 1,4,-1
EndSplineSet
EndChar

StartChar: exclam
Encoding: 33 33 2
Width: 290
GlyphClass: 1
Flags: W
LayerCount: 2
Fore
SplineSet
158 200 m 1,0,-1
 249 498 l 1,1,-1
 289 698 l 1,2,-1
 177 698 l 1,3,-1
 137 498 l 1,4,-1
 110 200 l 1,5,-1
 158 200 l 1,0,-1
96 -12 m 0,6,7
 164 -12 164 -12 175 51 c 0,8,9
 180 72 180 72 180 90 c 0,10,11
 180 111 180 111 165 125 c 128,-1,12
 150 139 150 139 118 139 c 0,13,14
 34 139 34 139 34 37 c 0,15,16
 34 16 34 16 49 2 c 128,-1,17
 64 -12 64 -12 96 -12 c 0,6,7
EndSplineSet
EndChar

StartChar: quotedbl
Encoding: 34 34 3
Width: 443
GlyphClass: 7
Flags: W
LayerCount: 2
Fore
SplineSet
207 440 m 1,0,-1
 267 740 l 1,1,-1
 170 740 l 1,2,-1
 110 440 l 1,3,-1
 207 440 l 1,0,-1
404 440 m 1,4,-1
 464 740 l 1,5,-1
 367 740 l 1,6,-1
 307 440 l 1,7,-1
 404 440 l 1,4,-1
EndSplineSet
EndChar

StartChar: numbersign
Encoding: 35 35 4
Width: 663
GlyphClass: 5
Flags: W
LayerCount: 2
Fore
SplineSet
367 0 m 1,0,-1
 438 191 l 1,1,-1
 567 191 l 1,2,-1
 581 263 l 1,3,-1
 464 263 l 1,4,-1
 528 435 l 1,5,-1
 657 435 l 1,6,-1
 671 507 l 1,7,-1
 554 507 l 1,8,-1
 625 698 l 1,9,-1
 547 698 l 1,10,-1
 476 507 l 1,11,-1
 334 507 l 1,12,-1
 405 698 l 1,13,-1
 327 698 l 1,14,-1
 257 507 l 1,15,-1
 128 507 l 1,16,-1
 113 435 l 1,17,-1
 230 435 l 1,18,-1
 167 263 l 1,19,-1
 38 263 l 1,20,-1
 23 191 l 1,21,-1
 140 191 l 1,22,-1
 70 0 l 1,23,-1
 147 0 l 1,24,-1
 218 191 l 1,25,-1
 360 191 l 1,26,-1
 289 0 l 1,27,-1
 367 0 l 1,0,-1
386 263 m 1,28,-1
 244 263 l 1,29,-1
 308 435 l 1,30,-1
 450 435 l 1,31,-1
 386 263 l 1,28,-1
EndSplineSet
EndChar

StartChar: dollar
Encoding: 36 36 5
Width: 571
Flags: W
LayerCount: 2
Fore
SplineSet
169 -82 m 1,0,-1
 251 -82 l 1,1,-1
 267 -1 l 1,2,3
 382 0 382 0 446 57 c 0,4,5
 510 115 510 115 510 214 c 0,6,7
 510 264 510 264 485 301 c 0,8,9
 448 356 448 356 352 395 c 2,10,-1
 347 397 l 1,11,-1
 387 595 l 1,12,13
 447 579 447 579 485 527 c 1,14,-1
 562 595 l 1,15,16
 502 671 502 671 406 692 c 1,17,-1
 424 780 l 1,18,-1
 343 780 l 1,19,-1
 327 699 l 1,20,21
 216 697 216 697 157 644 c 0,22,23
 96 589 96 589 96 503 c 0,24,25
 96 384 96 384 251 323 c 1,26,-1
 207 105 l 1,27,28
 142 124 142 124 93 184 c 1,29,-1
 18 113 l 1,30,31
 85 29 85 29 187 7 c 1,32,-1
 169 -82 l 1,0,-1
326 293 m 1,33,34
 371 272 371 272 387 248 c 0,35,36
 400 229 400 229 400 204 c 2,37,-1
 400 181 l 1,38,39
 386 102 386 102 287 96 c 1,40,-1
 326 293 l 1,33,34
272 429 m 1,41,42
 206 462 206 462 206 510 c 0,43,44
 206 522 206 522 207 533 c 0,45,46
 220 593 220 593 307 601 c 1,47,-1
 272 429 l 1,41,42
EndSplineSet
EndChar

StartChar: percent
Encoding: 37 37 6
Width: 918
Flags: W
LayerCount: 2
Fore
SplineSet
229 0 m 1,0,-1
 816 698 l 1,1,-1
 717 698 l 1,2,-1
 130 0 l 1,3,-1
 229 0 l 1,0,-1
236 314 m 0,4,5
 320 314 320 314 375.5 385.5 c 128,-1,6
 431 457 431 457 431 559 c 0,7,8
 431 633 431 633 394 671.5 c 128,-1,9
 357 710 357 710 293 710 c 0,10,11
 209 710 209 710 153.5 638.5 c 128,-1,12
 98 567 98 567 98 465 c 0,13,14
 98 391 98 391 135 352.5 c 128,-1,15
 172 314 172 314 236 314 c 0,4,5
242 380 m 0,16,17
 190 380 190 380 187 443 c 0,18,19
 187 460 187 460 191 481 c 2,20,-1
 204 542 l 2,21,22
 215 592 215 592 234.5 618 c 128,-1,23
 254 644 254 644 287 644 c 0,24,25
 340 644 340 644 342 581 c 0,26,27
 342 565 342 565 338 543 c 2,28,-1
 325 482 l 2,29,30
 314 432 314 432 294.5 406 c 128,-1,31
 275 380 275 380 242 380 c 0,16,17
652 -12 m 0,32,33
 736 -12 736 -12 791.5 59.5 c 128,-1,34
 847 131 847 131 847 233 c 0,35,36
 847 307 847 307 810 345.5 c 128,-1,37
 773 384 773 384 709 384 c 0,38,39
 625 384 625 384 569.5 312.5 c 128,-1,40
 514 241 514 241 514 139 c 0,41,42
 514 65 514 65 551 26.5 c 128,-1,43
 588 -12 588 -12 652 -12 c 0,32,33
658 54 m 0,44,45
 606 54 606 54 603 117 c 0,46,47
 603 134 603 134 607 155 c 2,48,-1
 620 216 l 2,49,50
 631 266 631 266 650.5 292 c 128,-1,51
 670 318 670 318 703 318 c 0,52,53
 756 318 756 318 758 255 c 0,54,55
 758 239 758 239 754 217 c 2,56,-1
 741 156 l 2,57,58
 730 106 730 106 710.5 80 c 128,-1,59
 691 54 691 54 658 54 c 0,44,45
EndSplineSet
EndChar

StartChar: ampersand
Encoding: 38 38 7
Width: 685
GlyphClass: 3
Flags: W
LayerCount: 2
Fore
SplineSet
223 -12 m 0,0,1
 344 -12 344 -12 434 73 c 1,2,-1
 486 0 l 1,3,-1
 607 0 l 1,4,-1
 502 147 l 1,5,6
 542 209 542 209 566 285 c 1,7,-1
 639 285 l 1,8,-1
 657 375 l 1,9,-1
 507 375 l 1,10,11
 489 290 489 290 451 219 c 1,12,-1
 349 362 l 1,13,14
 535 451 535 451 535 571 c 0,15,16
 535 637 535 637 487 676 c 0,17,18
 440 710 440 710 374 710 c 0,19,20
 280 710 280 710 222.5 652 c 128,-1,21
 165 594 165 594 165 514 c 0,22,23
 165 473 165 473 180 439.5 c 128,-1,24
 195 406 195 406 215 379 c 1,25,26
 34 296 34 296 34 154 c 0,27,28
 34 81 34 81 82 34.5 c 128,-1,29
 130 -12 130 -12 223 -12 c 0,0,1
305 423 m 1,30,31
 267 476 267 476 267 519 c 0,32,33
 267 572 267 572 302 604 c 0,34,35
 326 625 326 625 361 625 c 0,36,37
 392 625 392 625 411.5 607.5 c 128,-1,38
 431 590 431 590 431 558 c 0,39,40
 431 511 431 511 396 480 c 128,-1,41
 361 449 361 449 305 423 c 1,30,31
247 78 m 0,42,43
 144 78 144 78 140 171 c 0,44,45
 140 186 140 186 143 200 c 0,46,47
 155 244 155 244 184.5 270.5 c 128,-1,48
 214 297 214 297 258 318 c 1,49,-1
 389 136 l 1,50,51
 327 78 327 78 247 78 c 0,42,43
EndSplineSet
EndChar

StartChar: quotesingle
Encoding: 39 39 8
Width: 246
Flags: W
LayerCount: 2
Fore
SplineSet
207 440 m 1,0,-1
 267 740 l 1,1,-1
 170 740 l 1,2,-1
 110 440 l 1,3,-1
 207 440 l 1,0,-1
EndSplineSet
EndChar

StartChar: parenleft
Encoding: 40 40 9
Width: 339
Flags: W
LayerCount: 2
Fore
SplineSet
280 -138 m 1,0,1
 225 -71 225 -71 194 16.5 c 128,-1,2
 163 104 163 104 163 204 c 0,3,4
 163 239 163 239 169 277 c 2,5,-1
 188 368 l 2,6,7
 210 477 210 477 284 579 c 128,-1,8
 358 681 358 681 460 760 c 1,9,-1
 352 760 l 1,10,11
 238 676 238 676 156 534 c 0,12,13
 70 380 70 380 70 208 c 0,14,15
 70 100 70 100 103 9.5 c 128,-1,16
 136 -81 136 -81 185 -138 c 1,17,-1
 280 -138 l 1,0,1
EndSplineSet
EndChar

StartChar: parenright
Encoding: 41 41 10
Width: 339
GlyphClass: 3
Flags: W
LayerCount: 2
Fore
SplineSet
10 -138 m 1,0,1
 124 -54 124 -54 206 89 c 0,2,3
 292 243 292 243 292 415 c 0,4,5
 292 469 292 469 283 519 c 0,6,7
 255 666 255 666 176 760 c 1,8,-1
 81 760 l 1,9,10
 136 693 136 693 167.5 606 c 128,-1,11
 199 519 199 519 199 419 c 0,12,13
 199 385 199 385 192 346 c 2,14,-1
 174 255 l 2,15,16
 150 146 150 146 77 43.5 c 128,-1,17
 4 -59 4 -59 -98 -138 c 1,18,-1
 10 -138 l 1,0,1
EndSplineSet
EndChar

StartChar: asterisk
Encoding: 42 42 11
Width: 512
Flags: W
LayerCount: 2
Fore
SplineSet
178 320 m 1,0,-1
 298 464 l 1,1,-1
 364 323 l 1,2,-1
 443 373 l 1,3,-1
 367 505 l 1,4,-1
 530 554 l 1,5,-1
 510 639 l 1,6,-1
 358 581 l 1,7,-1
 396 747 l 1,8,-1
 302 747 l 1,9,-1
 275 580 l 1,10,-1
 135 641 l 1,11,-1
 95 554 l 1,12,-1
 239 510 l 1,13,-1
 109 380 l 1,14,-1
 178 320 l 1,0,-1
EndSplineSet
EndChar

StartChar: plus
Encoding: 43 43 12
Width: 600
Flags: W
LayerCount: 2
Fore
SplineSet
308 62 m 1,0,-1
 348 262 l 1,1,-1
 528 262 l 1,2,-1
 545 349 l 1,3,-1
 366 349 l 1,4,-1
 405 548 l 1,5,-1
 310 548 l 1,6,-1
 270 349 l 1,7,-1
 89 349 l 1,8,-1
 72 262 l 1,9,-1
 252 262 l 1,10,-1
 213 62 l 1,11,-1
 308 62 l 1,0,-1
EndSplineSet
EndChar

StartChar: comma
Encoding: 44 44 13
Width: 288
GlyphClass: 3
Flags: W
LayerCount: 2
Fore
SplineSet
46 -138 m 1,0,1
 100 -99 100 -99 130.5 -47.5 c 128,-1,2
 161 4 161 4 172 52 c 0,3,4
 177 71 177 71 177 88 c 0,5,6
 177 110 177 110 162 124.5 c 128,-1,7
 147 139 147 139 115 139 c 0,8,9
 50 139 50 139 37 76 c 0,10,11
 32 56 32 56 32 39 c 0,12,13
 32 2 32 2 73 -7 c 1,14,15
 39 -76 39 -76 -37 -138 c 1,16,-1
 46 -138 l 1,0,1
EndSplineSet
EndChar

StartChar: hyphen
Encoding: 45 45 14
Width: 391
Flags: W
LayerCount: 2
Fore
SplineSet
329 252 m 1,0,-1
 350 357 l 1,1,-1
 80 357 l 1,2,-1
 59 252 l 1,3,-1
 329 252 l 1,0,-1
EndSplineSet
EndChar

StartChar: period
Encoding: 46 46 15
Width: 288
Flags: W
LayerCount: 2
Fore
SplineSet
93 -12 m 0,0,1
 161 -12 161 -12 172 51 c 0,2,3
 177 72 177 72 177 90 c 0,4,5
 177 111 177 111 162 125 c 128,-1,6
 147 139 147 139 115 139 c 0,7,8
 31 139 31 139 31 37 c 0,9,10
 31 16 31 16 46 2 c 128,-1,11
 61 -12 61 -12 93 -12 c 0,0,1
EndSplineSet
EndChar

StartChar: slash
Encoding: 47 47 16
Width: 421
GlyphClass: 3
Flags: W
LayerCount: 2
Fore
SplineSet
24 -151 m 1,0,-1
 473 740 l 1,1,-1
 377 740 l 1,2,-1
 -71 -151 l 1,3,-1
 24 -151 l 1,0,-1
EndSplineSet
EndChar

StartChar: zero
Encoding: 48 48 17
Width: 600
GlyphClass: 5
Flags: W
LayerCount: 2
Fore
SplineSet
258 -12 m 0,0,1
 336 -12 336 -12 394 30 c 128,-1,2
 452 72 452 72 491 141.5 c 128,-1,3
 530 211 530 211 549.5 295 c 128,-1,4
 569 379 569 379 569 463 c 0,5,6
 569 571 569 571 525 636 c 0,7,8
 473 710 473 710 370 710 c 0,9,10
 292 710 292 710 233.5 668 c 128,-1,11
 175 626 175 626 136.5 556.5 c 128,-1,12
 98 487 98 487 78.5 403 c 128,-1,13
 59 319 59 319 59 235 c 0,14,15
 59 126 59 126 104 62 c 0,16,17
 154 -12 154 -12 258 -12 c 0,0,1
269 80 m 0,18,19
 166 80 166 80 166 214 c 0,20,21
 166 255 166 255 174 297 c 2,22,-1
 197 410 l 2,23,24
 237 618 237 618 358 618 c 0,25,26
 412 618 412 618 437 582 c 128,-1,27
 462 546 462 546 462 484 c 0,28,29
 462 444 462 444 454 401 c 2,30,-1
 431 288 l 2,31,32
 414 194 414 194 374.5 137 c 128,-1,33
 335 80 335 80 269 80 c 0,18,19
EndSplineSet
EndChar

StartChar: one
Encoding: 49 49 18
Width: 600
Flags: W
LayerCount: 2
Fore
SplineSet
343 0 m 1,0,-1
 236 0 l 1,1,-1
 356 592 l 1,2,-1
 188 502 l 1,3,-1
 210 612 l 1,4,-1
 365 698 l 1,5,-1
 483 698 l 1,6,-1
 343 0 l 1,0,-1
EndSplineSet
EndChar

StartChar: two
Encoding: 50 50 19
Width: 600
Flags: W
LayerCount: 2
Fore
SplineSet
478 0 m 1,0,-1
 497 94 l 1,1,-1
 166 94 l 1,2,3
 261 165 261 165 355.5 235 c 128,-1,4
 450 305 450 305 504.5 374.5 c 128,-1,5
 559 444 559 444 559 528 c 0,6,7
 559 606 559 606 505 659 c 0,8,9
 450 710 450 710 358 710 c 0,10,11
 270 710 270 710 209.5 663.5 c 128,-1,12
 149 617 149 617 115 541 c 1,13,-1
 208 502 l 1,14,15
 229 554 229 554 262.5 584 c 128,-1,16
 296 614 296 614 349 614 c 0,17,18
 399 614 399 614 420.5 584 c 128,-1,19
 442 554 442 554 442 522 c 0,20,21
 442 498 442 498 438 483 c 0,22,23
 427 407 427 407 302 307 c 2,24,-1
 47 109 l 1,25,-1
 25 0 l 1,26,-1
 478 0 l 1,0,-1
EndSplineSet
EndChar

StartChar: three
Encoding: 51 51 20
Width: 600
Flags: W
LayerCount: 2
Fore
SplineSet
245 -12 m 0,0,1
 367 -12 367 -12 436.5 53 c 128,-1,2
 506 118 506 118 506 218 c 0,3,4
 506 278 506 278 475 316 c 128,-1,5
 444 354 444 354 392 363 c 1,6,-1
 393 368 l 1,7,8
 463 382 463 382 508 430.5 c 128,-1,9
 553 479 553 479 553 551 c 0,10,11
 553 622 553 622 498.5 666 c 128,-1,12
 444 710 444 710 358 710 c 0,13,14
 275 710 275 710 220.5 679 c 128,-1,15
 166 648 166 648 128 599 c 1,16,-1
 194 532 l 1,17,18
 224 577 224 577 260 597 c 128,-1,19
 296 617 296 617 341 617 c 256,20,21
 386 617 386 617 411 596 c 128,-1,22
 436 575 436 575 436 535 c 0,23,24
 436 525 436 525 433 509 c 0,25,26
 415 410 415 410 299 410 c 2,27,-1
 231 410 l 1,28,-1
 212 316 l 1,29,-1
 285 316 l 2,30,31
 339 316 339 316 367 291.5 c 128,-1,32
 395 267 395 267 395 225 c 0,33,34
 395 209 395 209 391 193 c 0,35,36
 380 138 380 138 348 109.5 c 128,-1,37
 316 81 316 81 253 81 c 0,38,39
 191 81 191 81 158.5 106 c 128,-1,40
 126 131 126 131 111 173 c 1,41,-1
 28 115 l 1,42,43
 47 64 47 64 101 27 c 0,44,45
 154 -12 154 -12 245 -12 c 0,0,1
EndSplineSet
EndChar

StartChar: four
Encoding: 52 52 21
Width: 600
GlyphClass: 2
Flags: W
LayerCount: 2
Fore
SplineSet
409 0 m 1,0,-1
 436 136 l 1,1,-1
 528 136 l 1,2,-1
 546 224 l 1,3,-1
 454 224 l 1,4,-1
 549 698 l 1,5,-1
 409 698 l 1,6,-1
 43 235 l 1,7,-1
 23 136 l 1,8,-1
 334 136 l 1,9,-1
 307 0 l 1,10,-1
 409 0 l 1,0,-1
352 224 m 1,11,-1
 135 224 l 1,12,-1
 416 579 l 1,13,-1
 423 579 l 1,14,-1
 352 224 l 1,11,-1
EndSplineSet
EndChar

StartChar: five
Encoding: 53 53 22
Width: 600
Flags: W
LayerCount: 2
Fore
SplineSet
260 -12 m 0,0,1
 324 -12 324 -12 375 10 c 128,-1,2
 426 32 426 32 461 69 c 0,3,4
 532 151 532 151 532 259 c 0,5,6
 532 348 532 348 483.5 396 c 128,-1,7
 435 444 435 444 358 444 c 0,8,9
 300 444 300 444 266 420.5 c 128,-1,10
 232 397 232 397 206 349 c 1,11,-1
 198 349 l 1,12,-1
 261 602 l 1,13,-1
 560 602 l 1,14,-1
 579 698 l 1,15,-1
 198 698 l 1,16,-1
 100 305 l 1,17,-1
 187 292 l 1,18,19
 241 352 241 352 313 352 c 0,20,21
 366 352 366 352 392 326 c 128,-1,22
 418 300 418 300 418 255 c 0,23,24
 418 233 418 233 412 210 c 0,25,26
 388 82 388 82 268 82 c 0,27,28
 208 82 208 82 175.5 107 c 128,-1,29
 143 132 143 132 129 174 c 1,30,-1
 41 116 l 1,31,32
 60 65 60 65 115 26.5 c 128,-1,33
 170 -12 170 -12 260 -12 c 0,0,1
EndSplineSet
EndChar

StartChar: six
Encoding: 54 54 23
Width: 600
GlyphClass: 2
Flags: W
LayerCount: 2
Fore
SplineSet
266 -12 m 0,0,1
 386 -12 386 -12 458.5 65 c 128,-1,2
 531 142 531 142 531 251 c 0,3,4
 531 337 531 337 483.5 389.5 c 128,-1,5
 436 442 436 442 356 442 c 0,6,7
 301 442 301 442 263.5 414.5 c 128,-1,8
 226 387 226 387 197 339 c 1,9,-1
 191 341 l 1,10,11
 226 444 226 444 316.5 531 c 128,-1,12
 407 618 407 618 539 698 c 1,13,-1
 386 698 l 1,14,15
 256 625 256 625 160 495 c 0,16,17
 59 355 59 355 59 211 c 0,18,19
 59 106 59 106 112.5 47 c 128,-1,20
 166 -12 166 -12 266 -12 c 0,0,1
273 79 m 0,21,22
 167 79 167 79 165 188 c 0,23,24
 165 208 165 208 169 227 c 0,25,26
 181 285 181 285 216.5 318.5 c 128,-1,27
 252 352 252 352 312 352 c 0,28,29
 419 352 419 352 420 243 c 0,30,31
 420 224 420 224 416 204 c 0,32,33
 404 146 404 146 368 112.5 c 128,-1,34
 332 79 332 79 273 79 c 0,21,22
EndSplineSet
EndChar

StartChar: seven
Encoding: 55 55 24
Width: 600
Flags: W
LayerCount: 2
Fore
SplineSet
236 0 m 1,0,-1
 121 0 l 1,1,-1
 485 606 l 1,2,-1
 137 606 l 1,3,-1
 155 698 l 1,4,-1
 613 698 l 1,5,-1
 593 599 l 1,6,-1
 236 0 l 1,0,-1
EndSplineSet
EndChar

StartChar: eight
Encoding: 56 56 25
Width: 600
Flags: W
LayerCount: 2
Fore
SplineSet
261 -12 m 0,0,1
 383 -12 383 -12 454.5 54.5 c 128,-1,2
 526 121 526 121 526 217 c 0,3,4
 526 330 526 330 421 360 c 1,5,-1
 422 368 l 1,6,7
 491 389 491 389 530 439.5 c 128,-1,8
 569 490 569 490 569 551 c 0,9,10
 569 622 569 622 519 666 c 128,-1,11
 469 710 469 710 374 710 c 0,12,13
 263 710 263 710 196.5 649.5 c 128,-1,14
 130 589 130 589 130 505 c 0,15,16
 130 405 130 405 218 371 c 1,17,-1
 216 364 l 1,18,19
 133 349 133 349 88.5 294.5 c 128,-1,20
 44 240 44 240 44 168 c 0,21,22
 44 90 44 90 99.5 39 c 128,-1,23
 155 -12 155 -12 261 -12 c 0,0,1
268 77 m 0,24,25
 159 77 159 77 155 170 c 0,26,27
 155 189 155 189 159 209 c 0,28,29
 187 320 187 320 302 320 c 0,30,31
 412 320 412 320 415 226 c 0,32,33
 415 206 415 206 411 187 c 0,34,35
 384 77 384 77 268 77 c 0,24,25
331 404 m 0,36,37
 281 404 281 404 255 427 c 128,-1,38
 229 450 229 450 229 489 c 0,39,40
 229 506 229 506 233 523 c 0,41,42
 256 621 256 621 360 621 c 0,43,44
 461 621 461 621 462 537 c 0,45,46
 462 521 462 521 458 503 c 0,47,48
 435 404 435 404 331 404 c 0,36,37
EndSplineSet
EndChar

StartChar: nine
Encoding: 57 57 26
Width: 600
GlyphClass: 1
Flags: W
LayerCount: 2
Fore
SplineSet
246 0 m 1,0,1
 376 73 376 73 472 203 c 0,2,3
 573 343 573 343 573 487 c 0,4,5
 573 592 573 592 519.5 651 c 128,-1,6
 466 710 466 710 366 710 c 0,7,8
 249 710 249 710 174 634 c 0,9,10
 101 557 101 557 101 447 c 0,11,12
 101 359 101 359 148.5 307.5 c 128,-1,13
 196 256 196 256 277 256 c 0,14,15
 331 256 331 256 368.5 283.5 c 128,-1,16
 406 311 406 311 435 359 c 1,17,-1
 441 357 l 1,18,19
 406 255 406 255 316 167 c 128,-1,20
 226 79 226 79 93 0 c 1,21,-1
 246 0 l 1,0,1
320 346 m 0,22,23
 214 346 214 346 212 455 c 0,24,25
 212 475 212 475 216 494 c 0,26,27
 227 552 227 552 263.5 585.5 c 128,-1,28
 300 619 300 619 359 619 c 0,29,30
 466 619 466 619 467 510 c 0,31,32
 467 491 467 491 463 471 c 0,33,34
 451 413 451 413 415.5 379.5 c 128,-1,35
 380 346 380 346 320 346 c 0,22,23
EndSplineSet
EndChar

StartChar: colon
Encoding: 58 58 27
Width: 307
Flags: W
LayerCount: 2
Fore
SplineSet
103 -12 m 0,0,1
 171 -12 171 -12 182 51 c 0,2,3
 187 72 187 72 187 90 c 0,4,5
 187 111 187 111 172 125 c 128,-1,6
 157 139 157 139 125 139 c 0,7,8
 41 139 41 139 41 37 c 0,9,10
 41 16 41 16 56 2 c 128,-1,11
 71 -12 71 -12 103 -12 c 0,0,1
181 378 m 0,12,13
 249 378 249 378 260 441 c 0,14,15
 265 462 265 462 265 480 c 0,16,17
 265 501 265 501 250 515 c 128,-1,18
 235 529 235 529 203 529 c 0,19,20
 119 529 119 529 119 427 c 0,21,22
 119 406 119 406 134 392 c 128,-1,23
 149 378 149 378 181 378 c 0,12,13
EndSplineSet
EndChar

StartChar: semicolon
Encoding: 59 59 28
Width: 307
GlyphClass: 2
Flags: W
LayerCount: 2
Fore
SplineSet
56 -138 m 1,0,1
 110 -99 110 -99 140.5 -47.5 c 128,-1,2
 171 4 171 4 182 52 c 0,3,4
 187 71 187 71 187 88 c 0,5,6
 187 110 187 110 172 124.5 c 128,-1,7
 157 139 157 139 125 139 c 0,8,9
 60 139 60 139 47 76 c 0,10,11
 42 56 42 56 42 39 c 0,12,13
 42 2 42 2 83 -7 c 1,14,15
 49 -76 49 -76 -27 -138 c 1,16,-1
 56 -138 l 1,0,1
181 378 m 0,17,18
 249 378 249 378 260 441 c 0,19,20
 265 462 265 462 265 480 c 0,21,22
 265 501 265 501 250 515 c 128,-1,23
 235 529 235 529 203 529 c 0,24,25
 119 529 119 529 119 427 c 0,26,27
 119 406 119 406 134 392 c 128,-1,28
 149 378 149 378 181 378 c 0,17,18
EndSplineSet
EndChar

StartChar: less
Encoding: 60 60 29
Width: 600
Flags: W
LayerCount: 2
Fore
SplineSet
446 -8 m 1,0,-1
 468 97 l 1,1,-1
 211 279 l 1,2,-1
 213 287 l 1,3,-1
 541 465 l 1,4,-1
 564 582 l 1,5,-1
 113 330 l 1,6,-1
 96 249 l 1,7,-1
 446 -8 l 1,0,-1
EndSplineSet
EndChar

StartChar: equal
Encoding: 61 61 30
Width: 600
GlyphClass: 2
Flags: W
LayerCount: 2
Fore
SplineSet
550 370 m 1,0,-1
 568 457 l 1,1,-1
 112 457 l 1,2,-1
 95 370 l 1,3,-1
 550 370 l 1,0,-1
508 155 m 1,4,-1
 525 242 l 1,5,-1
 70 242 l 1,6,-1
 52 155 l 1,7,-1
 508 155 l 1,4,-1
EndSplineSet
EndChar

StartChar: greater
Encoding: 62 62 31
Width: 600
GlyphClass: 5
Flags: W
LayerCount: 2
Fore
SplineSet
49 -8 m 1,0,-1
 501 248 l 1,1,-1
 517 329 l 1,2,-1
 167 582 l 1,3,-1
 146 477 l 1,4,-1
 403 299 l 1,5,-1
 401 291 l 1,6,-1
 72 109 l 1,7,-1
 49 -8 l 1,0,-1
EndSplineSet
EndChar

StartChar: question
Encoding: 63 63 32
Width: 478
GlyphClass: 3
Flags: W
LayerCount: 2
Fore
SplineSet
262 219 m 1,0,-1
 281 313 l 1,1,2
 379 333 379 333 438 398.5 c 128,-1,3
 497 464 497 464 497 546 c 0,4,5
 497 622 497 622 446 666 c 128,-1,6
 395 710 395 710 307 710 c 0,7,8
 142 710 142 710 76 548 c 1,9,-1
 163 510 l 1,10,11
 181 559 181 559 212.5 588 c 128,-1,12
 244 617 244 617 295 617 c 0,13,14
 337 617 337 617 361.5 595.5 c 128,-1,15
 386 574 386 574 386 535 c 0,16,17
 386 511 386 511 382 498 c 0,18,19
 357 394 357 394 193 379 c 1,20,-1
 160 219 l 1,21,-1
 262 219 l 1,0,-1
172 -12 m 0,22,23
 240 -12 240 -12 251 51 c 0,24,25
 256 72 256 72 256 90 c 0,26,27
 256 111 256 111 241 125 c 128,-1,28
 226 139 226 139 194 139 c 0,29,30
 110 139 110 139 110 37 c 0,31,32
 110 16 110 16 125 2 c 128,-1,33
 140 -12 140 -12 172 -12 c 0,22,23
EndSplineSet
EndChar

StartChar: at
Encoding: 64 64 33
Width: 875
Flags: W
LayerCount: 2
Fore
SplineSet
577 -121 m 1,0,-1
 591 -50 l 1,1,-1
 379 -50 l 2,2,3
 265 -50 265 -50 202 18 c 128,-1,4
 139 86 139 86 139 201 c 0,5,6
 139 233 139 233 147 275 c 2,7,-1
 157 326 l 2,8,9
 188 468 188 468 283 553 c 128,-1,10
 378 638 378 638 510 638 c 0,11,12
 623 638 623 638 689.5 576.5 c 128,-1,13
 756 515 756 515 756 411 c 0,14,15
 756 388 756 388 755 376 c 128,-1,16
 754 364 754 364 743 310 c 0,17,18
 706 144 706 144 626 144 c 0,19,20
 592 144 592 144 592 178 c 0,21,22
 592 195 592 195 596 211 c 2,23,-1
 653 495 l 1,24,-1
 566 495 l 1,25,-1
 552 425 l 1,26,-1
 548 425 l 1,27,28
 530 504 530 504 444 504 c 0,29,30
 375 504 375 504 325.5 452.5 c 128,-1,31
 276 401 276 401 255 301 c 0,32,33
 247 259 247 259 247 230 c 0,34,35
 247 152 247 152 283.5 113 c 128,-1,36
 320 74 320 74 377 74 c 0,37,38
 423 74 423 74 457 102.5 c 128,-1,39
 491 131 491 131 506 173 c 1,40,-1
 510 173 l 1,41,-1
 510 161 l 2,42,43
 510 77 510 77 609 74 c 0,44,45
 691 74 691 74 748 145 c 0,46,47
 801 212 801 212 823 317 c 0,48,49
 832 368 832 368 832 402 c 0,50,51
 832 542 832 542 744 625 c 128,-1,52
 656 708 656 708 518 708 c 0,53,54
 346 708 346 708 228 596 c 0,55,56
 111 487 111 487 73 311 c 0,57,58
 62 248 62 248 62 201 c 0,59,60
 62 53 62 53 143.5 -34 c 128,-1,61
 225 -121 225 -121 370 -121 c 2,62,-1
 577 -121 l 1,0,-1
409 149 m 0,63,64
 339 149 339 149 335 224 c 0,65,66
 335 235 335 235 338 249 c 0,67,68
 347 291 347 291 355 333.5 c 128,-1,69
 363 376 363 376 390 402 c 128,-1,70
 417 428 417 428 459 428 c 0,71,72
 500 428 500 428 522 405 c 0,73,74
 539 387 539 387 539 365 c 0,75,76
 539 359 539 359 516 244 c 0,77,78
 508 206 508 206 479.5 177.5 c 128,-1,79
 451 149 451 149 409 149 c 0,63,64
EndSplineSet
EndChar

StartChar: A
Encoding: 65 65 34
Width: 638
GlyphClass: 5
Flags: W
LayerCount: 2
Fore
SplineSet
565 0 m 1,0,-1
 477 698 l 1,1,-1
 337 698 l 1,2,-1
 -30 0 l 1,3,-1
 86 0 l 1,4,-1
 183 189 l 1,5,-1
 433 189 l 1,6,-1
 455 0 l 1,7,-1
 565 0 l 1,0,-1
424 283 m 1,8,-1
 228 283 l 1,9,-1
 384 598 l 1,10,-1
 391 598 l 1,11,-1
 424 283 l 1,8,-1
EndSplineSet
EndChar

StartChar: B
Encoding: 66 66 35
Width: 637
GlyphClass: 7
Flags: W
LayerCount: 2
Fore
SplineSet
345 0 m 2,0,1
 452 0 452 0 515 67 c 128,-1,2
 578 134 578 134 578 231 c 0,3,4
 578 335 578 335 476 360 c 1,5,-1
 477 365 l 1,6,7
 545 384 545 384 581 434 c 0,8,9
 616 486 616 486 616 552 c 0,10,11
 616 622 616 622 570.5 660 c 128,-1,12
 525 698 525 698 446 698 c 2,13,-1
 172 698 l 1,14,-1
 32 0 l 1,15,-1
 345 0 l 2,0,1
344 95 m 2,16,-1
 159 95 l 1,17,-1
 202 311 l 1,18,-1
 384 311 l 2,19,20
 425 311 425 311 445.5 293 c 128,-1,21
 466 275 466 275 466 244 c 2,22,-1
 465 230 l 1,23,-1
 457 186 l 2,24,25
 438 95 438 95 344 95 c 2,16,-1
377 401 m 2,26,-1
 220 401 l 1,27,-1
 261 603 l 1,28,-1
 427 603 l 2,29,30
 501 603 501 603 501 540 c 0,31,32
 501 523 501 523 497 503 c 2,33,-1
 493 485 l 2,34,35
 476 401 476 401 377 401 c 2,26,-1
EndSplineSet
EndChar

StartChar: C
Encoding: 67 67 36
Width: 616
Flags: W
LayerCount: 2
Fore
SplineSet
297 -12 m 0,0,1
 483 -12 483 -12 571 161 c 1,2,-1
 481 204 l 1,3,4
 452 149 452 149 411 118 c 0,5,6
 371 85 371 85 305 85 c 0,7,8
 237 85 237 85 200.5 128 c 128,-1,9
 164 171 164 171 164 246 c 0,10,11
 164 272 164 272 170 305 c 2,12,-1
 193 418 l 2,13,14
 212 508 212 508 264 560.5 c 128,-1,15
 316 613 316 613 392 613 c 0,16,17
 453 613 453 613 486 584 c 128,-1,18
 519 555 519 555 533 504 c 1,19,-1
 630 546 l 1,20,21
 580 710 580 710 401 710 c 0,22,23
 325 710 325 710 261.5 676 c 128,-1,24
 198 642 198 642 153 581 c 0,25,26
 56 451 56 451 56 269 c 0,27,28
 56 131 56 131 123.5 59.5 c 128,-1,29
 191 -12 191 -12 297 -12 c 0,0,1
EndSplineSet
EndChar

StartChar: D
Encoding: 68 68 37
Width: 665
Flags: W
LayerCount: 2
Fore
SplineSet
281 0 m 2,0,1
 366 0 366 0 432.5 34.5 c 128,-1,2
 499 69 499 69 544 130 c 0,3,4
 636 259 636 259 636 431 c 0,5,6
 636 563 636 563 569 630.5 c 128,-1,7
 502 698 502 698 385 698 c 2,8,-1
 172 698 l 1,9,-1
 32 0 l 1,10,-1
 281 0 l 2,0,1
287 97 m 2,11,-1
 160 97 l 1,12,-1
 261 601 l 1,13,-1
 387 601 l 2,14,15
 450 601 450 601 487.5 565 c 128,-1,16
 525 529 525 529 525 454 c 0,17,18
 525 430 525 430 519 392 c 2,19,-1
 499 292 l 2,20,21
 478 195 478 195 423 146 c 128,-1,22
 368 97 368 97 287 97 c 2,11,-1
EndSplineSet
EndChar

StartChar: E
Encoding: 69 69 38
Width: 571
Flags: W
LayerCount: 2
Fore
SplineSet
473 0 m 1,0,-1
 492 96 l 1,1,-1
 160 96 l 1,2,-1
 202 304 l 1,3,-1
 486 304 l 1,4,-1
 505 400 l 1,5,-1
 221 400 l 1,6,-1
 261 602 l 1,7,-1
 579 602 l 1,8,-1
 599 698 l 1,9,-1
 172 698 l 1,10,-1
 32 0 l 1,11,-1
 473 0 l 1,0,-1
EndSplineSet
EndChar

StartChar: F
Encoding: 70 70 39
Width: 548
GlyphClass: 2
Flags: W
LayerCount: 2
Fore
SplineSet
140 0 m 1,0,-1
 202 304 l 1,1,-1
 479 304 l 1,2,-1
 498 400 l 1,3,-1
 221 400 l 1,4,-1
 261 602 l 1,5,-1
 568 602 l 1,6,-1
 588 698 l 1,7,-1
 172 698 l 1,8,-1
 32 0 l 1,9,-1
 140 0 l 1,0,-1
EndSplineSet
EndChar

StartChar: G
Encoding: 71 71 40
Width: 678
Flags: W
LayerCount: 2
Fore
SplineSet
281 -12 m 0,0,1
 355 -12 355 -12 404 22 c 128,-1,2
 453 56 453 56 477 106 c 1,3,-1
 483 106 l 1,4,-1
 461 0 l 1,5,-1
 556 0 l 1,6,-1
 630 371 l 1,7,-1
 387 371 l 1,8,-1
 368 277 l 1,9,-1
 507 277 l 1,10,-1
 498 231 l 2,11,12
 482 162 482 162 430.5 123.5 c 128,-1,13
 379 85 379 85 310 85 c 0,14,15
 244 85 244 85 204.5 127 c 128,-1,16
 165 169 165 169 165 248 c 0,17,18
 165 277 165 277 171 306 c 2,19,-1
 192 413 l 2,20,21
 210 507 210 507 264.5 560 c 128,-1,22
 319 613 319 613 404 613 c 0,23,24
 527 613 527 613 562 502 c 1,25,-1
 656 548 l 1,26,27
 632 626 632 626 568.5 668 c 128,-1,28
 505 710 505 710 413 710 c 0,29,30
 330 710 330 710 263.5 675.5 c 128,-1,31
 197 641 197 641 151 580 c 0,32,33
 56 449 56 449 56 267 c 0,34,35
 56 129 56 129 118.5 58.5 c 128,-1,36
 181 -12 181 -12 281 -12 c 0,0,1
EndSplineSet
EndChar

StartChar: H
Encoding: 72 72 41
Width: 691
GlyphClass: 5
Flags: W
LayerCount: 2
Fore
SplineSet
554 0 m 1,0,-1
 694 698 l 1,1,-1
 586 698 l 1,2,-1
 527 400 l 1,3,-1
 221 400 l 1,4,-1
 280 698 l 1,5,-1
 172 698 l 1,6,-1
 32 0 l 1,7,-1
 140 0 l 1,8,-1
 202 304 l 1,9,-1
 508 304 l 1,10,-1
 446 0 l 1,11,-1
 554 0 l 1,0,-1
EndSplineSet
EndChar

StartChar: I
Encoding: 73 73 42
Width: 276
Flags: W
LayerCount: 2
Fore
SplineSet
140 0 m 1,0,-1
 280 698 l 1,1,-1
 172 698 l 1,2,-1
 32 0 l 1,3,-1
 140 0 l 1,0,-1
EndSplineSet
EndChar

StartChar: J
Encoding: 74 74 43
Width: 514
GlyphClass: 7
Flags: W
LayerCount: 2
Fore
SplineSet
190 -12 m 0,0,1
 105 -12 105 -12 57 36 c 128,-1,2
 9 84 9 84 4 165 c 1,3,-1
 105 185 l 1,4,5
 111 85 111 85 192 85 c 0,6,7
 286 85 286 85 309 199 c 2,8,-1
 408 698 l 1,9,-1
 518 698 l 1,10,-1
 415 186 l 2,11,12
 396 92 396 92 339 40 c 128,-1,13
 282 -12 282 -12 190 -12 c 0,0,1
EndSplineSet
EndChar

StartChar: K
Encoding: 75 75 44
Width: 633
GlyphClass: 7
Flags: W
LayerCount: 2
Fore
SplineSet
569 0 m 1,0,-1
 387 396 l 1,1,-1
 689 698 l 1,2,-1
 555 698 l 1,3,-1
 332 473 l 1,4,-1
 217 351 l 1,5,-1
 211 351 l 1,6,-1
 281 698 l 1,7,-1
 172 698 l 1,8,-1
 32 0 l 1,9,-1
 140 0 l 1,10,-1
 182 208 l 1,11,-1
 303 324 l 1,12,-1
 450 0 l 1,13,-1
 569 0 l 1,0,-1
EndSplineSet
EndChar

StartChar: L
Encoding: 76 76 45
Width: 498
GlyphClass: 5
Flags: W
LayerCount: 2
Fore
SplineSet
415 0 m 1,0,-1
 434 96 l 1,1,-1
 160 96 l 1,2,-1
 281 698 l 1,3,-1
 172 698 l 1,4,-1
 32 0 l 1,5,-1
 415 0 l 1,0,-1
EndSplineSet
EndChar

StartChar: M
Encoding: 77 77 46
Width: 792
GlyphClass: 3
Flags: W
LayerCount: 2
Fore
SplineSet
655 0 m 1,0,-1
 795 698 l 1,1,-1
 661 698 l 1,2,-1
 411 339 l 1,3,-1
 408 339 l 1,4,-1
 297 698 l 1,5,-1
 172 698 l 1,6,-1
 32 0 l 1,7,-1
 137 0 l 1,8,-1
 243 533 l 1,9,-1
 248 533 l 1,10,11
 311 338 311 338 375 144 c 1,12,-1
 565 408 l 1,13,-1
 652 533 l 1,14,-1
 657 533 l 1,15,-1
 550 0 l 1,16,-1
 655 0 l 1,0,-1
EndSplineSet
EndChar

StartChar: N
Encoding: 78 78 47
Width: 691
GlyphClass: 5
Flags: W
LayerCount: 2
Fore
SplineSet
554 0 m 1,0,-1
 694 698 l 1,1,-1
 591 698 l 1,2,-1
 483 158 l 1,3,-1
 477 158 l 1,4,-1
 428 313 l 1,5,-1
 292 698 l 1,6,-1
 172 698 l 1,7,-1
 32 0 l 1,8,-1
 135 0 l 1,9,-1
 243 540 l 1,10,-1
 249 540 l 1,11,-1
 298 385 l 1,12,-1
 434 0 l 1,13,-1
 554 0 l 1,0,-1
EndSplineSet
EndChar

StartChar: O
Encoding: 79 79 48
Width: 687
GlyphClass: 5
Flags: W
LayerCount: 2
Fore
SplineSet
303 -12 m 0,0,1
 384 -12 384 -12 450 24.5 c 128,-1,2
 516 61 516 61 563 123 c 0,3,4
 660 258 660 258 660 433 c 0,5,6
 660 568 660 568 588 642 c 0,7,8
 521 710 521 710 412 710 c 0,9,10
 331 710 331 710 265.5 674 c 128,-1,11
 200 638 200 638 153 576 c 0,12,13
 56 441 56 441 56 265 c 0,14,15
 56 131 56 131 129 57 c 0,16,17
 201 -12 201 -12 303 -12 c 0,0,1
313 85 m 0,18,19
 241 85 241 85 203 126 c 128,-1,20
 165 167 165 167 165 240 c 0,21,22
 165 266 165 266 171 302 c 2,23,-1
 192 406 l 1,24,25
 238 613 238 613 404 613 c 0,26,27
 547 613 547 613 551 458 c 0,28,29
 551 433 551 433 545 396 c 2,30,-1
 523 290 l 2,31,32
 503 191 503 191 450 138 c 128,-1,33
 397 85 397 85 313 85 c 0,18,19
EndSplineSet
EndChar

StartChar: P
Encoding: 80 80 49
Width: 609
GlyphClass: 5
Flags: W
LayerCount: 2
Fore
SplineSet
140 0 m 1,0,-1
 196 279 l 1,1,-1
 370 279 l 2,2,3
 483 279 483 279 551.5 349 c 128,-1,4
 620 419 620 419 620 522 c 0,5,6
 620 602 620 602 572.5 650 c 128,-1,7
 525 698 525 698 427 698 c 2,8,-1
 172 698 l 1,9,-1
 32 0 l 1,10,-1
 140 0 l 1,0,-1
385 375 m 2,11,-1
 216 375 l 1,12,-1
 261 602 l 1,13,-1
 426 602 l 2,14,15
 508 602 508 602 508 533 c 0,16,17
 508 514 508 514 496 465 c 0,18,19
 471 375 471 375 385 375 c 2,11,-1
EndSplineSet
EndChar

StartChar: Q
Encoding: 81 81 50
Width: 687
GlyphClass: 7
Flags: W
LayerCount: 2
Fore
SplineSet
313 85 m 0,0,1
 241 85 241 85 203 126 c 128,-1,2
 165 167 165 167 165 240 c 0,3,4
 165 266 165 266 171 302 c 2,5,-1
 192 406 l 1,6,7
 238 613 238 613 404 613 c 0,8,9
 547 613 547 613 551 458 c 0,10,11
 551 433 551 433 545 396 c 2,12,-1
 523 290 l 2,13,14
 503 191 503 191 450 138 c 128,-1,15
 397 85 397 85 313 85 c 0,0,1
557 -94 m 1,16,-1
 621 -13 l 1,17,-1
 506 63 l 1,18,19
 537 89 537 89 563 123 c 0,20,21
 660 258 660 258 660 433 c 0,22,23
 660 568 660 568 588 642 c 0,24,25
 521 710 521 710 412 710 c 0,26,27
 331 710 331 710 265.5 674 c 128,-1,28
 200 638 200 638 153 576 c 0,29,30
 56 441 56 441 56 265 c 0,31,32
 56 131 56 131 129 57 c 0,33,34
 201 -12 201 -12 303 -12 c 0,35,36
 358 -12 358 -12 406 5 c 1,37,-1
 557 -94 l 1,16,-1
EndSplineSet
EndChar

StartChar: R
Encoding: 82 82 51
Width: 638
GlyphClass: 7
Flags: W
LayerCount: 2
Fore
SplineSet
536 0 m 1,0,-1
 442 296 l 1,1,2
 526 318 526 318 573 382 c 128,-1,3
 620 446 620 446 620 525 c 0,4,5
 620 603 620 603 573.5 650.5 c 128,-1,6
 527 698 527 698 431 698 c 2,7,-1
 172 698 l 1,8,-1
 32 0 l 1,9,-1
 140 0 l 1,10,-1
 197 283 l 1,11,-1
 336 283 l 1,12,-1
 420 0 l 1,13,-1
 536 0 l 1,0,-1
385 375 m 2,14,-1
 216 375 l 1,15,-1
 261 602 l 1,16,-1
 426 602 l 2,17,18
 508 602 508 602 508 533 c 0,19,20
 508 514 508 514 496 465 c 0,21,22
 471 375 471 375 385 375 c 2,14,-1
EndSplineSet
EndChar

StartChar: S
Encoding: 83 83 52
Width: 598
GlyphClass: 5
Flags: W
LayerCount: 2
Fore
SplineSet
265 -12 m 0,0,1
 385 -12 385 -12 451.5 48 c 128,-1,2
 518 108 518 108 518 210 c 0,3,4
 518 261 518 261 492 300 c 0,5,6
 454 356 454 356 355 396 c 2,7,-1
 296 421 l 2,8,9
 204 457 204 457 204 515 c 0,10,11
 204 527 204 527 205 539 c 0,12,13
 220 608 220 608 329 610 c 0,14,15
 435 610 435 610 492 533 c 1,16,-1
 571 603 l 1,17,18
 487 710 487 710 335 710 c 0,19,20
 217 710 217 710 154 653.5 c 128,-1,21
 91 597 91 597 91 508 c 0,22,23
 91 383 91 383 257 320 c 2,24,-1
 315 297 l 2,25,26
 372 273 372 273 391 245 c 0,27,28
 404 225 404 225 404 199 c 0,29,30
 404 188 404 188 404 176 c 0,31,32
 389 88 389 88 271 88 c 0,33,34
 162 88 162 88 88 179 c 1,35,-1
 10 106 l 1,36,37
 104 -12 104 -12 265 -12 c 0,0,1
EndSplineSet
EndChar

StartChar: T
Encoding: 84 84 53
Width: 561
GlyphClass: 3
Flags: W
LayerCount: 2
Fore
SplineSet
282 0 m 1,0,-1
 403 602 l 1,1,-1
 603 602 l 1,2,-1
 622 698 l 1,3,-1
 113 698 l 1,4,-1
 94 602 l 1,5,-1
 294 602 l 1,6,-1
 174 0 l 1,7,-1
 282 0 l 1,0,-1
EndSplineSet
EndChar

StartChar: U
Encoding: 85 85 54
Width: 665
GlyphClass: 5
Flags: W
LayerCount: 2
Fore
SplineSet
292 -12 m 0,0,1
 418 -12 418 -12 487.5 55.5 c 128,-1,2
 557 123 557 123 587 277 c 2,3,-1
 671 698 l 1,4,-1
 563 698 l 1,5,-1
 479 278 l 2,6,7
 459 177 459 177 416 132.5 c 128,-1,8
 373 88 373 88 300 88 c 0,9,10
 188 88 188 88 183 207 c 0,11,12
 183 239 183 239 192 275 c 2,13,-1
 276 698 l 1,14,-1
 168 698 l 1,15,-1
 88 298 l 2,16,17
 78 244 78 244 78 200 c 0,18,19
 78 97 78 97 133.5 42.5 c 128,-1,20
 189 -12 189 -12 292 -12 c 0,0,1
EndSplineSet
EndChar

StartChar: V
Encoding: 86 86 55
Width: 609
Flags: W
LayerCount: 2
Fore
SplineSet
316 0 m 1,0,-1
 680 698 l 1,1,-1
 565 698 l 1,2,-1
 399 372 l 1,3,-1
 275 114 l 1,4,-1
 270 114 l 1,5,-1
 247 383 l 1,6,-1
 215 698 l 1,7,-1
 106 698 l 1,8,-1
 188 0 l 1,9,-1
 316 0 l 1,0,-1
EndSplineSet
EndChar

StartChar: W
Encoding: 87 87 56
Width: 896
Flags: W
LayerCount: 2
Fore
SplineSet
658 0 m 1,0,-1
 961 698 l 1,1,-1
 851 698 l 1,2,-1
 715 364 l 1,3,-1
 617 116 l 1,4,-1
 610 116 l 1,5,-1
 605 409 l 1,6,-1
 594 698 l 1,7,-1
 471 698 l 1,8,-1
 345 410 l 1,9,-1
 225 119 l 1,10,-1
 218 119 l 1,11,-1
 219 376 l 1,12,-1
 216 698 l 1,13,-1
 109 698 l 1,14,-1
 131 0 l 1,15,-1
 258 0 l 1,16,-1
 507 576 l 1,17,-1
 513 576 l 1,18,-1
 519 335 l 1,19,-1
 533 0 l 1,20,-1
 658 0 l 1,0,-1
EndSplineSet
EndChar

StartChar: X
Encoding: 88 88 57
Width: 615
Flags: W
LayerCount: 2
Fore
SplineSet
536 0 m 1,0,-1
 386 345 l 1,1,-1
 676 698 l 1,2,-1
 551 698 l 1,3,-1
 344 435 l 1,4,-1
 338 435 l 1,5,-1
 229 698 l 1,6,-1
 114 698 l 1,7,-1
 258 363 l 1,8,-1
 -31 0 l 1,9,-1
 95 0 l 1,10,-1
 303 268 l 1,11,-1
 309 268 l 1,12,-1
 420 0 l 1,13,-1
 536 0 l 1,0,-1
EndSplineSet
EndChar

StartChar: Y
Encoding: 89 89 58
Width: 597
Flags: W
LayerCount: 2
Fore
SplineSet
299 0 m 1,0,-1
 353 267 l 1,1,-1
 672 698 l 1,2,-1
 550 698 l 1,3,-1
 321 377 l 1,4,-1
 316 377 l 1,5,-1
 209 698 l 1,6,-1
 99 698 l 1,7,-1
 246 272 l 1,8,-1
 191 0 l 1,9,-1
 299 0 l 1,0,-1
EndSplineSet
EndChar

StartChar: Z
Encoding: 90 90 59
Width: 566
Flags: W
LayerCount: 2
Fore
SplineSet
478 0 m 1,0,-1
 497 96 l 1,1,-1
 135 96 l 1,2,-1
 591 599 l 1,3,-1
 611 698 l 1,4,-1
 138 698 l 1,5,-1
 119 602 l 1,6,-1
 463 602 l 1,7,-1
 7 99 l 1,8,-1
 -13 0 l 1,9,-1
 478 0 l 1,0,-1
EndSplineSet
EndChar

StartChar: bracketleft
Encoding: 91 91 60
Width: 320
Flags: W
LayerCount: 2
Fore
SplineSet
189 -138 m 1,0,-1
 204 -60 l 1,1,-1
 114 -60 l 1,2,-1
 263 682 l 1,3,-1
 353 682 l 1,4,-1
 369 760 l 1,5,-1
 185 760 l 1,6,-1
 5 -138 l 1,7,-1
 189 -138 l 1,0,-1
EndSplineSet
EndChar

StartChar: backslash
Encoding: 92 92 61
Width: 421
Flags: W
LayerCount: 2
Fore
SplineSet
322 -151 m 1,0,-1
 232 740 l 1,1,-1
 145 740 l 1,2,-1
 235 -151 l 1,3,-1
 322 -151 l 1,0,-1
EndSplineSet
EndChar

StartChar: bracketright
Encoding: 93 93 62
Width: 319
Flags: W
LayerCount: 2
Fore
SplineSet
156 -138 m 1,0,-1
 336 760 l 1,1,-1
 152 760 l 1,2,-1
 136 682 l 1,3,-1
 227 682 l 1,4,-1
 78 -60 l 1,5,-1
 -12 -60 l 1,6,-1
 -28 -138 l 1,7,-1
 156 -138 l 1,0,-1
EndSplineSet
EndChar

StartChar: asciicircum
Encoding: 94 94 63
Width: 600
Flags: W
LayerCount: 2
Fore
SplineSet
481 289 m 1,0,-1
 567 325 l 1,1,-1
 435 698 l 1,2,-1
 330 698 l 1,3,-1
 63 336 l 1,4,-1
 140 289 l 1,5,-1
 365 591 l 1,6,-1
 372 591 l 1,7,-1
 481 289 l 1,0,-1
EndSplineSet
EndChar

StartChar: underscore
Encoding: 95 95 64
Width: 548
Flags: W
LayerCount: 2
Fore
SplineSet
432 -173 m 1,0,-1
 450 -85 l 1,1,-1
 -39 -85 l 1,2,-1
 -57 -173 l 1,3,-1
 432 -173 l 1,0,-1
EndSplineSet
EndChar

StartChar: grave
Encoding: 96 96 65
Width: 590
Flags: W
LayerCount: 2
Fore
SplineSet
285 582 m 1,0,-1
 349 611 l 1,1,-1
 285 794 l 1,2,-1
 192 750 l 1,3,-1
 285 582 l 1,0,-1
EndSplineSet
EndChar

StartChar: a
Encoding: 97 97 66
Width: 586
Flags: W
LayerCount: 2
Fore
SplineSet
192 -12 m 0,0,1
 252 -12 252 -12 291 20 c 128,-1,2
 330 52 330 52 361 116 c 1,3,-1
 365 116 l 1,4,5
 363 107 363 107 360.5 96 c 128,-1,6
 358 85 358 85 358 68 c 0,7,8
 358 4 358 4 434 0 c 1,9,-1
 513 0 l 1,10,-1
 530 87 l 1,11,-1
 463 87 l 1,12,-1
 550 520 l 1,13,-1
 446 520 l 1,14,-1
 429 433 l 1,15,-1
 424 433 l 1,16,17
 415 479 415 479 378.5 505.5 c 128,-1,18
 342 532 342 532 291 532 c 0,19,20
 233 532 233 532 187 502.5 c 128,-1,21
 141 473 141 473 109 424 c 0,22,23
 42 316 42 316 42 179 c 0,24,25
 42 92 42 92 81 40 c 128,-1,26
 120 -12 120 -12 192 -12 c 0,0,1
232 77 m 0,27,28
 190 77 190 77 169.5 104.5 c 128,-1,29
 149 132 149 132 149 176 c 0,30,31
 149 200 149 200 154 230 c 2,32,-1
 169 303 l 2,33,34
 196 443 196 443 311 443 c 0,35,36
 364 443 364 443 391 413 c 0,37,38
 412 389 412 389 412 361 c 0,39,40
 412 354 412 354 390 243 c 0,41,42
 377 173 377 173 333 127 c 0,43,44
 288 77 288 77 232 77 c 0,27,28
EndSplineSet
EndChar

StartChar: b
Encoding: 98 98 67
Width: 577
Flags: W
LayerCount: 2
Fore
SplineSet
286 -12 m 0,0,1
 397 -12 397 -12 469 96 c 1,2,3
 535 205 535 205 535 341 c 0,4,5
 535 428 535 428 496 480 c 128,-1,6
 457 532 457 532 385 532 c 0,7,8
 325 532 325 532 286 500 c 128,-1,9
 247 468 247 468 216 404 c 1,10,-1
 212 404 l 1,11,-1
 279 740 l 1,12,-1
 175 740 l 1,13,-1
 27 0 l 1,14,-1
 131 0 l 1,15,-1
 148 87 l 1,16,-1
 153 87 l 1,17,18
 162 39 162 39 198.5 13.5 c 128,-1,19
 235 -12 235 -12 286 -12 c 0,0,1
267 77 m 0,20,21
 209 77 209 77 184 107 c 0,22,23
 166 129 166 129 166 160 c 0,24,25
 166 171 166 171 168 183 c 2,26,-1
 187 278 l 2,27,28
 201 348 201 348 244 393 c 0,29,30
 289 443 289 443 343 443 c 0,31,32
 386 443 386 443 407 415.5 c 128,-1,33
 428 388 428 388 428 344 c 0,34,35
 428 319 428 319 423 290 c 2,36,-1
 408 217 l 2,37,38
 381 77 381 77 267 77 c 0,20,21
EndSplineSet
EndChar

StartChar: c
Encoding: 99 99 68
Width: 491
Flags: W
LayerCount: 2
Fore
SplineSet
237 -12 m 0,0,1
 380 -12 380 -12 447 131 c 1,2,-1
 367 169 l 1,3,4
 341 121 341 121 313 98.5 c 128,-1,5
 285 76 285 76 247 76 c 0,6,7
 195 76 195 76 170 105.5 c 128,-1,8
 145 135 145 135 145 183 c 0,9,10
 145 203 145 203 150 227 c 2,11,-1
 167 313 l 2,12,13
 193 444 193 444 301 444 c 0,14,15
 343 444 343 444 364.5 424.5 c 128,-1,16
 386 405 386 405 397 370 c 1,17,-1
 484 405 l 1,18,19
 471 463 471 463 424.5 497.5 c 128,-1,20
 378 532 378 532 306 532 c 0,21,22
 190 532 190 532 116 437.5 c 128,-1,23
 42 343 42 343 42 206 c 0,24,25
 42 99 42 99 96 43.5 c 128,-1,26
 150 -12 150 -12 237 -12 c 0,0,1
EndSplineSet
EndChar

StartChar: d
Encoding: 100 100 69
Width: 586
Flags: W
LayerCount: 2
Fore
SplineSet
192 -12 m 0,0,1
 252 -12 252 -12 291 20 c 128,-1,2
 330 52 330 52 361 116 c 1,3,-1
 365 116 l 1,4,5
 363 107 363 107 360.5 96 c 128,-1,6
 358 85 358 85 358 68 c 0,7,8
 358 4 358 4 434 0 c 1,9,-1
 513 0 l 1,10,-1
 530 87 l 1,11,-1
 463 87 l 1,12,-1
 594 740 l 1,13,-1
 490 740 l 1,14,-1
 429 433 l 1,15,-1
 424 433 l 1,16,17
 415 479 415 479 378.5 505.5 c 128,-1,18
 342 532 342 532 291 532 c 0,19,20
 233 532 233 532 187 502.5 c 128,-1,21
 141 473 141 473 109 424 c 0,22,23
 42 316 42 316 42 179 c 0,24,25
 42 92 42 92 81 40 c 128,-1,26
 120 -12 120 -12 192 -12 c 0,0,1
234 77 m 0,27,28
 191 77 191 77 170 104.5 c 128,-1,29
 149 132 149 132 149 176 c 0,30,31
 149 202 149 202 154 230 c 2,32,-1
 169 303 l 2,33,34
 197 443 197 443 309 443 c 0,35,36
 368 443 368 443 393 413 c 0,37,38
 411 391 411 391 411 360 c 0,39,40
 411 349 411 349 409 337 c 2,41,-1
 390 242 l 2,42,43
 377 174 377 174 333 127 c 0,44,45
 313 106 313 106 289 91.5 c 128,-1,46
 265 77 265 77 234 77 c 0,27,28
EndSplineSet
EndChar

StartChar: e
Encoding: 101 101 70
Width: 512
Flags: W
LayerCount: 2
Fore
SplineSet
248 -12 m 0,0,1
 309 -12 309 -12 363 13.5 c 128,-1,2
 417 39 417 39 466 99 c 1,3,-1
 400 154 l 1,4,5
 341 76 341 76 255 76 c 0,6,7
 198 76 198 76 171.5 105 c 128,-1,8
 145 134 145 134 145 182 c 0,9,10
 145 196 145 196 148 215 c 1,11,12
 326 220 326 220 409.5 264 c 128,-1,13
 493 308 493 308 493 390 c 0,14,15
 493 461 493 461 437 499 c 0,16,17
 388 532 388 532 318 532 c 0,18,19
 255 532 255 532 204 506 c 128,-1,20
 153 480 153 480 117 434 c 0,21,22
 42 336 42 336 42 208 c 0,23,24
 42 103 42 103 94.5 45.5 c 128,-1,25
 147 -12 147 -12 248 -12 c 0,0,1
160 288 m 1,26,-1
 165 314 l 2,27,28
 178 377 178 377 217 413 c 128,-1,29
 256 449 256 449 310 449 c 0,30,31
 340 449 340 449 365 437 c 0,32,33
 390 423 390 423 390 385 c 0,34,35
 390 363 390 363 381 346 c 128,-1,36
 372 329 372 329 347 317 c 0,37,38
 299 294 299 294 160 288 c 1,26,-1
EndSplineSet
EndChar

StartChar: f
Encoding: 102 102 71
Width: 326
Flags: W
LayerCount: 2
Fore
SplineSet
-10 -200 m 2,0,1
 60 -200 60 -200 96.5 -167 c 128,-1,2
 133 -134 133 -134 144 -71 c 2,3,-1
 245 433 l 1,4,-1
 347 433 l 1,5,-1
 364 520 l 1,6,-1
 263 520 l 1,7,-1
 289 653 l 1,8,-1
 391 653 l 1,9,-1
 408 740 l 1,10,-1
 331 740 l 2,11,12
 261 740 261 740 224.5 707 c 128,-1,13
 188 674 188 674 177 611 c 2,14,-1
 159 520 l 1,15,-1
 80 520 l 1,16,-1
 63 433 l 1,17,-1
 141 433 l 1,18,-1
 31 -113 l 1,19,-1
 -63 -113 l 1,20,-1
 -80 -200 l 1,21,-1
 -10 -200 l 2,0,1
EndSplineSet
EndChar

StartChar: g
Encoding: 103 103 72
Width: 566
Flags: W
LayerCount: 2
Fore
SplineSet
202 -212 m 0,0,1
 66 -212 66 -212 3 -121 c 1,2,-1
 73 -59 l 1,3,4
 114 -125 114 -125 201 -125 c 0,5,6
 317 -125 317 -125 344 12 c 2,7,-1
 366 122 l 1,8,-1
 362 122 l 1,9,10
 332 58 332 58 292 26 c 128,-1,11
 252 -6 252 -6 193 -6 c 0,12,13
 122 -6 122 -6 83 46.5 c 128,-1,14
 44 99 44 99 44 185 c 0,15,16
 44 276 44 276 73.5 355 c 128,-1,17
 103 434 103 434 158.5 483 c 128,-1,18
 214 532 214 532 291 532 c 0,19,20
 341 532 341 532 378 505.5 c 128,-1,21
 415 479 415 479 424 433 c 1,22,-1
 429 433 l 1,23,-1
 446 520 l 1,24,-1
 550 520 l 1,25,-1
 447 4 l 2,26,27
 427 -100 427 -100 368.5 -156 c 128,-1,28
 310 -212 310 -212 202 -212 c 0,0,1
235 83 m 0,29,30
 289 83 289 83 334 133 c 0,31,32
 377 179 377 179 391 248 c 0,33,34
 410 348 410 348 410 358 c 0,35,36
 410 387 410 387 390 415 c 128,-1,37
 370 443 370 443 310 443 c 0,38,39
 199 443 199 443 170 303 c 2,40,-1
 156 236 l 2,41,42
 151 208 151 208 151 182 c 0,43,44
 151 139 151 139 172 111 c 128,-1,45
 193 83 193 83 235 83 c 0,29,30
EndSplineSet
EndChar

StartChar: h
Encoding: 104 104 73
Width: 573
Flags: W
LayerCount: 2
Fore
SplineSet
504 0 m 1,0,-1
 521 87 l 1,1,-1
 458 87 l 1,2,-1
 505 322 l 2,3,4
 513 358 513 358 513 392 c 0,5,6
 513 458 513 458 480.5 495 c 128,-1,7
 448 532 448 532 383 532 c 0,8,9
 325 532 325 532 286 500.5 c 128,-1,10
 247 469 247 469 218 409 c 1,11,-1
 213 409 l 1,12,-1
 279 740 l 1,13,-1
 175 740 l 1,14,-1
 27 0 l 1,15,-1
 131 0 l 1,16,-1
 187 280 l 2,17,18
 197 335 197 335 237.5 388.5 c 128,-1,19
 278 442 278 442 338 442 c 0,20,21
 406 442 406 442 406 370 c 0,22,23
 406 345 406 345 400 315 c 2,24,-1
 355 90 l 2,25,26
 353 78 353 78 353 66 c 0,27,28
 353 2 353 2 425 0 c 2,29,-1
 504 0 l 1,0,-1
EndSplineSet
EndChar

StartChar: i
Encoding: 105 105 74
Width: 271
Flags: W
LayerCount: 2
Fore
SplineSet
204 613 m 0,0,1
 239 613 239 613 254.5 629 c 128,-1,2
 270 645 270 645 275.5 668.5 c 128,-1,3
 281 692 281 692 281 702 c 0,4,5
 281 720 281 720 268 732 c 128,-1,6
 255 744 255 744 226 744 c 0,7,8
 192 744 192 744 175 729 c 0,9,10
 160 712 160 712 154.5 688.5 c 128,-1,11
 149 665 149 665 149 655 c 0,12,13
 149 637 149 637 162 625 c 128,-1,14
 175 613 175 613 204 613 c 0,0,1
198 0 m 1,15,-1
 215 87 l 1,16,-1
 148 87 l 1,17,-1
 235 520 l 1,18,-1
 131 520 l 1,19,20
 43 80 43 80 43 70 c 0,21,22
 43 39 43 39 63 19.5 c 128,-1,23
 83 0 83 0 121 0 c 2,24,-1
 198 0 l 1,15,-1
EndSplineSet
EndChar

StartChar: j
Encoding: 106 106 75
Width: 263
Flags: W
LayerCount: 2
Fore
SplineSet
-19 -200 m 2,0,1
 43 -200 43 -200 74 -171 c 128,-1,2
 105 -142 105 -142 116 -83 c 2,3,-1
 237 520 l 1,4,-1
 133 520 l 1,5,-1
 6 -114 l 1,6,-1
 -74 -114 l 1,7,-1
 -91 -200 l 1,8,-1
 -19 -200 l 2,0,1
206 613 m 0,9,10
 241 613 241 613 256.5 629 c 128,-1,11
 272 645 272 645 277.5 668.5 c 128,-1,12
 283 692 283 692 283 702 c 0,13,14
 283 720 283 720 270 732 c 128,-1,15
 257 744 257 744 228 744 c 0,16,17
 194 744 194 744 177 729 c 0,18,19
 162 712 162 712 156.5 688.5 c 128,-1,20
 151 665 151 665 151 655 c 0,21,22
 151 637 151 637 164 625 c 128,-1,23
 177 613 177 613 206 613 c 0,9,10
EndSplineSet
EndChar

StartChar: k
Encoding: 107 107 76
Width: 532
Flags: W
LayerCount: 2
Fore
SplineSet
468 0 m 1,0,-1
 485 87 l 1,1,-1
 422 87 l 1,2,-1
 331 310 l 1,3,-1
 554 520 l 1,4,-1
 431 520 l 1,5,-1
 278 377 l 1,6,-1
 195 289 l 1,7,-1
 189 289 l 1,8,-1
 279 740 l 1,9,-1
 175 740 l 1,10,-1
 27 0 l 1,11,-1
 131 0 l 1,12,-1
 163 162 l 1,13,-1
 249 243 l 1,14,-1
 320 65 l 1,15,16
 341 0 341 0 411 0 c 2,17,-1
 468 0 l 1,0,-1
EndSplineSet
EndChar

StartChar: l
Encoding: 108 108 77
Width: 270
Flags: W
LayerCount: 2
Fore
SplineSet
202 0 m 1,0,-1
 219 87 l 1,1,-1
 147 87 l 1,2,-1
 278 740 l 1,3,-1
 174 740 l 1,4,5
 42 80 42 80 42 70 c 0,6,7
 42 39 42 39 62 19.5 c 128,-1,8
 82 0 82 0 120 0 c 2,9,-1
 202 0 l 1,0,-1
EndSplineSet
EndChar

StartChar: m
Encoding: 109 109 78
Width: 859
Flags: W
LayerCount: 2
Fore
SplineSet
790 0 m 1,0,-1
 807 87 l 1,1,-1
 744 87 l 1,2,-1
 790 316 l 2,3,4
 799 358 799 358 799 394 c 0,5,6
 799 459 799 459 767.5 495.5 c 128,-1,7
 736 532 736 532 673 532 c 0,8,9
 613 532 613 532 573 500.5 c 128,-1,10
 533 469 533 469 506 409 c 1,11,-1
 501 409 l 1,12,13
 497 467 497 467 467 499.5 c 128,-1,14
 437 532 437 532 380 532 c 0,15,16
 322 532 322 532 284.5 500.5 c 128,-1,17
 247 469 247 469 218 409 c 1,18,-1
 213 409 l 1,19,-1
 235 520 l 1,20,-1
 131 520 l 1,21,-1
 27 0 l 1,22,-1
 131 0 l 1,23,-1
 187 280 l 2,24,25
 200 343 200 343 248 398 c 0,26,27
 283 442 283 442 335 442 c 0,28,29
 396 442 396 442 396 372 c 0,30,31
 396 347 396 347 389 315 c 2,32,-1
 326 0 l 1,33,-1
 430 0 l 1,34,-1
 486 280 l 2,35,36
 497 338 497 338 534 387 c 0,37,38
 575 442 575 442 629 442 c 0,39,40
 693 442 693 442 693 371 c 0,41,42
 693 347 693 347 686 316 c 0,43,44
 638 75 638 75 638 65 c 0,45,46
 638 1 638 1 711 0 c 2,47,-1
 790 0 l 1,0,-1
EndSplineSet
EndChar

StartChar: n
Encoding: 110 110 79
Width: 573
Flags: W
LayerCount: 2
Fore
SplineSet
504 0 m 1,0,-1
 521 87 l 1,1,-1
 458 87 l 1,2,-1
 505 322 l 2,3,4
 513 358 513 358 513 392 c 0,5,6
 513 458 513 458 480.5 495 c 128,-1,7
 448 532 448 532 383 532 c 0,8,9
 325 532 325 532 286 500.5 c 128,-1,10
 247 469 247 469 218 409 c 1,11,-1
 213 409 l 1,12,-1
 235 520 l 1,13,-1
 131 520 l 1,14,-1
 27 0 l 1,15,-1
 131 0 l 1,16,-1
 187 280 l 2,17,18
 197 335 197 335 237.5 388.5 c 128,-1,19
 278 442 278 442 338 442 c 0,20,21
 406 442 406 442 406 370 c 0,22,23
 406 345 406 345 400 315 c 2,24,-1
 354 85 l 2,25,26
 353 80 353 80 353 66 c 0,27,28
 353 2 353 2 425 0 c 2,29,-1
 504 0 l 1,0,-1
EndSplineSet
EndChar

StartChar: o
Encoding: 111 111 80
Width: 548
Flags: W
LayerCount: 2
Fore
SplineSet
238 -12 m 0,0,1
 354 -12 354 -12 430 84.5 c 128,-1,2
 506 181 506 181 506 317 c 0,3,4
 506 422 506 422 452 477 c 128,-1,5
 398 532 398 532 310 532 c 0,6,7
 251 532 251 532 202 506 c 128,-1,8
 153 480 153 480 118 435 c 0,9,10
 42 337 42 337 42 203 c 0,11,12
 42 98 42 98 96 43 c 128,-1,13
 150 -12 150 -12 238 -12 c 0,0,1
246 76 m 0,14,15
 196 76 196 76 170.5 104.5 c 128,-1,16
 145 133 145 133 145 181 c 0,17,18
 145 204 145 204 149 220 c 2,19,-1
 166 303 l 2,20,21
 181 372 181 372 217 408 c 128,-1,22
 253 444 253 444 302 444 c 0,23,24
 352 444 352 444 377.5 415.5 c 128,-1,25
 403 387 403 387 403 339 c 0,26,27
 403 317 403 317 399 300 c 2,28,-1
 382 217 l 2,29,30
 367 148 367 148 331 112 c 128,-1,31
 295 76 295 76 246 76 c 0,14,15
EndSplineSet
EndChar

StartChar: p
Encoding: 112 112 81
Width: 577
Flags: W
LayerCount: 2
Fore
SplineSet
91 -200 m 1,0,-1
 148 87 l 1,1,-1
 153 87 l 1,2,3
 162 39 162 39 198.5 13.5 c 128,-1,4
 235 -12 235 -12 286 -12 c 0,5,6
 397 -12 397 -12 469 96 c 1,7,8
 535 205 535 205 535 341 c 0,9,10
 535 428 535 428 496 480 c 128,-1,11
 457 532 457 532 385 532 c 0,12,13
 325 532 325 532 286 500 c 128,-1,14
 247 468 247 468 216 404 c 1,15,-1
 212 404 l 1,16,-1
 235 520 l 1,17,-1
 131 520 l 1,18,-1
 -13 -200 l 1,19,-1
 91 -200 l 1,0,-1
267 77 m 0,20,21
 209 77 209 77 184 107 c 0,22,23
 166 129 166 129 166 160 c 0,24,25
 166 171 166 171 168 183 c 2,26,-1
 187 278 l 2,27,28
 201 347 201 347 244 393 c 0,29,30
 287 443 287 443 343 443 c 0,31,32
 386 443 386 443 407 415.5 c 128,-1,33
 428 388 428 388 428 344 c 0,34,35
 428 319 428 319 423 290 c 2,36,-1
 408 217 l 2,37,38
 381 77 381 77 267 77 c 0,20,21
EndSplineSet
EndChar

StartChar: q
Encoding: 113 113 82
Width: 576
Flags: W
LayerCount: 2
Fore
SplineSet
406 -200 m 1,0,-1
 550 520 l 1,1,-1
 446 520 l 1,2,-1
 429 433 l 1,3,-1
 424 433 l 1,4,5
 415 479 415 479 378.5 505.5 c 128,-1,6
 342 532 342 532 291 532 c 0,7,8
 233 532 233 532 187 502.5 c 128,-1,9
 141 473 141 473 109 424 c 0,10,11
 42 316 42 316 42 179 c 0,12,13
 42 92 42 92 81 40 c 128,-1,14
 120 -12 120 -12 192 -12 c 0,15,16
 252 -12 252 -12 291 20 c 128,-1,17
 330 52 330 52 361 116 c 1,18,-1
 365 116 l 1,19,-1
 302 -200 l 1,20,-1
 406 -200 l 1,0,-1
234 77 m 0,21,22
 191 77 191 77 170 104.5 c 128,-1,23
 149 132 149 132 149 176 c 0,24,25
 149 202 149 202 154 230 c 2,26,-1
 169 303 l 2,27,28
 197 443 197 443 309 443 c 0,29,30
 368 443 368 443 393 413 c 0,31,32
 411 391 411 391 411 360 c 0,33,34
 411 349 411 349 409 337 c 2,35,-1
 390 242 l 2,36,37
 376 173 376 173 333 127 c 0,38,39
 288 77 288 77 234 77 c 0,21,22
EndSplineSet
EndChar

StartChar: r
Encoding: 114 114 83
Width: 377
Flags: W
LayerCount: 2
Fore
SplineSet
131 0 m 1,0,-1
 190 294 l 2,1,2
 213 417 213 417 346 417 c 2,3,-1
 381 417 l 1,4,-1
 402 520 l 1,5,-1
 373 520 l 2,6,7
 317 520 317 520 274 485 c 0,8,9
 237 452 237 452 219 409 c 1,10,-1
 213 409 l 1,11,-1
 235 520 l 1,12,-1
 131 520 l 1,13,-1
 27 0 l 1,14,-1
 131 0 l 1,0,-1
EndSplineSet
EndChar

StartChar: s
Encoding: 115 115 84
Width: 494
Flags: W
LayerCount: 2
Fore
SplineSet
220 -12 m 0,0,1
 313 -12 313 -12 370 34 c 0,2,3
 412 67 412 67 424 118 c 0,4,5
 427 135 427 135 427 151 c 0,6,7
 427 193 427 193 400.5 231 c 128,-1,8
 374 269 374 269 292 298 c 2,9,-1
 246 314 l 2,10,11
 179 337 179 337 179 380 c 0,12,13
 179 444 179 444 266 444 c 0,14,15
 346 444 346 444 393 385 c 1,16,-1
 460 449 l 1,17,18
 426 488 426 488 381 510 c 128,-1,19
 336 532 336 532 266 532 c 0,20,21
 178 532 178 532 125 488.5 c 128,-1,22
 72 445 72 445 72 374 c 0,23,24
 72 269 72 269 214 223 c 2,25,-1
 260 208 l 2,26,27
 320 187 320 187 320 144 c 0,28,29
 320 76 320 76 226 76 c 0,30,31
 140 76 140 76 79 150 c 1,32,-1
 9 86 l 1,33,34
 86 -12 86 -12 220 -12 c 0,0,1
EndSplineSet
EndChar

StartChar: t
Encoding: 116 116 85
Width: 333
Flags: W
LayerCount: 2
Fore
SplineSet
251 0 m 1,0,-1
 268 87 l 1,1,-1
 168 87 l 1,2,-1
 236 433 l 1,3,-1
 341 433 l 1,4,-1
 358 520 l 1,5,-1
 254 520 l 1,6,-1
 282 662 l 1,7,-1
 185 662 l 1,8,-1
 167 571 l 2,9,10
 163 544 163 544 152 532 c 128,-1,11
 141 520 141 520 112 520 c 2,12,-1
 73 520 l 1,13,-1
 56 433 l 1,14,-1
 133 433 l 1,15,-1
 69 117 l 2,16,17
 65 96 65 96 65 79 c 0,18,19
 65 42 65 42 87.5 21 c 128,-1,20
 110 0 110 0 158 0 c 2,21,-1
 251 0 l 1,0,-1
EndSplineSet
EndChar

StartChar: u
Encoding: 117 117 86
Width: 570
Flags: W
LayerCount: 2
Fore
SplineSet
182 -12 m 0,0,1
 238 -12 238 -12 276 19.5 c 128,-1,2
 314 51 314 51 343 111 c 1,3,-1
 348 111 l 1,4,5
 343 81 343 81 343 69 c 0,6,7
 343 5 343 5 417 0 c 1,8,-1
 497 0 l 1,9,-1
 514 87 l 1,10,-1
 447 87 l 1,11,-1
 534 520 l 1,12,-1
 430 520 l 1,13,-1
 374 242 l 2,14,15
 363 186 363 186 325 135 c 0,16,17
 284 78 284 78 225 78 c 0,18,19
 190 78 190 78 175 97 c 128,-1,20
 160 116 160 116 160 151 c 0,21,22
 160 174 160 174 166 204 c 2,23,-1
 229 520 l 1,24,-1
 125 520 l 1,25,-1
 61 199 l 2,26,27
 53 163 53 163 53 128 c 0,28,29
 53 62 53 62 85.5 25 c 128,-1,30
 118 -12 118 -12 182 -12 c 0,0,1
EndSplineSet
EndChar

StartChar: v
Encoding: 118 118 87
Width: 496
Flags: W
LayerCount: 2
Fore
SplineSet
255 0 m 1,0,-1
 534 520 l 1,1,-1
 423 520 l 1,2,-1
 304 289 l 1,3,-1
 213 95 l 1,4,-1
 208 95 l 1,5,-1
 189 289 l 1,6,-1
 160 520 l 1,7,-1
 58 520 l 1,8,-1
 131 0 l 1,9,-1
 255 0 l 1,0,-1
EndSplineSet
EndChar

StartChar: w
Encoding: 119 119 88
Width: 762
Flags: W
LayerCount: 2
Fore
SplineSet
550 0 m 1,0,-1
 787 520 l 1,1,-1
 685 520 l 1,2,3
 596 315 596 315 509 109 c 1,4,-1
 504 109 l 1,5,6
 490 315 490 315 474 520 c 1,7,-1
 375 520 l 1,8,9
 280 315 280 315 187 109 c 1,10,-1
 182 109 l 1,11,12
 176 315 176 315 169 520 c 1,13,-1
 67 520 l 1,14,-1
 100 0 l 1,15,-1
 220 0 l 1,16,-1
 335 244 l 1,17,-1
 398 385 l 1,18,-1
 403 385 l 1,19,-1
 413 235 l 1,20,-1
 434 0 l 1,21,-1
 550 0 l 1,0,-1
EndSplineSet
EndChar

StartChar: x
Encoding: 120 120 89
Width: 504
Flags: W
LayerCount: 2
Fore
SplineSet
440 0 m 1,0,-1
 313 257 l 1,1,-1
 539 520 l 1,2,-1
 423 520 l 1,3,-1
 271 332 l 1,4,-1
 266 332 l 1,5,-1
 186 520 l 1,6,-1
 74 520 l 1,7,-1
 194 270 l 1,8,-1
 -38 0 l 1,9,-1
 78 0 l 1,10,-1
 236 194 l 1,11,-1
 241 194 l 1,12,-1
 327 0 l 1,13,-1
 440 0 l 1,0,-1
EndSplineSet
EndChar

StartChar: y
Encoding: 121 121 90
Width: 495
Flags: W
LayerCount: 2
Fore
SplineSet
55 -200 m 2,0,1
 109 -200 109 -200 140.5 -177 c 128,-1,2
 172 -154 172 -154 198 -103 c 2,3,-1
 536 520 l 1,4,-1
 425 520 l 1,5,-1
 306 289 l 1,6,-1
 215 98 l 1,7,-1
 210 98 l 1,8,-1
 191 289 l 1,9,-1
 160 520 l 1,10,-1
 58 520 l 1,11,-1
 137 -22 l 1,12,-1
 88 -114 l 1,13,-1
 -7 -114 l 1,14,-1
 -24 -200 l 1,15,-1
 55 -200 l 2,0,1
EndSplineSet
EndChar

StartChar: z
Encoding: 122 122 91
Width: 466
Flags: W
LayerCount: 2
Fore
SplineSet
387 0 m 1,0,-1
 404 86 l 1,1,-1
 133 86 l 1,2,-1
 460 434 l 1,3,-1
 477 520 l 1,4,-1
 96 520 l 1,5,-1
 79 434 l 1,6,-1
 335 434 l 1,7,-1
 9 86 l 1,8,-1
 -8 0 l 1,9,-1
 387 0 l 1,0,-1
EndSplineSet
EndChar

StartChar: braceleft
Encoding: 123 123 92
Width: 343
Flags: W
LayerCount: 2
Fore
SplineSet
215 -138 m 1,0,-1
 232 -57 l 1,1,-1
 147 -57 l 1,2,3
 199 204 199 204 199 214 c 0,4,5
 199 288 199 288 123 306 c 1,6,-1
 125 316 l 1,7,8
 184 323 184 323 211 359 c 128,-1,9
 238 395 238 395 247 442 c 2,10,-1
 294 679 l 1,11,-1
 379 679 l 1,12,-1
 394 760 l 1,13,-1
 294 760 l 2,14,15
 218 760 218 760 198 670 c 2,16,-1
 153 447 l 2,17,18
 144 403 144 403 118 381 c 128,-1,19
 92 359 92 359 44 359 c 1,20,-1
 25 265 l 1,21,22
 97 265 97 265 100 196 c 0,23,24
 100 183 100 183 97 168 c 2,25,-1
 55 -44 l 2,26,27
 52 -59 52 -59 52 -70 c 0,28,29
 52 -134 52 -134 125 -138 c 1,30,-1
 215 -138 l 1,0,-1
EndSplineSet
EndChar

StartChar: bar
Encoding: 124 124 93
Width: 344
Flags: W
LayerCount: 2
Fore
SplineSet
139 -138 m 1,0,-1
 318 760 l 1,1,-1
 227 760 l 1,2,-1
 47 -138 l 1,3,-1
 139 -138 l 1,0,-1
EndSplineSet
EndChar

StartChar: braceright
Encoding: 125 125 94
Width: 344
Flags: W
LayerCount: 2
Fore
SplineSet
69 -138 m 2,0,1
 146 -138 146 -138 165 -48 c 2,2,-1
 209 175 l 2,3,4
 227 264 227 264 319 264 c 1,5,-1
 338 358 l 1,6,7
 262 358 262 358 262 426 c 0,8,9
 262 440 262 440 265 454 c 2,10,-1
 308 666 l 2,11,12
 310 674 310 674 310 692 c 0,13,14
 310 757 310 757 238 760 c 2,15,-1
 147 760 l 1,16,-1
 130 679 l 1,17,-1
 215 679 l 1,18,-1
 168 443 l 2,19,20
 164 426 164 426 164 409 c 0,21,22
 164 333 164 333 239 316 c 1,23,-1
 238 306 l 1,24,25
 133 293 133 293 115 180 c 1,26,-1
 68 -57 l 1,27,-1
 -16 -57 l 1,28,-1
 -32 -138 l 1,29,-1
 69 -138 l 2,0,1
EndSplineSet
EndChar

StartChar: asciitilde
Encoding: 126 126 95
Width: 600
Flags: W
LayerCount: 2
Fore
SplineSet
406 225 m 0,0,1
 454 225 454 225 485 241 c 128,-1,2
 516 257 516 257 539 281 c 1,3,-1
 509 345 l 1,4,5
 486 328 486 328 466.5 320.5 c 128,-1,6
 447 313 447 313 424 313 c 0,7,8
 394 313 394 313 370 322.5 c 128,-1,9
 346 332 346 332 322 347 c 0,10,11
 284 367 284 367 265 375 c 0,12,13
 240 385 240 385 205 385 c 0,14,15
 157 385 157 385 126 369.5 c 128,-1,16
 95 354 95 354 72 329 c 1,17,-1
 102 266 l 1,18,19
 126 282 126 282 145.5 290 c 128,-1,20
 165 298 165 298 188 298 c 0,21,22
 218 298 218 298 241.5 288.5 c 128,-1,23
 265 279 265 279 289 264 c 0,24,25
 317 246 317 246 343 235.5 c 128,-1,26
 369 225 369 225 406 225 c 0,0,1
EndSplineSet
EndChar

StartChar: exclamdown
Encoding: 161 161 97
Width: 290
Flags: W
LayerCount: 2
Fore
SplineSet
112 -178 m 1,0,-1
 152 22 l 1,1,-1
 180 320 l 1,2,-1
 132 320 l 1,3,-1
 40 22 l 1,4,-1
 0 -178 l 1,5,-1
 112 -178 l 1,0,-1
169 381 m 0,6,7
 237 381 237 381 248 444 c 0,8,9
 253 465 253 465 253 483 c 0,10,11
 253 504 253 504 238 518 c 128,-1,12
 223 532 223 532 191 532 c 0,13,14
 107 532 107 532 107 430 c 0,15,16
 107 409 107 409 122 395 c 128,-1,17
 137 381 137 381 169 381 c 0,6,7
EndSplineSet
EndChar

StartChar: cent
Encoding: 162 162 98
Width: 517
Flags: W
LayerCount: 2
Fore
SplineSet
243 -114 m 1,0,-1
 264 -10 l 1,1,2
 393 3 393 3 456 122 c 1,3,-1
 381 164 l 1,4,5
 338 87 338 87 276 76 c 1,6,-1
 347 437 l 1,7,8
 398 420 398 420 412 364 c 1,9,-1
 497 404 l 1,10,11
 468 495 468 495 370 522 c 1,12,-1
 392 630 l 1,13,-1
 306 630 l 1,14,-1
 285 526 l 1,15,16
 171 511 171 511 107 422 c 0,17,18
 42 329 42 329 42 209 c 0,19,20
 42 40 42 40 179 -4 c 1,21,-1
 157 -114 l 1,22,-1
 243 -114 l 1,0,-1
201 82 m 1,23,24
 172 94 172 94 157.5 121 c 128,-1,25
 143 148 143 148 143 183 c 0,26,27
 143 206 143 206 147 222 c 2,28,-1
 164 308 l 2,29,30
 184 412 184 412 272 437 c 1,31,-1
 201 82 l 1,23,24
EndSplineSet
EndChar

StartChar: sterling
Encoding: 163 163 99
Width: 584
Flags: W
LayerCount: 2
Fore
SplineSet
474 0 m 1,0,-1
 493 96 l 1,1,-1
 154 96 l 1,2,-1
 156 103 l 1,3,4
 194 124 194 124 226 172 c 128,-1,5
 258 220 258 220 262 290 c 1,6,-1
 436 290 l 1,7,-1
 454 379 l 1,8,-1
 253 379 l 1,9,10
 248 410 248 410 248 444 c 0,11,12
 248 525 248 525 287 569.5 c 128,-1,13
 326 614 326 614 393 614 c 0,14,15
 440 614 440 614 469 594 c 128,-1,16
 498 574 498 574 518 536 c 1,17,-1
 606 592 l 1,18,19
 576 649 576 649 527 679.5 c 128,-1,20
 478 710 478 710 401 710 c 0,21,22
 283 710 283 710 211 636 c 128,-1,23
 139 562 139 562 139 452 c 0,24,25
 139 415 139 415 145 379 c 1,26,-1
 78 379 l 1,27,-1
 60 290 l 1,28,-1
 153 290 l 1,29,30
 153 162 153 162 51 116 c 1,31,-1
 28 0 l 1,32,-1
 474 0 l 1,0,-1
EndSplineSet
EndChar

StartChar: yen
Encoding: 165 165 100
Width: 608
Flags: W
LayerCount: 2
Fore
SplineSet
306 0 m 1,0,-1
 334 142 l 1,1,-1
 503 142 l 1,2,-1
 518 218 l 1,3,-1
 350 218 l 1,4,-1
 366 301 l 1,5,-1
 535 301 l 1,6,-1
 550 377 l 1,7,-1
 428 377 l 1,8,-1
 668 698 l 1,9,-1
 542 698 l 1,10,-1
 331 402 l 1,11,-1
 327 402 l 1,12,-1
 234 698 l 1,13,-1
 119 698 l 1,14,-1
 228 377 l 1,15,-1
 108 377 l 1,16,-1
 93 301 l 1,17,-1
 258 301 l 1,18,-1
 242 218 l 1,19,-1
 76 218 l 1,20,-1
 61 142 l 1,21,-1
 226 142 l 1,22,-1
 198 0 l 1,23,-1
 306 0 l 1,0,-1
EndSplineSet
EndChar

StartChar: brokenbar
Encoding: 166 166 101
Width: 344
Flags: W
LayerCount: 2
Fore
SplineSet
247 404 m 1,0,-1
 318 760 l 1,1,-1
 227 760 l 1,2,-1
 155 404 l 1,3,-1
 247 404 l 1,0,-1
139 -138 m 1,4,-1
 210 218 l 1,5,-1
 119 218 l 1,6,-1
 47 -138 l 1,7,-1
 139 -138 l 1,4,-1
EndSplineSet
EndChar

StartChar: section
Encoding: 167 167 102
Width: 556
Flags: W
LayerCount: 2
Fore
SplineSet
201 -158 m 0,0,1
 293 -158 293 -158 355 -106 c 128,-1,2
 417 -54 417 -54 417 30 c 0,3,4
 417 100 417 100 364 142 c 1,5,-1
 365 152 l 1,6,7
 429 168 429 168 464 209 c 128,-1,8
 499 250 499 250 499 308 c 0,9,10
 499 401 499 401 378 440 c 2,11,-1
 315 460 l 2,12,13
 241 482 241 482 241 540 c 0,14,15
 241 581 241 581 273 604.5 c 128,-1,16
 305 628 305 628 348 628 c 0,17,18
 432 628 432 628 474 580 c 1,19,-1
 539 643 l 1,20,21
 476 710 476 710 358 710 c 0,22,23
 267 710 267 710 204.5 659 c 128,-1,24
 142 608 142 608 142 524 c 0,25,26
 142 455 142 455 196 412 c 1,27,-1
 194 403 l 1,28,29
 61 365 61 365 61 246 c 0,30,31
 61 154 61 154 181 115 c 2,32,-1
 244 95 l 2,33,34
 318 74 318 74 318 15 c 0,35,36
 318 -26 318 -26 286.5 -51 c 128,-1,37
 255 -76 255 -76 211 -76 c 0,38,39
 127 -76 127 -76 85 -28 c 1,40,-1
 20 -92 l 1,41,42
 53 -126 53 -126 100 -142 c 128,-1,43
 147 -158 147 -158 201 -158 c 0,0,1
328 163 m 1,44,45
 321 167 321 167 239 193 c 0,46,47
 195 207 195 207 176.5 227.5 c 128,-1,48
 158 248 158 248 158 283 c 0,49,50
 158 352 158 352 232 392 c 1,51,52
 242 386 242 386 257 381 c 2,53,-1
 320 362 l 2,54,55
 401 340 401 340 401 272 c 0,56,57
 401 208 401 208 328 163 c 1,44,45
EndSplineSet
EndChar

StartChar: dieresis
Encoding: 168 168 103
Width: 589
Flags: W
LayerCount: 2
Fore
SplineSet
212 610 m 0,0,1
 270 610 270 610 281 664 c 0,2,3
 285 688 285 688 285 694 c 0,4,5
 285 734 285 734 236 734 c 0,6,7
 203 734 203 734 186 719 c 0,8,9
 171 703 171 703 166 680.5 c 128,-1,10
 161 658 161 658 161 650 c 0,11,12
 161 632 161 632 173.5 621 c 128,-1,13
 186 610 186 610 212 610 c 0,0,1
401 610 m 0,14,15
 459 610 459 610 470 664 c 0,16,17
 474 688 474 688 474 694 c 0,18,19
 474 734 474 734 425 734 c 0,20,21
 392 734 392 734 375 719 c 0,22,23
 360 703 360 703 355 680.5 c 128,-1,24
 350 658 350 658 350 650 c 0,25,26
 350 632 350 632 362.5 621 c 128,-1,27
 375 610 375 610 401 610 c 0,14,15
EndSplineSet
EndChar

StartChar: copyright
Encoding: 169 169 104
Width: 778
Flags: W
LayerCount: 2
Fore
SplineSet
354 -12 m 0,0,1
 522 -12 522 -12 636 107 c 0,2,3
 689 163 689 163 718.5 239 c 128,-1,4
 748 315 748 315 748 405 c 0,5,6
 748 539 748 539 668.5 623.5 c 128,-1,7
 589 708 589 708 457 708 c 0,8,9
 289 708 289 708 176 590 c 0,10,11
 123 534 123 534 93 458 c 128,-1,12
 63 382 63 382 63 293 c 0,13,14
 63 157 63 157 142.5 72.5 c 128,-1,15
 222 -12 222 -12 354 -12 c 0,0,1
358 48 m 0,16,17
 258 48 258 48 194.5 114.5 c 128,-1,18
 131 181 131 181 131 293 c 0,19,20
 131 331 131 331 146 401 c 0,21,22
 169 506 169 506 254 577 c 128,-1,23
 339 648 339 648 453 648 c 0,24,25
 554 648 554 648 617 581.5 c 128,-1,26
 680 515 680 515 680 405 c 0,27,28
 680 368 680 368 665 297 c 0,29,30
 643 190 643 190 559 121 c 0,31,32
 472 48 472 48 358 48 c 0,16,17
381 145 m 0,33,34
 490 145 490 145 550 243 c 1,35,-1
 484 284 l 1,36,37
 442 223 442 223 392 223 c 0,38,39
 360 223 360 223 343 242 c 128,-1,40
 326 261 326 261 326 291 c 0,41,42
 326 303 326 303 329 318 c 2,43,-1
 342 384 l 2,44,45
 350 424 350 424 372.5 449 c 128,-1,46
 395 474 395 474 433 474 c 0,47,48
 492 474 492 474 504 416 c 1,49,-1
 579 448 l 1,50,51
 567 492 567 492 532.5 522 c 128,-1,52
 498 552 498 552 435 552 c 0,53,54
 390 552 390 552 352.5 532 c 128,-1,55
 315 512 315 512 288 479 c 0,56,57
 231 406 231 406 231 305 c 0,58,59
 231 231 231 231 271.5 188 c 128,-1,60
 312 145 312 145 381 145 c 0,33,34
EndSplineSet
EndChar

StartChar: ordfeminine
Encoding: 170 170 105
Width: 412
Flags: W
LayerCount: 2
Fore
SplineSet
174 342 m 0,0,1
 214 342 214 342 243 360 c 128,-1,2
 272 378 272 378 288 408 c 1,3,-1
 292 408 l 1,4,5
 291 404 291 404 291 396 c 0,6,7
 291 350 291 350 346 350 c 2,8,-1
 390 350 l 1,9,-1
 402 412 l 1,10,-1
 365 412 l 1,11,-1
 396 570 l 2,12,13
 400 587 400 587 400 605 c 0,14,15
 400 658 400 658 364.5 684 c 128,-1,16
 329 710 329 710 272 710 c 0,17,18
 177 710 177 710 123 639 c 1,19,-1
 168 601 l 1,20,21
 206 650 206 650 261 650 c 0,22,23
 320 650 320 650 320 598 c 2,24,-1
 320 587 l 2,25,26
 320 583 320 583 313 551 c 1,27,-1
 245 551 l 2,28,29
 83 551 83 551 78 428 c 0,30,31
 78 387 78 387 105 364.5 c 128,-1,32
 132 342 132 342 174 342 c 0,0,1
204 398 m 0,33,34
 182 398 182 398 169 407 c 128,-1,35
 156 416 156 416 156 433 c 2,36,-1
 159 456 l 2,37,38
 168 503 168 503 238 503 c 2,39,-1
 303 503 l 1,40,-1
 295 460 l 2,41,42
 289 431 289 431 263 414.5 c 128,-1,43
 237 398 237 398 204 398 c 0,33,34
EndSplineSet
EndChar

StartChar: guillemotleft
Encoding: 171 171 106
Width: 526
Flags: W
LayerCount: 2
Fore
SplineSet
187 67 m 1,0,-1
 230 132 l 1,1,-1
 130 274 l 1,2,-1
 289 419 l 1,3,-1
 263 492 l 1,4,-1
 52 331 l 1,5,-1
 33 234 l 1,6,-1
 187 67 l 1,0,-1
409 67 m 1,7,-1
 452 132 l 1,8,-1
 352 274 l 1,9,-1
 511 419 l 1,10,-1
 485 492 l 1,11,-1
 274 331 l 1,12,-1
 255 234 l 1,13,-1
 409 67 l 1,7,-1
EndSplineSet
EndChar

StartChar: logicalnot
Encoding: 172 172 107
Width: 600
Flags: W
LayerCount: 2
Fore
SplineSet
484 78 m 1,0,-1
 539 350 l 1,1,-1
 85 350 l 1,2,-1
 67 262 l 1,3,-1
 432 262 l 1,4,-1
 395 78 l 1,5,-1
 484 78 l 1,0,-1
EndSplineSet
EndChar

StartChar: u00AD
Encoding: 173 173 108
Width: 391
Flags: W
LayerCount: 2
Fore
SplineSet
329 252 m 1,0,-1
 350 357 l 1,1,-1
 80 357 l 1,2,-1
 59 252 l 1,3,-1
 329 252 l 1,0,-1
EndSplineSet
EndChar

StartChar: registered
Encoding: 174 174 109
Width: 462
Flags: W
LayerCount: 2
Fore
SplineSet
256 297 m 0,0,1
 351 297 351 297 414.5 364.5 c 128,-1,2
 478 432 478 432 478 535 c 0,3,4
 478 609 478 609 429 659.5 c 128,-1,5
 380 710 380 710 303 710 c 0,6,7
 209 710 209 710 144.5 643 c 128,-1,8
 80 576 80 576 80 472 c 0,9,10
 80 396 80 396 130 346.5 c 128,-1,11
 180 297 180 297 256 297 c 0,0,1
261 338 m 0,12,13
 202 338 202 338 164 373.5 c 128,-1,14
 126 409 126 409 126 471 c 0,15,16
 126 499 126 499 133 528 c 0,17,18
 147 593 147 593 191.5 631 c 128,-1,19
 236 669 236 669 298 669 c 0,20,21
 357 669 357 669 395 633 c 128,-1,22
 433 597 433 597 433 536 c 0,23,24
 433 523 433 523 426 479 c 0,25,26
 412 414 412 414 367.5 376 c 128,-1,27
 323 338 323 338 261 338 c 0,12,13
350 400 m 1,28,-1
 321 480 l 1,29,30
 346 487 346 487 360 506.5 c 128,-1,31
 374 526 374 526 374 550 c 0,32,33
 374 575 374 575 358.5 592 c 128,-1,34
 343 609 343 609 310 609 c 2,35,-1
 225 609 l 1,36,-1
 183 400 l 1,37,-1
 231 400 l 1,38,-1
 246 473 l 1,39,-1
 274 473 l 1,40,-1
 299 400 l 1,41,-1
 350 400 l 1,28,-1
289 509 m 2,42,-1
 253 509 l 1,43,-1
 265 570 l 1,44,-1
 302 570 l 2,45,46
 323 570 323 570 323 552 c 0,47,48
 323 509 323 509 289 509 c 2,42,-1
EndSplineSet
EndChar

StartChar: macron
Encoding: 175 175 110
Width: 591
Flags: W
LayerCount: 2
Fore
SplineSet
448 632 m 1,0,-1
 465 714 l 1,1,-1
 190 714 l 1,2,-1
 173 632 l 1,3,-1
 448 632 l 1,0,-1
EndSplineSet
EndChar

StartChar: degree
Encoding: 176 176 111
Width: 456
Flags: W
LayerCount: 2
Fore
SplineSet
263 352 m 0,0,1
 346 352 346 352 401 409 c 128,-1,2
 456 466 456 466 456 551 c 0,3,4
 456 619 456 619 412 664.5 c 128,-1,5
 368 710 368 710 302 710 c 0,6,7
 220 710 220 710 164.5 653.5 c 128,-1,8
 109 597 109 597 109 511 c 0,9,10
 109 441 109 441 153 396.5 c 128,-1,11
 197 352 197 352 263 352 c 0,0,1
272 428 m 0,12,13
 235 428 235 428 213 452.5 c 128,-1,14
 191 477 191 477 191 512 c 0,15,16
 191 562 191 562 219 598 c 128,-1,17
 247 634 247 634 293 634 c 0,18,19
 331 634 331 634 352.5 609.5 c 128,-1,20
 374 585 374 585 374 550 c 0,21,22
 374 498 374 498 346.5 463 c 128,-1,23
 319 428 319 428 272 428 c 0,12,13
EndSplineSet
EndChar

StartChar: plusminus
Encoding: 177 177 112
Width: 600
Flags: W
LayerCount: 2
Fore
SplineSet
329 166 m 1,0,-1
 366 352 l 1,1,-1
 546 352 l 1,2,-1
 563 439 l 1,3,-1
 384 439 l 1,4,-1
 421 625 l 1,5,-1
 325 625 l 1,6,-1
 288 439 l 1,7,-1
 107 439 l 1,8,-1
 90 352 l 1,9,-1
 271 352 l 1,10,-1
 234 166 l 1,11,-1
 329 166 l 1,0,-1
476 0 m 1,12,-1
 493 87 l 1,13,-1
 38 87 l 1,14,-1
 21 0 l 1,15,-1
 476 0 l 1,12,-1
EndSplineSet
EndChar

StartChar: u00B2
Encoding: 178 178 113
Width: 339
Flags: W
LayerCount: 2
Fore
SplineSet
312 329 m 1,0,-1
 324 391 l 1,1,-1
 144 391 l 1,2,-1
 228 447 l 1,3,4
 279 476 279 476 317 513 c 0,5,6
 357 554 357 554 357 603 c 256,7,8
 357 652 357 652 320.5 678 c 128,-1,9
 284 704 284 704 231 704 c 0,10,11
 130 704 130 704 88 611 c 1,12,-1
 153 585 l 1,13,14
 175 639 175 639 225 639 c 0,15,16
 246 639 246 639 260.5 628.5 c 128,-1,17
 275 618 275 618 275 598 c 2,18,-1
 273 582 l 2,19,20
 268 557 268 557 249 538.5 c 128,-1,21
 230 520 230 520 196 496 c 2,22,-1
 56 400 l 1,23,-1
 42 329 l 1,24,-1
 312 329 l 1,0,-1
EndSplineSet
EndChar

StartChar: u00B3
Encoding: 179 179 114
Width: 336
Flags: W
LayerCount: 2
Fore
SplineSet
174 323 m 0,0,1
 246 323 246 323 286.5 357.5 c 128,-1,2
 327 392 327 392 327 444 c 0,3,4
 327 506 327 506 265 518 c 1,5,-1
 265 520 l 1,6,7
 305 529 305 529 329 553 c 128,-1,8
 353 577 353 577 353 614 c 0,9,10
 353 653 353 653 322 678.5 c 128,-1,11
 291 704 291 704 234 704 c 0,12,13
 186 704 186 704 153.5 687.5 c 128,-1,14
 121 671 121 671 97 643 c 1,15,-1
 140 598 l 1,16,17
 177 644 177 644 226 644 c 0,18,19
 249 644 249 644 262 633 c 128,-1,20
 275 622 275 622 275 608 c 2,21,-1
 273 593 l 2,22,23
 267 550 267 550 202 550 c 2,24,-1
 160 550 l 1,25,-1
 148 489 l 1,26,-1
 190 489 l 2,27,28
 249 489 249 489 249 448 c 1,29,-1
 247 436 l 2,30,31
 237 384 237 384 175 384 c 0,32,33
 116 384 116 384 95 433 c 1,34,-1
 40 394 l 1,35,36
 52 365 52 365 84 344 c 128,-1,37
 116 323 116 323 174 323 c 0,0,1
EndSplineSet
EndChar

StartChar: acute
Encoding: 180 180 115
Width: 589
Flags: W
LayerCount: 2
Fore
SplineSet
318 582 m 1,0,-1
 452 749 l 1,1,-1
 365 795 l 1,2,-1
 255 616 l 1,3,-1
 318 582 l 1,0,-1
EndSplineSet
EndChar

StartChar: mu
Encoding: 181 181 116
Width: 576
Flags: W
LayerCount: 2
Fore
SplineSet
91 -200 m 1,0,-1
 117 -70 l 1,1,-1
 121 47 l 1,2,-1
 126 47 l 1,3,4
 141 -12 141 -12 203 -12 c 0,5,6
 256 -12 256 -12 289 19.5 c 128,-1,7
 322 51 322 51 349 111 c 1,8,-1
 353 111 l 1,9,10
 348 79 348 79 348 71 c 0,11,12
 348 39 348 39 367.5 19.5 c 128,-1,13
 387 0 387 0 423 0 c 2,14,-1
 503 0 l 1,15,-1
 520 87 l 1,16,-1
 453 87 l 1,17,-1
 540 520 l 1,18,-1
 436 520 l 1,19,-1
 378 233 l 2,20,21
 364 172 364 172 320 122 c 0,22,23
 282 78 282 78 232 78 c 0,24,25
 197 78 197 78 181.5 96 c 128,-1,26
 166 114 166 114 166 152 c 0,27,28
 166 170 166 170 172 202 c 2,29,-1
 235 520 l 1,30,-1
 131 520 l 1,31,-1
 -13 -200 l 1,32,-1
 91 -200 l 1,0,-1
EndSplineSet
EndChar

StartChar: paragraph
Encoding: 182 182 117
Width: 636
Flags: W
LayerCount: 2
Fore
SplineSet
420 -149 m 1,0,-1
 574 616 l 1,1,-1
 636 616 l 1,2,-1
 652 698 l 1,3,-1
 326 698 l 2,4,5
 223 698 223 698 152.5 631 c 128,-1,6
 82 564 82 564 82 466 c 0,7,8
 82 393 82 393 127.5 339 c 128,-1,9
 173 285 173 285 237 285 c 1,10,-1
 150 -149 l 1,11,-1
 234 -149 l 1,12,-1
 388 616 l 1,13,-1
 489 616 l 1,14,-1
 336 -149 l 1,15,-1
 420 -149 l 1,0,-1
EndSplineSet
EndChar

StartChar: periodcentered
Encoding: 183 183 118
Width: 332
Flags: W
LayerCount: 2
Fore
SplineSet
158 229 m 0,0,1
 226 229 226 229 237 292 c 0,2,3
 242 313 242 313 242 331 c 0,4,5
 242 352 242 352 227 366 c 128,-1,6
 212 380 212 380 180 380 c 0,7,8
 96 380 96 380 96 278 c 0,9,10
 96 257 96 257 111 243 c 128,-1,11
 126 229 126 229 158 229 c 0,0,1
EndSplineSet
EndChar

StartChar: cedilla
Encoding: 184 184 119
Width: 590
Flags: W
LayerCount: 2
Fore
SplineSet
274 -209 m 0,0,1
 328 -209 328 -209 363 -184 c 128,-1,2
 398 -159 398 -159 398 -113 c 0,3,4
 398 -84 398 -84 380.5 -70.5 c 128,-1,5
 363 -57 363 -57 338 -57 c 0,6,7
 316 -57 316 -57 301 -62 c 1,8,-1
 299 -59 l 1,9,-1
 329 24 l 1,10,-1
 272 24 l 1,11,-1
 237 -75 l 1,12,-1
 261 -77 l 2,13,14
 321 -82 321 -82 321 -115 c 0,15,16
 321 -145 321 -145 273 -149 c 0,17,18
 251 -149 251 -149 236 -140.5 c 128,-1,19
 221 -132 221 -132 214 -123 c 1,20,-1
 169 -168 l 1,21,22
 181 -186 181 -186 208 -197.5 c 128,-1,23
 235 -209 235 -209 274 -209 c 0,0,1
EndSplineSet
EndChar

StartChar: u00B9
Encoding: 185 185 120
Width: 311
Flags: W
LayerCount: 2
Fore
SplineSet
235 329 m 1,0,-1
 161 329 l 1,1,-1
 220 627 l 1,2,-1
 131 581 l 1,3,-1
 146 656 l 1,4,-1
 230 698 l 1,5,-1
 309 698 l 1,6,-1
 235 329 l 1,0,-1
EndSplineSet
EndChar

StartChar: ordmasculine
Encoding: 186 186 121
Width: 405
Flags: W
LayerCount: 2
Fore
SplineSet
227 342 m 0,0,1
 318 342 318 342 372 411 c 0,2,3
 421 478 421 478 421 566 c 0,4,5
 421 632 421 632 383.5 671 c 128,-1,6
 346 710 346 710 283 710 c 0,7,8
 190 710 190 710 139 642 c 0,9,10
 90 572 90 572 90 486 c 0,11,12
 90 420 90 420 127 381 c 128,-1,13
 164 342 164 342 227 342 c 0,0,1
236 403 m 0,14,15
 172 403 172 403 168 470 c 0,16,17
 168 481 168 481 171 496 c 2,18,-1
 183 555 l 2,19,20
 191 598 191 598 215 623.5 c 128,-1,21
 239 649 239 649 275 649 c 0,22,23
 340 649 340 649 343 582 c 0,24,25
 343 572 343 572 340 556 c 2,26,-1
 328 497 l 2,27,28
 320 454 320 454 296 428.5 c 128,-1,29
 272 403 272 403 236 403 c 0,14,15
EndSplineSet
EndChar

StartChar: guillemotright
Encoding: 187 187 122
Width: 526
Flags: W
LayerCount: 2
Fore
SplineSet
266 67 m 1,0,-1
 477 228 l 1,1,-1
 497 325 l 1,2,-1
 342 492 l 1,3,-1
 299 426 l 1,4,-1
 399 284 l 1,5,-1
 241 140 l 1,6,-1
 266 67 l 1,0,-1
44 67 m 1,7,-1
 255 228 l 1,8,-1
 275 325 l 1,9,-1
 120 492 l 1,10,-1
 77 426 l 1,11,-1
 177 284 l 1,12,-1
 19 140 l 1,13,-1
 44 67 l 1,7,-1
EndSplineSet
EndChar

StartChar: onequarter
Encoding: 188 188 123
Width: 820
Flags: W
LayerCount: 2
Fore
SplineSet
142 0 m 1,0,-1
 771 698 l 1,1,-1
 681 698 l 1,2,-1
 51 0 l 1,3,-1
 142 0 l 1,0,-1
662 0 m 1,4,-1
 676 72 l 1,5,-1
 724 72 l 1,6,-1
 736 129 l 1,7,-1
 687 129 l 1,8,-1
 735 369 l 1,9,-1
 645 369 l 1,10,-1
 439 137 l 1,11,-1
 426 72 l 1,12,-1
 603 72 l 1,13,-1
 589 0 l 1,14,-1
 662 0 l 1,4,-1
614 129 m 1,15,-1
 504 129 l 1,16,-1
 640 282 l 1,17,-1
 645 282 l 1,18,-1
 614 129 l 1,15,-1
235 329 m 1,19,-1
 161 329 l 1,20,-1
 220 627 l 1,21,-1
 131 581 l 1,22,-1
 146 656 l 1,23,-1
 230 698 l 1,24,-1
 309 698 l 1,25,-1
 235 329 l 1,19,-1
EndSplineSet
EndChar

StartChar: onehalf
Encoding: 189 189 124
Width: 817
Flags: W
LayerCount: 2
Fore
SplineSet
142 0 m 1,0,-1
 771 698 l 1,1,-1
 681 698 l 1,2,-1
 51 0 l 1,3,-1
 142 0 l 1,0,-1
728 0 m 1,4,-1
 740 62 l 1,5,-1
 560 62 l 1,6,-1
 644 118 l 1,7,8
 695 147 695 147 733 184 c 0,9,10
 773 225 773 225 773 274 c 256,11,12
 773 323 773 323 736.5 349 c 128,-1,13
 700 375 700 375 647 375 c 0,14,15
 546 375 546 375 504 282 c 1,16,-1
 569 256 l 1,17,18
 591 310 591 310 641 310 c 0,19,20
 662 310 662 310 676.5 299.5 c 128,-1,21
 691 289 691 289 691 269 c 2,22,-1
 689 253 l 2,23,24
 684 228 684 228 665 209.5 c 128,-1,25
 646 191 646 191 612 167 c 2,26,-1
 472 71 l 1,27,-1
 458 0 l 1,28,-1
 728 0 l 1,4,-1
235 329 m 1,29,-1
 161 329 l 1,30,-1
 220 627 l 1,31,-1
 131 581 l 1,32,-1
 146 656 l 1,33,-1
 230 698 l 1,34,-1
 309 698 l 1,35,-1
 235 329 l 1,29,-1
EndSplineSet
EndChar

StartChar: threequarters
Encoding: 190 190 125
Width: 849
Flags: W
LayerCount: 2
Fore
SplineSet
174 323 m 0,0,1
 246 323 246 323 286.5 357.5 c 128,-1,2
 327 392 327 392 327 444 c 0,3,4
 327 506 327 506 265 518 c 1,5,-1
 265 520 l 1,6,7
 305 529 305 529 329 553 c 128,-1,8
 353 577 353 577 353 614 c 0,9,10
 353 653 353 653 322 678.5 c 128,-1,11
 291 704 291 704 234 704 c 0,12,13
 186 704 186 704 153.5 687.5 c 128,-1,14
 121 671 121 671 97 643 c 1,15,-1
 140 598 l 1,16,17
 177 644 177 644 226 644 c 0,18,19
 249 644 249 644 262 633 c 128,-1,20
 275 622 275 622 275 608 c 2,21,-1
 273 593 l 2,22,23
 267 550 267 550 202 550 c 2,24,-1
 160 550 l 1,25,-1
 148 489 l 1,26,-1
 190 489 l 2,27,28
 249 489 249 489 249 448 c 1,29,-1
 247 436 l 2,30,31
 237 384 237 384 175 384 c 0,32,33
 116 384 116 384 95 433 c 1,34,-1
 40 394 l 1,35,36
 52 365 52 365 84 344 c 128,-1,37
 116 323 116 323 174 323 c 0,0,1
171 0 m 1,38,-1
 800 698 l 1,39,-1
 710 698 l 1,40,-1
 80 0 l 1,41,-1
 171 0 l 1,38,-1
691 0 m 1,42,-1
 705 72 l 1,43,-1
 753 72 l 1,44,-1
 765 129 l 1,45,-1
 716 129 l 1,46,-1
 764 369 l 1,47,-1
 674 369 l 1,48,-1
 468 137 l 1,49,-1
 455 72 l 1,50,-1
 632 72 l 1,51,-1
 618 0 l 1,52,-1
 691 0 l 1,42,-1
643 129 m 1,53,-1
 533 129 l 1,54,-1
 669 282 l 1,55,-1
 674 282 l 1,56,-1
 643 129 l 1,53,-1
EndSplineSet
EndChar

StartChar: questiondown
Encoding: 191 191 126
Width: 480
Flags: W
LayerCount: 2
Fore
SplineSet
173 -190 m 0,0,1
 336 -190 336 -190 405 -28 c 1,2,-1
 318 9 l 1,3,4
 278 -97 278 -97 186 -97 c 0,5,6
 144 -97 144 -97 119.5 -75.5 c 128,-1,7
 95 -54 95 -54 95 -16 c 0,8,9
 95 124 95 124 288 141 c 1,10,-1
 320 301 l 1,11,-1
 219 301 l 1,12,-1
 199 207 l 1,13,14
 102 187 102 187 42.5 122 c 128,-1,15
 -17 57 -17 57 -17 -26 c 0,16,17
 -17 -103 -17 -103 34 -146.5 c 128,-1,18
 85 -190 85 -190 173 -190 c 0,0,1
286 381 m 0,19,20
 354 381 354 381 365 444 c 0,21,22
 370 465 370 465 370 483 c 0,23,24
 370 504 370 504 355 518 c 128,-1,25
 340 532 340 532 308 532 c 0,26,27
 224 532 224 532 224 430 c 0,28,29
 224 409 224 409 239 395 c 128,-1,30
 254 381 254 381 286 381 c 0,19,20
EndSplineSet
EndChar

StartChar: Agrave
Encoding: 192 192 127
Width: 638
Flags: W
LayerCount: 2
Fore
SplineSet
565 0 m 1,0,-1
 477 698 l 1,1,-1
 337 698 l 1,2,-1
 -30 0 l 1,3,-1
 86 0 l 1,4,-1
 183 189 l 1,5,-1
 433 189 l 1,6,-1
 455 0 l 1,7,-1
 565 0 l 1,0,-1
424 283 m 1,8,-1
 228 283 l 1,9,-1
 384 598 l 1,10,-1
 391 598 l 1,11,-1
 424 283 l 1,8,-1
401 749 m 1,12,-1
 465 778 l 1,13,-1
 400 961 l 1,14,-1
 308 918 l 1,15,-1
 401 749 l 1,12,-1
EndSplineSet
EndChar

StartChar: Aacute
Encoding: 193 193 128
Width: 638
Flags: W
LayerCount: 2
Fore
SplineSet
565 0 m 1,0,-1
 477 698 l 1,1,-1
 337 698 l 1,2,-1
 -30 0 l 1,3,-1
 86 0 l 1,4,-1
 183 189 l 1,5,-1
 433 189 l 1,6,-1
 455 0 l 1,7,-1
 565 0 l 1,0,-1
424 283 m 1,8,-1
 228 283 l 1,9,-1
 384 598 l 1,10,-1
 391 598 l 1,11,-1
 424 283 l 1,8,-1
429 749 m 1,12,-1
 562 916 l 1,13,-1
 475 962 l 1,14,-1
 365 783 l 1,15,-1
 429 749 l 1,12,-1
EndSplineSet
EndChar

StartChar: Acircumflex
Encoding: 194 194 129
Width: 638
Flags: W
LayerCount: 2
Fore
SplineSet
565 0 m 1,0,-1
 477 698 l 1,1,-1
 337 698 l 1,2,-1
 -30 0 l 1,3,-1
 86 0 l 1,4,-1
 183 189 l 1,5,-1
 433 189 l 1,6,-1
 455 0 l 1,7,-1
 565 0 l 1,0,-1
424 283 m 1,8,-1
 228 283 l 1,9,-1
 384 598 l 1,10,-1
 391 598 l 1,11,-1
 424 283 l 1,8,-1
299 751 m 1,12,-1
 436 867 l 1,13,-1
 531 752 l 1,14,-1
 588 794 l 1,15,-1
 498 944 l 1,16,-1
 392 944 l 1,17,-1
 246 794 l 1,18,-1
 299 751 l 1,12,-1
EndSplineSet
EndChar

StartChar: Atilde
Encoding: 195 195 130
Width: 638
Flags: W
LayerCount: 2
Fore
SplineSet
565 0 m 1,0,-1
 477 698 l 1,1,-1
 337 698 l 1,2,-1
 -30 0 l 1,3,-1
 86 0 l 1,4,-1
 183 189 l 1,5,-1
 433 189 l 1,6,-1
 455 0 l 1,7,-1
 565 0 l 1,0,-1
424 283 m 1,8,-1
 228 283 l 1,9,-1
 384 598 l 1,10,-1
 391 598 l 1,11,-1
 424 283 l 1,8,-1
495 774 m 0,12,13
 557 774 557 774 601 832 c 1,14,-1
 567 883 l 1,15,16
 550 870 550 870 537.5 863.5 c 128,-1,17
 525 857 525 857 508 857 c 0,18,19
 480 857 480 857 440 880 c 0,20,21
 422 890 422 890 404.5 897 c 128,-1,22
 387 904 387 904 364 904 c 0,23,24
 301 904 301 904 258 847 c 1,25,-1
 292 795 l 1,26,27
 309 808 309 808 322 814.5 c 128,-1,28
 335 821 335 821 351 821 c 0,29,30
 380 821 380 821 419 798 c 2,31,-1
 429 793 l 2,32,33
 443 786 443 786 458.5 780 c 128,-1,34
 474 774 474 774 495 774 c 0,12,13
EndSplineSet
EndChar

StartChar: Adieresis
Encoding: 196 196 131
Width: 638
Flags: W
LayerCount: 2
Fore
SplineSet
565 0 m 1,0,-1
 477 698 l 1,1,-1
 337 698 l 1,2,-1
 -30 0 l 1,3,-1
 86 0 l 1,4,-1
 183 189 l 1,5,-1
 433 189 l 1,6,-1
 455 0 l 1,7,-1
 565 0 l 1,0,-1
424 283 m 1,8,-1
 228 283 l 1,9,-1
 384 598 l 1,10,-1
 391 598 l 1,11,-1
 424 283 l 1,8,-1
323 776 m 0,12,13
 355 776 355 776 371 791 c 128,-1,14
 387 806 387 806 391.5 829 c 128,-1,15
 396 852 396 852 396 862 c 0,16,17
 396 902 396 902 347 902 c 0,18,19
 314 902 314 902 297 887 c 0,20,21
 282 871 282 871 277 848.5 c 128,-1,22
 272 826 272 826 272 816 c 0,23,24
 272 798 272 798 284.5 787 c 128,-1,25
 297 776 297 776 323 776 c 0,12,13
512 776 m 0,26,27
 544 776 544 776 560 791 c 128,-1,28
 576 806 576 806 580.5 829 c 128,-1,29
 585 852 585 852 585 862 c 0,30,31
 585 902 585 902 536 902 c 0,32,33
 503 902 503 902 486 887 c 0,34,35
 471 871 471 871 466 848.5 c 128,-1,36
 461 826 461 826 461 816 c 0,37,38
 461 798 461 798 473.5 787 c 128,-1,39
 486 776 486 776 512 776 c 0,26,27
EndSplineSet
EndChar

StartChar: Aring
Encoding: 197 197 132
Width: 638
Flags: W
LayerCount: 2
Fore
SplineSet
565 0 m 1,0,-1
 477 698 l 1,1,-1
 337 698 l 1,2,-1
 -30 0 l 1,3,-1
 86 0 l 1,4,-1
 183 189 l 1,5,-1
 433 189 l 1,6,-1
 455 0 l 1,7,-1
 565 0 l 1,0,-1
424 283 m 1,8,-1
 228 283 l 1,9,-1
 384 598 l 1,10,-1
 391 598 l 1,11,-1
 424 283 l 1,8,-1
414 734 m 0,12,13
 476 734 476 734 517.5 773.5 c 128,-1,14
 559 813 559 813 559 879 c 0,15,16
 559 927 559 927 528 957.5 c 128,-1,17
 497 988 497 988 447 988 c 0,18,19
 386 988 386 988 344 948.5 c 128,-1,20
 302 909 302 909 302 843 c 0,21,22
 302 796 302 796 333 765 c 128,-1,23
 364 734 364 734 414 734 c 0,12,13
420 793 m 0,24,25
 374 793 374 793 374 835 c 0,26,27
 374 852 374 852 379.5 876.5 c 128,-1,28
 385 901 385 901 400 915 c 128,-1,29
 415 929 415 929 441 929 c 0,30,31
 487 929 487 929 487 889 c 0,32,33
 487 874 487 874 481 846 c 0,34,35
 470 793 470 793 420 793 c 0,24,25
EndSplineSet
EndChar

StartChar: AE
Encoding: 198 198 133
Width: 900
Flags: W
LayerCount: 2
Fore
SplineSet
803 0 m 1,0,-1
 822 96 l 1,1,-1
 490 96 l 1,2,-1
 532 304 l 1,3,-1
 816 304 l 1,4,-1
 835 400 l 1,5,-1
 551 400 l 1,6,-1
 591 602 l 1,7,-1
 909 602 l 1,8,-1
 928 698 l 1,9,-1
 418 698 l 1,10,-1
 -48 0 l 1,11,-1
 71 0 l 1,12,-1
 194 189 l 1,13,-1
 400 189 l 1,14,-1
 362 0 l 1,15,-1
 803 0 l 1,0,-1
419 283 m 1,16,-1
 256 283 l 1,17,-1
 465 605 l 1,18,-1
 483 605 l 1,19,-1
 419 283 l 1,16,-1
EndSplineSet
EndChar

StartChar: Ccedilla
Encoding: 199 199 134
Width: 616
Flags: W
LayerCount: 2
Fore
SplineSet
269 -209 m 0,0,1
 322 -209 322 -209 357 -184 c 128,-1,2
 392 -159 392 -159 392 -113 c 0,3,4
 392 -84 392 -84 375 -70.5 c 128,-1,5
 358 -57 358 -57 332 -57 c 0,6,7
 313 -57 313 -57 296 -62 c 1,8,-1
 294 -59 l 1,9,-1
 310 -12 l 1,10,11
 483 -9 483 -9 571 161 c 1,12,-1
 481 204 l 1,13,14
 452 149 452 149 412 117 c 128,-1,15
 372 85 372 85 306 85 c 0,16,17
 237 85 237 85 200.5 128 c 128,-1,18
 164 171 164 171 164 246 c 0,19,20
 164 272 164 272 170 305 c 2,21,-1
 193 418 l 2,22,23
 212 507 212 507 264 560 c 128,-1,24
 316 613 316 613 392 613 c 0,25,26
 454 613 454 613 486 584 c 128,-1,27
 518 555 518 555 533 504 c 1,28,-1
 630 546 l 1,29,30
 578 710 578 710 402 710 c 0,31,32
 326 710 326 710 262.5 676 c 128,-1,33
 199 642 199 642 153 581 c 0,34,35
 56 451 56 451 56 269 c 0,36,37
 56 145 56 145 110.5 75 c 128,-1,38
 165 5 165 5 254 -9 c 1,39,-1
 231 -75 l 1,40,-1
 255 -77 l 2,41,42
 315 -82 315 -82 315 -115 c 0,43,44
 315 -145 315 -145 267 -149 c 0,45,46
 245 -149 245 -149 230 -140.5 c 128,-1,47
 215 -132 215 -132 208 -123 c 1,48,-1
 163 -168 l 1,49,50
 175 -186 175 -186 202 -197.5 c 128,-1,51
 229 -209 229 -209 269 -209 c 0,0,1
EndSplineSet
EndChar

StartChar: Egrave
Encoding: 200 200 135
Width: 571
Flags: W
LayerCount: 2
Fore
SplineSet
473 0 m 1,0,-1
 492 96 l 1,1,-1
 160 96 l 1,2,-1
 202 304 l 1,3,-1
 486 304 l 1,4,-1
 505 400 l 1,5,-1
 221 400 l 1,6,-1
 261 602 l 1,7,-1
 579 602 l 1,8,-1
 599 698 l 1,9,-1
 172 698 l 1,10,-1
 32 0 l 1,11,-1
 473 0 l 1,0,-1
379 749 m 1,12,-1
 443 778 l 1,13,-1
 378 961 l 1,14,-1
 286 918 l 1,15,-1
 379 749 l 1,12,-1
EndSplineSet
EndChar

StartChar: Eacute
Encoding: 201 201 136
Width: 571
Flags: W
LayerCount: 2
Fore
SplineSet
473 0 m 1,0,-1
 492 96 l 1,1,-1
 160 96 l 1,2,-1
 202 304 l 1,3,-1
 486 304 l 1,4,-1
 505 400 l 1,5,-1
 221 400 l 1,6,-1
 261 602 l 1,7,-1
 579 602 l 1,8,-1
 599 698 l 1,9,-1
 172 698 l 1,10,-1
 32 0 l 1,11,-1
 473 0 l 1,0,-1
407 749 m 1,12,-1
 540 916 l 1,13,-1
 453 962 l 1,14,-1
 343 783 l 1,15,-1
 407 749 l 1,12,-1
EndSplineSet
EndChar

StartChar: Ecircumflex
Encoding: 202 202 137
Width: 571
Flags: W
LayerCount: 2
Fore
SplineSet
473 0 m 1,0,-1
 492 96 l 1,1,-1
 160 96 l 1,2,-1
 202 304 l 1,3,-1
 486 304 l 1,4,-1
 505 400 l 1,5,-1
 221 400 l 1,6,-1
 261 602 l 1,7,-1
 579 602 l 1,8,-1
 599 698 l 1,9,-1
 172 698 l 1,10,-1
 32 0 l 1,11,-1
 473 0 l 1,0,-1
277 751 m 1,12,-1
 414 867 l 1,13,-1
 509 752 l 1,14,-1
 566 794 l 1,15,-1
 476 944 l 1,16,-1
 370 944 l 1,17,-1
 224 794 l 1,18,-1
 277 751 l 1,12,-1
EndSplineSet
EndChar

StartChar: Edieresis
Encoding: 203 203 138
Width: 571
Flags: W
LayerCount: 2
Fore
SplineSet
473 0 m 1,0,-1
 492 96 l 1,1,-1
 160 96 l 1,2,-1
 202 304 l 1,3,-1
 486 304 l 1,4,-1
 505 400 l 1,5,-1
 221 400 l 1,6,-1
 261 602 l 1,7,-1
 579 602 l 1,8,-1
 599 698 l 1,9,-1
 172 698 l 1,10,-1
 32 0 l 1,11,-1
 473 0 l 1,0,-1
301 776 m 0,12,13
 333 776 333 776 349 791 c 128,-1,14
 365 806 365 806 369.5 829 c 128,-1,15
 374 852 374 852 374 862 c 0,16,17
 374 902 374 902 325 902 c 0,18,19
 292 902 292 902 275 887 c 0,20,21
 260 871 260 871 255 848.5 c 128,-1,22
 250 826 250 826 250 816 c 0,23,24
 250 798 250 798 262.5 787 c 128,-1,25
 275 776 275 776 301 776 c 0,12,13
490 776 m 0,26,27
 522 776 522 776 538 791 c 128,-1,28
 554 806 554 806 558.5 829 c 128,-1,29
 563 852 563 852 563 862 c 0,30,31
 563 902 563 902 514 902 c 0,32,33
 481 902 481 902 464 887 c 0,34,35
 449 871 449 871 444 848.5 c 128,-1,36
 439 826 439 826 439 816 c 0,37,38
 439 798 439 798 451.5 787 c 128,-1,39
 464 776 464 776 490 776 c 0,26,27
EndSplineSet
EndChar

StartChar: Igrave
Encoding: 204 204 139
Width: 276
Flags: W
LayerCount: 2
Fore
SplineSet
223 749 m 1,0,-1
 287 778 l 1,1,-1
 222 961 l 1,2,-1
 130 918 l 1,3,-1
 223 749 l 1,0,-1
140 0 m 1,4,-1
 280 698 l 1,5,-1
 172 698 l 1,6,-1
 32 0 l 1,7,-1
 140 0 l 1,4,-1
EndSplineSet
EndChar

StartChar: Iacute
Encoding: 205 205 140
Width: 276
Flags: W
LayerCount: 2
Fore
SplineSet
251 749 m 1,0,-1
 384 916 l 1,1,-1
 297 962 l 1,2,-1
 187 783 l 1,3,-1
 251 749 l 1,0,-1
140 0 m 1,4,-1
 280 698 l 1,5,-1
 172 698 l 1,6,-1
 32 0 l 1,7,-1
 140 0 l 1,4,-1
EndSplineSet
EndChar

StartChar: Icircumflex
Encoding: 206 206 141
Width: 276
Flags: W
LayerCount: 2
Fore
SplineSet
121 751 m 1,0,-1
 258 867 l 1,1,-1
 353 752 l 1,2,-1
 410 794 l 1,3,-1
 320 944 l 1,4,-1
 214 944 l 1,5,-1
 68 794 l 1,6,-1
 121 751 l 1,0,-1
140 0 m 1,7,-1
 280 698 l 1,8,-1
 172 698 l 1,9,-1
 32 0 l 1,10,-1
 140 0 l 1,7,-1
EndSplineSet
EndChar

StartChar: Idieresis
Encoding: 207 207 142
Width: 276
Flags: W
LayerCount: 2
Fore
SplineSet
145 776 m 0,0,1
 177 776 177 776 193 791 c 128,-1,2
 209 806 209 806 213.5 829 c 128,-1,3
 218 852 218 852 218 862 c 0,4,5
 218 902 218 902 169 902 c 0,6,7
 136 902 136 902 119 887 c 0,8,9
 104 871 104 871 99 848.5 c 128,-1,10
 94 826 94 826 94 816 c 0,11,12
 94 798 94 798 106.5 787 c 128,-1,13
 119 776 119 776 145 776 c 0,0,1
334 776 m 0,14,15
 366 776 366 776 382 791 c 128,-1,16
 398 806 398 806 402.5 829 c 128,-1,17
 407 852 407 852 407 862 c 0,18,19
 407 902 407 902 358 902 c 0,20,21
 325 902 325 902 308 887 c 0,22,23
 293 871 293 871 288 848.5 c 128,-1,24
 283 826 283 826 283 816 c 0,25,26
 283 798 283 798 295.5 787 c 128,-1,27
 308 776 308 776 334 776 c 0,14,15
140 0 m 1,28,-1
 280 698 l 1,29,-1
 172 698 l 1,30,-1
 32 0 l 1,31,-1
 140 0 l 1,28,-1
EndSplineSet
EndChar

StartChar: Eth
Encoding: 208 208 143
Width: 669
Flags: W
LayerCount: 2
Fore
SplineSet
284 0 m 2,0,1
 369 0 369 0 435.5 34.5 c 128,-1,2
 502 69 502 69 548 130 c 0,3,4
 640 259 640 259 640 431 c 0,5,6
 640 563 640 563 573 630.5 c 128,-1,7
 506 698 506 698 389 698 c 2,8,-1
 176 698 l 1,9,-1
 117 403 l 1,10,-1
 42 403 l 1,11,-1
 25 319 l 1,12,-1
 100 319 l 1,13,-1
 36 0 l 1,14,-1
 284 0 l 2,0,1
291 97 m 2,15,-1
 164 97 l 1,16,-1
 209 319 l 1,17,-1
 333 319 l 1,18,-1
 350 403 l 1,19,-1
 226 403 l 1,20,-1
 265 601 l 1,21,-1
 390 601 l 2,22,23
 454 601 454 601 491.5 565 c 128,-1,24
 529 529 529 529 529 454 c 0,25,26
 529 430 529 430 523 392 c 2,27,-1
 503 292 l 2,28,29
 482 195 482 195 427 146 c 128,-1,30
 372 97 372 97 291 97 c 2,15,-1
EndSplineSet
EndChar

StartChar: Ntilde
Encoding: 209 209 144
Width: 691
Flags: W
LayerCount: 2
Fore
SplineSet
554 0 m 1,0,-1
 694 698 l 1,1,-1
 591 698 l 1,2,-1
 483 158 l 1,3,-1
 477 158 l 1,4,-1
 428 313 l 1,5,-1
 292 698 l 1,6,-1
 172 698 l 1,7,-1
 32 0 l 1,8,-1
 135 0 l 1,9,-1
 243 540 l 1,10,-1
 249 540 l 1,11,-1
 298 385 l 1,12,-1
 434 0 l 1,13,-1
 554 0 l 1,0,-1
525 774 m 0,14,15
 587 774 587 774 631 832 c 1,16,-1
 597 883 l 1,17,18
 580 870 580 870 567.5 863.5 c 128,-1,19
 555 857 555 857 538 857 c 0,20,21
 510 857 510 857 470 880 c 0,22,23
 452 890 452 890 434.5 897 c 128,-1,24
 417 904 417 904 394 904 c 0,25,26
 331 904 331 904 288 847 c 1,27,-1
 322 795 l 1,28,29
 339 808 339 808 352 814.5 c 128,-1,30
 365 821 365 821 381 821 c 0,31,32
 410 821 410 821 449 798 c 2,33,-1
 459 793 l 2,34,35
 473 786 473 786 488.5 780 c 128,-1,36
 504 774 504 774 525 774 c 0,14,15
EndSplineSet
EndChar

StartChar: Ograve
Encoding: 210 210 145
Width: 687
Flags: W
LayerCount: 2
Fore
SplineSet
303 -12 m 0,0,1
 384 -12 384 -12 450 24.5 c 128,-1,2
 516 61 516 61 563 123 c 0,3,4
 660 258 660 258 660 433 c 0,5,6
 660 568 660 568 588 642 c 0,7,8
 521 710 521 710 412 710 c 0,9,10
 331 710 331 710 265.5 674 c 128,-1,11
 200 638 200 638 153 576 c 0,12,13
 56 441 56 441 56 265 c 0,14,15
 56 131 56 131 129 57 c 0,16,17
 201 -12 201 -12 303 -12 c 0,0,1
313 85 m 0,18,19
 241 85 241 85 203 126 c 128,-1,20
 165 167 165 167 165 240 c 0,21,22
 165 266 165 266 171 302 c 2,23,-1
 192 406 l 1,24,25
 238 613 238 613 404 613 c 0,26,27
 547 613 547 613 551 458 c 0,28,29
 551 433 551 433 545 396 c 2,30,-1
 523 290 l 2,31,32
 503 191 503 191 450 138 c 128,-1,33
 397 85 397 85 313 85 c 0,18,19
418 749 m 1,34,-1
 482 778 l 1,35,-1
 417 961 l 1,36,-1
 325 918 l 1,37,-1
 418 749 l 1,34,-1
EndSplineSet
EndChar

StartChar: Oacute
Encoding: 211 211 146
Width: 687
Flags: W
LayerCount: 2
Fore
SplineSet
303 -12 m 0,0,1
 384 -12 384 -12 450 24.5 c 128,-1,2
 516 61 516 61 563 123 c 0,3,4
 660 258 660 258 660 433 c 0,5,6
 660 568 660 568 588 642 c 0,7,8
 521 710 521 710 412 710 c 0,9,10
 331 710 331 710 265.5 674 c 128,-1,11
 200 638 200 638 153 576 c 0,12,13
 56 441 56 441 56 265 c 0,14,15
 56 131 56 131 129 57 c 0,16,17
 201 -12 201 -12 303 -12 c 0,0,1
313 85 m 0,18,19
 241 85 241 85 203 126 c 128,-1,20
 165 167 165 167 165 240 c 0,21,22
 165 266 165 266 171 302 c 2,23,-1
 192 406 l 1,24,25
 238 613 238 613 404 613 c 0,26,27
 547 613 547 613 551 458 c 0,28,29
 551 433 551 433 545 396 c 2,30,-1
 523 290 l 2,31,32
 503 191 503 191 450 138 c 128,-1,33
 397 85 397 85 313 85 c 0,18,19
446 749 m 1,34,-1
 579 916 l 1,35,-1
 492 962 l 1,36,-1
 382 783 l 1,37,-1
 446 749 l 1,34,-1
EndSplineSet
EndChar

StartChar: Ocircumflex
Encoding: 212 212 147
Width: 687
Flags: W
LayerCount: 2
Fore
SplineSet
303 -12 m 0,0,1
 384 -12 384 -12 450 24.5 c 128,-1,2
 516 61 516 61 563 123 c 0,3,4
 660 258 660 258 660 433 c 0,5,6
 660 568 660 568 588 642 c 0,7,8
 521 710 521 710 412 710 c 0,9,10
 331 710 331 710 265.5 674 c 128,-1,11
 200 638 200 638 153 576 c 0,12,13
 56 441 56 441 56 265 c 0,14,15
 56 131 56 131 129 57 c 0,16,17
 201 -12 201 -12 303 -12 c 0,0,1
313 85 m 0,18,19
 241 85 241 85 203 126 c 128,-1,20
 165 167 165 167 165 240 c 0,21,22
 165 266 165 266 171 302 c 2,23,-1
 192 406 l 1,24,25
 238 613 238 613 404 613 c 0,26,27
 547 613 547 613 551 458 c 0,28,29
 551 433 551 433 545 396 c 2,30,-1
 523 290 l 2,31,32
 503 191 503 191 450 138 c 128,-1,33
 397 85 397 85 313 85 c 0,18,19
316 751 m 1,34,-1
 453 867 l 1,35,-1
 548 752 l 1,36,-1
 605 794 l 1,37,-1
 515 944 l 1,38,-1
 409 944 l 1,39,-1
 263 794 l 1,40,-1
 316 751 l 1,34,-1
EndSplineSet
EndChar

StartChar: Otilde
Encoding: 213 213 148
Width: 687
Flags: W
LayerCount: 2
Fore
SplineSet
303 -12 m 0,0,1
 384 -12 384 -12 450 24.5 c 128,-1,2
 516 61 516 61 563 123 c 0,3,4
 660 258 660 258 660 433 c 0,5,6
 660 568 660 568 588 642 c 0,7,8
 521 710 521 710 412 710 c 0,9,10
 331 710 331 710 265.5 674 c 128,-1,11
 200 638 200 638 153 576 c 0,12,13
 56 441 56 441 56 265 c 0,14,15
 56 131 56 131 129 57 c 0,16,17
 201 -12 201 -12 303 -12 c 0,0,1
313 85 m 0,18,19
 241 85 241 85 203 126 c 128,-1,20
 165 167 165 167 165 240 c 0,21,22
 165 266 165 266 171 302 c 2,23,-1
 192 406 l 1,24,25
 238 613 238 613 404 613 c 0,26,27
 547 613 547 613 551 458 c 0,28,29
 551 433 551 433 545 396 c 2,30,-1
 523 290 l 2,31,32
 503 191 503 191 450 138 c 128,-1,33
 397 85 397 85 313 85 c 0,18,19
512 774 m 0,34,35
 574 774 574 774 618 832 c 1,36,-1
 584 883 l 1,37,38
 567 870 567 870 554.5 863.5 c 128,-1,39
 542 857 542 857 525 857 c 0,40,41
 497 857 497 857 457 880 c 0,42,43
 439 890 439 890 421.5 897 c 128,-1,44
 404 904 404 904 381 904 c 0,45,46
 318 904 318 904 275 847 c 1,47,-1
 309 795 l 1,48,49
 326 808 326 808 339 814.5 c 128,-1,50
 352 821 352 821 368 821 c 0,51,52
 397 821 397 821 436 798 c 2,53,-1
 446 793 l 2,54,55
 460 786 460 786 475.5 780 c 128,-1,56
 491 774 491 774 512 774 c 0,34,35
EndSplineSet
EndChar

StartChar: Odieresis
Encoding: 214 214 149
Width: 687
Flags: W
LayerCount: 2
Fore
SplineSet
303 -12 m 0,0,1
 384 -12 384 -12 450 24.5 c 128,-1,2
 516 61 516 61 563 123 c 0,3,4
 660 258 660 258 660 433 c 0,5,6
 660 568 660 568 588 642 c 0,7,8
 521 710 521 710 412 710 c 0,9,10
 331 710 331 710 265.5 674 c 128,-1,11
 200 638 200 638 153 576 c 0,12,13
 56 441 56 441 56 265 c 0,14,15
 56 131 56 131 129 57 c 0,16,17
 201 -12 201 -12 303 -12 c 0,0,1
313 85 m 0,18,19
 241 85 241 85 203 126 c 128,-1,20
 165 167 165 167 165 240 c 0,21,22
 165 266 165 266 171 302 c 2,23,-1
 192 406 l 1,24,25
 238 613 238 613 404 613 c 0,26,27
 547 613 547 613 551 458 c 0,28,29
 551 433 551 433 545 396 c 2,30,-1
 523 290 l 2,31,32
 503 191 503 191 450 138 c 128,-1,33
 397 85 397 85 313 85 c 0,18,19
340 776 m 0,34,35
 372 776 372 776 388 791 c 128,-1,36
 404 806 404 806 408.5 829 c 128,-1,37
 413 852 413 852 413 862 c 0,38,39
 413 902 413 902 364 902 c 0,40,41
 331 902 331 902 314 887 c 0,42,43
 299 871 299 871 294 848.5 c 128,-1,44
 289 826 289 826 289 816 c 0,45,46
 289 798 289 798 301.5 787 c 128,-1,47
 314 776 314 776 340 776 c 0,34,35
529 776 m 0,48,49
 561 776 561 776 577 791 c 128,-1,50
 593 806 593 806 597.5 829 c 128,-1,51
 602 852 602 852 602 862 c 0,52,53
 602 902 602 902 553 902 c 0,54,55
 520 902 520 902 503 887 c 0,56,57
 488 871 488 871 483 848.5 c 128,-1,58
 478 826 478 826 478 816 c 0,59,60
 478 798 478 798 490.5 787 c 128,-1,61
 503 776 503 776 529 776 c 0,48,49
EndSplineSet
EndChar

StartChar: multiply
Encoding: 215 215 150
Width: 600
Flags: W
LayerCount: 2
Fore
SplineSet
124 85 m 1,0,-1
 302 240 l 1,1,-1
 417 86 l 1,2,-1
 489 147 l 1,3,-1
 373 301 l 1,4,-1
 552 457 l 1,5,-1
 497 525 l 1,6,-1
 319 371 l 1,7,-1
 203 525 l 1,8,-1
 131 464 l 1,9,-1
 248 310 l 1,10,-1
 69 153 l 1,11,-1
 124 85 l 1,0,-1
EndSplineSet
EndChar

StartChar: Oslash
Encoding: 216 216 151
Width: 687
Flags: W
LayerCount: 2
Fore
SplineSet
65 -52 m 1,0,-1
 145 41 l 1,1,2
 212 -12 212 -12 302 -12 c 0,3,4
 383 -12 383 -12 449 24.5 c 128,-1,5
 515 61 515 61 562 123 c 0,6,7
 659 258 659 258 659 433 c 0,8,9
 659 531 659 531 623 592 c 1,10,-1
 712 696 l 1,11,-1
 650 750 l 1,12,-1
 570 657 l 1,13,14
 503 710 503 710 413 710 c 0,15,16
 332 710 332 710 266.5 674 c 128,-1,17
 201 638 201 638 154 576 c 0,18,19
 56 441 56 441 56 265 c 0,20,21
 56 168 56 168 92 106 c 1,22,-1
 3 2 l 1,23,-1
 65 -52 l 1,0,-1
169 187 m 1,24,25
 162 210 162 210 162 238 c 0,26,27
 162 267 162 267 169 301 c 2,28,-1
 190 405 l 2,29,30
 236 614 236 614 404 614 c 0,31,32
 469 614 469 614 508 577 c 1,33,-1
 169 187 l 1,24,25
311 84 m 0,34,35
 247 84 247 84 207 121 c 1,36,-1
 546 511 l 1,37,38
 553 489 553 489 553 460 c 0,39,40
 553 432 553 432 546 397 c 2,41,-1
 525 293 l 2,42,43
 479 84 479 84 311 84 c 0,34,35
EndSplineSet
EndChar

StartChar: Ugrave
Encoding: 217 217 152
Width: 665
Flags: W
LayerCount: 2
Fore
SplineSet
292 -12 m 0,0,1
 418 -12 418 -12 487.5 55.5 c 128,-1,2
 557 123 557 123 587 277 c 2,3,-1
 671 698 l 1,4,-1
 563 698 l 1,5,-1
 479 278 l 2,6,7
 459 177 459 177 416 132.5 c 128,-1,8
 373 88 373 88 300 88 c 0,9,10
 188 88 188 88 183 207 c 0,11,12
 183 239 183 239 192 275 c 2,13,-1
 276 698 l 1,14,-1
 168 698 l 1,15,-1
 88 298 l 2,16,17
 78 244 78 244 78 200 c 0,18,19
 78 97 78 97 133.5 42.5 c 128,-1,20
 189 -12 189 -12 292 -12 c 0,0,1
412 749 m 1,21,-1
 476 778 l 1,22,-1
 411 961 l 1,23,-1
 319 918 l 1,24,-1
 412 749 l 1,21,-1
EndSplineSet
EndChar

StartChar: Uacute
Encoding: 218 218 153
Width: 665
Flags: W
LayerCount: 2
Fore
SplineSet
292 -12 m 0,0,1
 418 -12 418 -12 487.5 55.5 c 128,-1,2
 557 123 557 123 587 277 c 2,3,-1
 671 698 l 1,4,-1
 563 698 l 1,5,-1
 479 278 l 2,6,7
 459 177 459 177 416 132.5 c 128,-1,8
 373 88 373 88 300 88 c 0,9,10
 188 88 188 88 183 207 c 0,11,12
 183 239 183 239 192 275 c 2,13,-1
 276 698 l 1,14,-1
 168 698 l 1,15,-1
 88 298 l 2,16,17
 78 244 78 244 78 200 c 0,18,19
 78 97 78 97 133.5 42.5 c 128,-1,20
 189 -12 189 -12 292 -12 c 0,0,1
440 749 m 1,21,-1
 573 916 l 1,22,-1
 486 962 l 1,23,-1
 376 783 l 1,24,-1
 440 749 l 1,21,-1
EndSplineSet
EndChar

StartChar: Ucircumflex
Encoding: 219 219 154
Width: 665
Flags: W
LayerCount: 2
Fore
SplineSet
292 -12 m 0,0,1
 418 -12 418 -12 487.5 55.5 c 128,-1,2
 557 123 557 123 587 277 c 2,3,-1
 671 698 l 1,4,-1
 563 698 l 1,5,-1
 479 278 l 2,6,7
 459 177 459 177 416 132.5 c 128,-1,8
 373 88 373 88 300 88 c 0,9,10
 188 88 188 88 183 207 c 0,11,12
 183 239 183 239 192 275 c 2,13,-1
 276 698 l 1,14,-1
 168 698 l 1,15,-1
 88 298 l 2,16,17
 78 244 78 244 78 200 c 0,18,19
 78 97 78 97 133.5 42.5 c 128,-1,20
 189 -12 189 -12 292 -12 c 0,0,1
310 751 m 1,21,-1
 447 867 l 1,22,-1
 542 752 l 1,23,-1
 599 794 l 1,24,-1
 509 944 l 1,25,-1
 403 944 l 1,26,-1
 257 794 l 1,27,-1
 310 751 l 1,21,-1
EndSplineSet
EndChar

StartChar: Udieresis
Encoding: 220 220 155
Width: 665
Flags: W
LayerCount: 2
Fore
SplineSet
292 -12 m 0,0,1
 418 -12 418 -12 487.5 55.5 c 128,-1,2
 557 123 557 123 587 277 c 2,3,-1
 671 698 l 1,4,-1
 563 698 l 1,5,-1
 479 278 l 2,6,7
 459 177 459 177 416 132.5 c 128,-1,8
 373 88 373 88 300 88 c 0,9,10
 188 88 188 88 183 207 c 0,11,12
 183 239 183 239 192 275 c 2,13,-1
 276 698 l 1,14,-1
 168 698 l 1,15,-1
 88 298 l 2,16,17
 78 244 78 244 78 200 c 0,18,19
 78 97 78 97 133.5 42.5 c 128,-1,20
 189 -12 189 -12 292 -12 c 0,0,1
334 776 m 0,21,22
 366 776 366 776 382 791 c 128,-1,23
 398 806 398 806 402.5 829 c 128,-1,24
 407 852 407 852 407 862 c 0,25,26
 407 902 407 902 358 902 c 0,27,28
 325 902 325 902 308 887 c 0,29,30
 293 871 293 871 288 848.5 c 128,-1,31
 283 826 283 826 283 816 c 0,32,33
 283 798 283 798 295.5 787 c 128,-1,34
 308 776 308 776 334 776 c 0,21,22
523 776 m 0,35,36
 555 776 555 776 571 791 c 128,-1,37
 587 806 587 806 591.5 829 c 128,-1,38
 596 852 596 852 596 862 c 0,39,40
 596 902 596 902 547 902 c 0,41,42
 514 902 514 902 497 887 c 0,43,44
 482 871 482 871 477 848.5 c 128,-1,45
 472 826 472 826 472 816 c 0,46,47
 472 798 472 798 484.5 787 c 128,-1,48
 497 776 497 776 523 776 c 0,35,36
EndSplineSet
EndChar

StartChar: Yacute
Encoding: 221 221 156
Width: 597
Flags: W
LayerCount: 2
Fore
SplineSet
299 0 m 1,0,-1
 353 267 l 1,1,-1
 672 698 l 1,2,-1
 550 698 l 1,3,-1
 321 377 l 1,4,-1
 316 377 l 1,5,-1
 209 698 l 1,6,-1
 99 698 l 1,7,-1
 246 272 l 1,8,-1
 191 0 l 1,9,-1
 299 0 l 1,0,-1
397 749 m 1,10,-1
 530 916 l 1,11,-1
 443 962 l 1,12,-1
 333 783 l 1,13,-1
 397 749 l 1,10,-1
EndSplineSet
EndChar

StartChar: Thorn
Encoding: 222 222 157
Width: 606
Flags: W
LayerCount: 2
Fore
SplineSet
139 0 m 1,0,-1
 168 145 l 1,1,-1
 344 145 l 2,2,3
 457 145 457 145 525 214 c 128,-1,4
 593 283 593 283 593 389 c 0,5,6
 593 468 593 468 545.5 516 c 128,-1,7
 498 564 498 564 400 564 c 2,8,-1
 253 564 l 1,9,-1
 280 698 l 1,10,-1
 171 698 l 1,11,-1
 31 0 l 1,12,-1
 139 0 l 1,0,-1
358 242 m 2,13,-1
 189 242 l 1,14,-1
 233 467 l 1,15,-1
 399 467 l 2,16,17
 481 467 481 467 481 399 c 0,18,19
 481 383 481 383 477.5 368 c 128,-1,20
 474 353 474 353 469 330 c 0,21,22
 460 286 460 286 430.5 264 c 128,-1,23
 401 242 401 242 358 242 c 2,13,-1
EndSplineSet
EndChar

StartChar: germandbls
Encoding: 223 223 158
Width: 653
Flags: W
LayerCount: 2
Fore
SplineSet
410 -12 m 0,0,1
 499 -12 499 -12 551.5 40.5 c 128,-1,2
 604 93 604 93 604 169 c 0,3,4
 604 225 604 225 576 253.5 c 128,-1,5
 548 282 548 282 503 298 c 2,6,-1
 464 314 l 2,7,8
 410 333 410 333 410 379 c 0,9,10
 410 412 410 412 441 430.5 c 128,-1,11
 472 449 472 449 535 449 c 2,12,-1
 593 449 l 1,13,14
 600 482 600 482 606.5 515.5 c 128,-1,15
 613 549 613 549 613 582 c 0,16,17
 613 659 613 659 560 705.5 c 128,-1,18
 507 752 507 752 417 752 c 0,19,20
 312 752 312 752 243 696 c 128,-1,21
 174 640 174 640 152 530 c 2,22,-1
 150 520 l 1,23,-1
 69 520 l 1,24,-1
 52 433 l 1,25,-1
 132 433 l 1,26,-1
 45 0 l 1,27,-1
 149 0 l 1,28,-1
 255 529 l 2,29,30
 270 605 270 605 307.5 636 c 128,-1,31
 345 667 345 667 408 667 c 0,32,33
 510 667 510 667 512 577 c 0,34,35
 512 561 512 561 506 525 c 1,36,37
 414 519 414 519 362.5 474 c 128,-1,38
 311 429 311 429 311 364 c 0,39,40
 311 335 311 335 319 314 c 0,41,42
 340 262 340 262 412 237 c 1,43,-1
 451 221 l 2,44,45
 481 209 481 209 493 195 c 128,-1,46
 505 181 505 181 505 156 c 0,47,48
 505 78 505 78 412 73 c 1,49,50
 336 73 336 73 291 135 c 1,51,-1
 223 75 l 1,52,53
 251 33 251 33 300 10.5 c 128,-1,54
 349 -12 349 -12 410 -12 c 0,0,1
EndSplineSet
EndChar

StartChar: agrave
Encoding: 224 224 159
Width: 586
Flags: W
LayerCount: 2
Fore
SplineSet
192 -12 m 0,0,1
 252 -12 252 -12 291 20 c 128,-1,2
 330 52 330 52 361 116 c 1,3,-1
 365 116 l 1,4,5
 363 107 363 107 360.5 96 c 128,-1,6
 358 85 358 85 358 68 c 0,7,8
 358 4 358 4 434 0 c 1,9,-1
 513 0 l 1,10,-1
 530 87 l 1,11,-1
 463 87 l 1,12,-1
 550 520 l 1,13,-1
 446 520 l 1,14,-1
 429 433 l 1,15,-1
 424 433 l 1,16,17
 415 479 415 479 378.5 505.5 c 128,-1,18
 342 532 342 532 291 532 c 0,19,20
 233 532 233 532 187 502.5 c 128,-1,21
 141 473 141 473 109 424 c 0,22,23
 42 316 42 316 42 179 c 0,24,25
 42 92 42 92 81 40 c 128,-1,26
 120 -12 120 -12 192 -12 c 0,0,1
232 77 m 0,27,28
 190 77 190 77 169.5 104.5 c 128,-1,29
 149 132 149 132 149 176 c 0,30,31
 149 200 149 200 154 230 c 2,32,-1
 169 303 l 2,33,34
 196 443 196 443 311 443 c 0,35,36
 364 443 364 443 391 413 c 0,37,38
 412 389 412 389 412 361 c 0,39,40
 412 354 412 354 390 243 c 0,41,42
 377 173 377 173 333 127 c 0,43,44
 288 77 288 77 232 77 c 0,27,28
325 582 m 1,45,-1
 389 611 l 1,46,-1
 325 794 l 1,47,-1
 232 750 l 1,48,-1
 325 582 l 1,45,-1
EndSplineSet
EndChar

StartChar: aacute
Encoding: 225 225 160
Width: 586
Flags: W
LayerCount: 2
Fore
SplineSet
192 -12 m 0,0,1
 252 -12 252 -12 291 20 c 128,-1,2
 330 52 330 52 361 116 c 1,3,-1
 365 116 l 1,4,5
 363 107 363 107 360.5 96 c 128,-1,6
 358 85 358 85 358 68 c 0,7,8
 358 4 358 4 434 0 c 1,9,-1
 513 0 l 1,10,-1
 530 87 l 1,11,-1
 463 87 l 1,12,-1
 550 520 l 1,13,-1
 446 520 l 1,14,-1
 429 433 l 1,15,-1
 424 433 l 1,16,17
 415 479 415 479 378.5 505.5 c 128,-1,18
 342 532 342 532 291 532 c 0,19,20
 233 532 233 532 187 502.5 c 128,-1,21
 141 473 141 473 109 424 c 0,22,23
 42 316 42 316 42 179 c 0,24,25
 42 92 42 92 81 40 c 128,-1,26
 120 -12 120 -12 192 -12 c 0,0,1
232 77 m 0,27,28
 190 77 190 77 169.5 104.5 c 128,-1,29
 149 132 149 132 149 176 c 0,30,31
 149 200 149 200 154 230 c 2,32,-1
 169 303 l 2,33,34
 196 443 196 443 311 443 c 0,35,36
 364 443 364 443 391 413 c 0,37,38
 412 389 412 389 412 361 c 0,39,40
 412 354 412 354 390 243 c 0,41,42
 377 173 377 173 333 127 c 0,43,44
 288 77 288 77 232 77 c 0,27,28
359 582 m 1,45,-1
 493 749 l 1,46,-1
 406 795 l 1,47,-1
 296 616 l 1,48,-1
 359 582 l 1,45,-1
EndSplineSet
EndChar

StartChar: acircumflex
Encoding: 226 226 161
Width: 586
Flags: W
LayerCount: 2
Fore
SplineSet
192 -12 m 0,0,1
 252 -12 252 -12 291 20 c 128,-1,2
 330 52 330 52 361 116 c 1,3,-1
 365 116 l 1,4,5
 363 107 363 107 360.5 96 c 128,-1,6
 358 85 358 85 358 68 c 0,7,8
 358 4 358 4 434 0 c 1,9,-1
 513 0 l 1,10,-1
 530 87 l 1,11,-1
 463 87 l 1,12,-1
 550 520 l 1,13,-1
 446 520 l 1,14,-1
 429 433 l 1,15,-1
 424 433 l 1,16,17
 415 479 415 479 378.5 505.5 c 128,-1,18
 342 532 342 532 291 532 c 0,19,20
 233 532 233 532 187 502.5 c 128,-1,21
 141 473 141 473 109 424 c 0,22,23
 42 316 42 316 42 179 c 0,24,25
 42 92 42 92 81 40 c 128,-1,26
 120 -12 120 -12 192 -12 c 0,0,1
232 77 m 0,27,28
 190 77 190 77 169.5 104.5 c 128,-1,29
 149 132 149 132 149 176 c 0,30,31
 149 200 149 200 154 230 c 2,32,-1
 169 303 l 2,33,34
 196 443 196 443 311 443 c 0,35,36
 364 443 364 443 391 413 c 0,37,38
 412 389 412 389 412 361 c 0,39,40
 412 354 412 354 390 243 c 0,41,42
 377 173 377 173 333 127 c 0,43,44
 288 77 288 77 232 77 c 0,27,28
459 585 m 1,45,-1
 516 628 l 1,46,-1
 426 778 l 1,47,-1
 320 778 l 1,48,-1
 175 629 l 1,49,-1
 227 586 l 1,50,-1
 364 701 l 1,51,-1
 459 585 l 1,45,-1
EndSplineSet
EndChar

StartChar: atilde
Encoding: 227 227 162
Width: 586
Flags: W
LayerCount: 2
Fore
SplineSet
192 -12 m 0,0,1
 252 -12 252 -12 291 20 c 128,-1,2
 330 52 330 52 361 116 c 1,3,-1
 365 116 l 1,4,5
 363 107 363 107 360.5 96 c 128,-1,6
 358 85 358 85 358 68 c 0,7,8
 358 4 358 4 434 0 c 1,9,-1
 513 0 l 1,10,-1
 530 87 l 1,11,-1
 463 87 l 1,12,-1
 550 520 l 1,13,-1
 446 520 l 1,14,-1
 429 433 l 1,15,-1
 424 433 l 1,16,17
 415 479 415 479 378.5 505.5 c 128,-1,18
 342 532 342 532 291 532 c 0,19,20
 233 532 233 532 187 502.5 c 128,-1,21
 141 473 141 473 109 424 c 0,22,23
 42 316 42 316 42 179 c 0,24,25
 42 92 42 92 81 40 c 128,-1,26
 120 -12 120 -12 192 -12 c 0,0,1
232 77 m 0,27,28
 190 77 190 77 169.5 104.5 c 128,-1,29
 149 132 149 132 149 176 c 0,30,31
 149 200 149 200 154 230 c 2,32,-1
 169 303 l 2,33,34
 196 443 196 443 311 443 c 0,35,36
 364 443 364 443 391 413 c 0,37,38
 412 389 412 389 412 361 c 0,39,40
 412 354 412 354 390 243 c 0,41,42
 377 173 377 173 333 127 c 0,43,44
 288 77 288 77 232 77 c 0,27,28
424 607 m 0,45,46
 459 607 459 607 484.5 623 c 128,-1,47
 510 639 510 639 530 664 c 1,48,-1
 495 716 l 1,49,50
 478 703 478 703 465.5 696.5 c 128,-1,51
 453 690 453 690 436 690 c 0,52,53
 408 690 408 690 368 713 c 0,54,55
 351 722 351 722 333.5 729 c 128,-1,56
 316 736 316 736 293 736 c 0,57,58
 258 736 258 736 232.5 720 c 128,-1,59
 207 704 207 704 187 679 c 1,60,-1
 222 628 l 1,61,62
 239 641 239 641 251.5 647.5 c 128,-1,63
 264 654 264 654 281 654 c 0,64,65
 310 654 310 654 349 631 c 2,66,-1
 354 628 l 2,67,68
 370 620 370 620 386 613.5 c 128,-1,69
 402 607 402 607 424 607 c 0,45,46
EndSplineSet
EndChar

StartChar: adieresis
Encoding: 228 228 163
Width: 586
Flags: W
LayerCount: 2
Fore
SplineSet
192 -12 m 0,0,1
 252 -12 252 -12 291 20 c 128,-1,2
 330 52 330 52 361 116 c 1,3,-1
 365 116 l 1,4,5
 363 107 363 107 360.5 96 c 128,-1,6
 358 85 358 85 358 68 c 0,7,8
 358 4 358 4 434 0 c 1,9,-1
 513 0 l 1,10,-1
 530 87 l 1,11,-1
 463 87 l 1,12,-1
 550 520 l 1,13,-1
 446 520 l 1,14,-1
 429 433 l 1,15,-1
 424 433 l 1,16,17
 415 479 415 479 378.5 505.5 c 128,-1,18
 342 532 342 532 291 532 c 0,19,20
 233 532 233 532 187 502.5 c 128,-1,21
 141 473 141 473 109 424 c 0,22,23
 42 316 42 316 42 179 c 0,24,25
 42 92 42 92 81 40 c 128,-1,26
 120 -12 120 -12 192 -12 c 0,0,1
232 77 m 0,27,28
 190 77 190 77 169.5 104.5 c 128,-1,29
 149 132 149 132 149 176 c 0,30,31
 149 200 149 200 154 230 c 2,32,-1
 169 303 l 2,33,34
 196 443 196 443 311 443 c 0,35,36
 364 443 364 443 391 413 c 0,37,38
 412 389 412 389 412 361 c 0,39,40
 412 354 412 354 390 243 c 0,41,42
 377 173 377 173 333 127 c 0,43,44
 288 77 288 77 232 77 c 0,27,28
253 610 m 0,45,46
 311 610 311 610 322 664 c 0,47,48
 326 688 326 688 326 694 c 0,49,50
 326 734 326 734 277 734 c 0,51,52
 244 734 244 734 227 719 c 0,53,54
 212 703 212 703 207 680.5 c 128,-1,55
 202 658 202 658 202 650 c 0,56,57
 202 632 202 632 214.5 621 c 128,-1,58
 227 610 227 610 253 610 c 0,45,46
442 610 m 0,59,60
 500 610 500 610 511 664 c 0,61,62
 515 688 515 688 515 694 c 0,63,64
 515 734 515 734 466 734 c 0,65,66
 433 734 433 734 416 719 c 0,67,68
 401 703 401 703 396 680.5 c 128,-1,69
 391 658 391 658 391 650 c 0,70,71
 391 632 391 632 403.5 621 c 128,-1,72
 416 610 416 610 442 610 c 0,59,60
EndSplineSet
EndChar

StartChar: aring
Encoding: 229 229 164
Width: 586
Flags: W
LayerCount: 2
Fore
SplineSet
192 -12 m 0,0,1
 252 -12 252 -12 291 20 c 128,-1,2
 330 52 330 52 361 116 c 1,3,-1
 365 116 l 1,4,5
 363 107 363 107 360.5 96 c 128,-1,6
 358 85 358 85 358 68 c 0,7,8
 358 4 358 4 434 0 c 1,9,-1
 513 0 l 1,10,-1
 530 87 l 1,11,-1
 463 87 l 1,12,-1
 550 520 l 1,13,-1
 446 520 l 1,14,-1
 429 433 l 1,15,-1
 424 433 l 1,16,17
 415 479 415 479 378.5 505.5 c 128,-1,18
 342 532 342 532 291 532 c 0,19,20
 233 532 233 532 187 502.5 c 128,-1,21
 141 473 141 473 109 424 c 0,22,23
 42 316 42 316 42 179 c 0,24,25
 42 92 42 92 81 40 c 128,-1,26
 120 -12 120 -12 192 -12 c 0,0,1
232 77 m 0,27,28
 190 77 190 77 169.5 104.5 c 128,-1,29
 149 132 149 132 149 176 c 0,30,31
 149 200 149 200 154 230 c 2,32,-1
 169 303 l 2,33,34
 196 443 196 443 311 443 c 0,35,36
 364 443 364 443 391 413 c 0,37,38
 412 389 412 389 412 361 c 0,39,40
 412 354 412 354 390 243 c 0,41,42
 377 173 377 173 333 127 c 0,43,44
 288 77 288 77 232 77 c 0,27,28
343 568 m 0,45,46
 405 568 405 568 446.5 607.5 c 128,-1,47
 488 647 488 647 488 713 c 0,48,49
 488 761 488 761 457 791.5 c 128,-1,50
 426 822 426 822 376 822 c 0,51,52
 315 822 315 822 273 782.5 c 128,-1,53
 231 743 231 743 231 677 c 0,54,55
 231 630 231 630 262 599 c 128,-1,56
 293 568 293 568 343 568 c 0,45,46
349 627 m 0,57,58
 303 627 303 627 303 669 c 0,59,60
 303 686 303 686 308.5 710.5 c 128,-1,61
 314 735 314 735 329 749 c 128,-1,62
 344 763 344 763 370 763 c 0,63,64
 416 763 416 763 416 723 c 0,65,66
 416 708 416 708 410 680 c 0,67,68
 399 627 399 627 349 627 c 0,57,58
EndSplineSet
EndChar

StartChar: ae
Encoding: 230 230 165
Width: 814
Flags: W
LayerCount: 2
Fore
SplineSet
204 70 m 0,0,1
 134 70 134 70 130 125 c 1,2,3
 130 189 130 189 176 206 c 0,4,5
 207 219 207 219 254 220.5 c 128,-1,6
 301 222 301 222 346 224 c 1,7,8
 339 189 339 189 331 152.5 c 128,-1,9
 323 116 323 116 285.5 93 c 128,-1,10
 248 70 248 70 204 70 c 0,0,1
462 292 m 1,11,-1
 467 314 l 2,12,13
 482 377 482 377 519.5 413 c 128,-1,14
 557 449 557 449 615 449 c 0,15,16
 628 449 628 449 641 447 c 0,17,18
 692 438 692 438 692 381 c 0,19,20
 692 361 692 361 682.5 346 c 128,-1,21
 673 331 673 331 648 320 c 0,22,23
 601 298 601 298 462 292 c 1,11,-1
549 -12 m 0,24,25
 611 -12 611 -12 665 13.5 c 128,-1,26
 719 39 719 39 768 99 c 1,27,-1
 702 154 l 1,28,29
 643 76 643 76 557 76 c 0,30,31
 500 76 500 76 473.5 105 c 128,-1,32
 447 134 447 134 447 179 c 0,33,34
 447 200 447 200 450 223 c 1,35,36
 625 226 625 226 710 266.5 c 128,-1,37
 795 307 795 307 795 391 c 0,38,39
 795 461 795 461 738 500 c 0,40,41
 691 532 691 532 621 532 c 0,42,43
 511 532 511 532 445 445 c 1,44,-1
 438 445 l 1,45,46
 403 532 403 532 288 532 c 0,47,48
 221 532 221 532 168.5 505.5 c 128,-1,49
 116 479 116 479 85 433 c 1,50,-1
 147 373 l 1,51,52
 170 406 170 406 200 425 c 128,-1,53
 230 444 230 444 277 444 c 0,54,55
 371 444 371 444 371 367 c 0,56,57
 371 353 371 353 368 336 c 2,58,-1
 360 291 l 1,59,-1
 260 287 l 2,60,61
 23 278 23 278 23 123 c 0,62,63
 23 59 23 59 62 23.5 c 128,-1,64
 101 -12 101 -12 174 -12 c 0,65,66
 233 -12 233 -12 281.5 13.5 c 128,-1,67
 330 39 330 39 358 93 c 1,68,-1
 365 93 l 1,69,70
 410 -12 410 -12 549 -12 c 0,24,25
EndSplineSet
EndChar

StartChar: ccedilla
Encoding: 231 231 166
Width: 490
Flags: W
LayerCount: 2
Fore
SplineSet
216 -209 m 0,0,1
 270 -209 270 -209 305 -184 c 128,-1,2
 340 -159 340 -159 340 -113 c 0,3,4
 340 -84 340 -84 322.5 -70.5 c 128,-1,5
 305 -57 305 -57 279 -57 c 0,6,7
 257 -57 257 -57 243 -62 c 1,8,-1
 241 -59 l 1,9,-1
 258 -11 l 1,10,11
 384 1 384 1 446 131 c 1,12,-1
 366 169 l 1,13,14
 340 121 340 121 312 98.5 c 128,-1,15
 284 76 284 76 246 76 c 0,16,17
 194 76 194 76 169 105.5 c 128,-1,18
 144 135 144 135 144 183 c 0,19,20
 144 203 144 203 149 227 c 2,21,-1
 166 313 l 2,22,23
 192 444 192 444 300 444 c 0,24,25
 342 444 342 444 363.5 424.5 c 128,-1,26
 385 405 385 405 396 370 c 1,27,-1
 483 405 l 1,28,29
 470 463 470 463 423.5 497.5 c 128,-1,30
 377 532 377 532 305 532 c 0,31,32
 189 532 189 532 115 437.5 c 128,-1,33
 41 343 41 343 41 206 c 0,34,35
 41 109 41 109 84.5 54.5 c 128,-1,36
 128 0 128 0 201 -10 c 1,37,-1
 178 -75 l 1,38,-1
 203 -77 l 2,39,40
 237 -80 237 -80 249.5 -90.5 c 128,-1,41
 262 -101 262 -101 262 -115 c 0,42,43
 262 -145 262 -145 215 -149 c 0,44,45
 193 -149 193 -149 178 -140.5 c 128,-1,46
 163 -132 163 -132 156 -123 c 1,47,-1
 111 -168 l 1,48,49
 123 -186 123 -186 150 -197.5 c 128,-1,50
 177 -209 177 -209 216 -209 c 0,0,1
EndSplineSet
EndChar

StartChar: egrave
Encoding: 232 232 167
Width: 512
Flags: W
LayerCount: 2
Fore
SplineSet
248 -12 m 0,0,1
 309 -12 309 -12 363 13.5 c 128,-1,2
 417 39 417 39 466 99 c 1,3,-1
 400 154 l 1,4,5
 341 76 341 76 255 76 c 0,6,7
 198 76 198 76 171.5 105 c 128,-1,8
 145 134 145 134 145 182 c 0,9,10
 145 196 145 196 148 215 c 1,11,12
 326 220 326 220 409.5 264 c 128,-1,13
 493 308 493 308 493 390 c 0,14,15
 493 461 493 461 437 499 c 0,16,17
 388 532 388 532 318 532 c 0,18,19
 255 532 255 532 204 506 c 128,-1,20
 153 480 153 480 117 434 c 0,21,22
 42 336 42 336 42 208 c 0,23,24
 42 103 42 103 94.5 45.5 c 128,-1,25
 147 -12 147 -12 248 -12 c 0,0,1
160 288 m 1,26,-1
 165 314 l 2,27,28
 178 377 178 377 217 413 c 128,-1,29
 256 449 256 449 310 449 c 0,30,31
 340 449 340 449 365 437 c 0,32,33
 390 423 390 423 390 385 c 0,34,35
 390 363 390 363 381 346 c 128,-1,36
 372 329 372 329 347 317 c 0,37,38
 299 294 299 294 160 288 c 1,26,-1
315 582 m 1,39,-1
 379 611 l 1,40,-1
 315 794 l 1,41,-1
 222 750 l 1,42,-1
 315 582 l 1,39,-1
EndSplineSet
EndChar

StartChar: eacute
Encoding: 233 233 168
Width: 512
Flags: W
LayerCount: 2
Fore
SplineSet
248 -12 m 0,0,1
 309 -12 309 -12 363 13.5 c 128,-1,2
 417 39 417 39 466 99 c 1,3,-1
 400 154 l 1,4,5
 341 76 341 76 255 76 c 0,6,7
 198 76 198 76 171.5 105 c 128,-1,8
 145 134 145 134 145 182 c 0,9,10
 145 196 145 196 148 215 c 1,11,12
 326 220 326 220 409.5 264 c 128,-1,13
 493 308 493 308 493 390 c 0,14,15
 493 461 493 461 437 499 c 0,16,17
 388 532 388 532 318 532 c 0,18,19
 255 532 255 532 204 506 c 128,-1,20
 153 480 153 480 117 434 c 0,21,22
 42 336 42 336 42 208 c 0,23,24
 42 103 42 103 94.5 45.5 c 128,-1,25
 147 -12 147 -12 248 -12 c 0,0,1
160 288 m 1,26,-1
 165 314 l 2,27,28
 178 377 178 377 217 413 c 128,-1,29
 256 449 256 449 310 449 c 0,30,31
 340 449 340 449 365 437 c 0,32,33
 390 423 390 423 390 385 c 0,34,35
 390 363 390 363 381 346 c 128,-1,36
 372 329 372 329 347 317 c 0,37,38
 299 294 299 294 160 288 c 1,26,-1
349 582 m 1,39,-1
 483 749 l 1,40,-1
 396 795 l 1,41,-1
 286 616 l 1,42,-1
 349 582 l 1,39,-1
EndSplineSet
EndChar

StartChar: ecircumflex
Encoding: 234 234 169
Width: 512
Flags: W
LayerCount: 2
Fore
SplineSet
248 -12 m 0,0,1
 309 -12 309 -12 363 13.5 c 128,-1,2
 417 39 417 39 466 99 c 1,3,-1
 400 154 l 1,4,5
 341 76 341 76 255 76 c 0,6,7
 198 76 198 76 171.5 105 c 128,-1,8
 145 134 145 134 145 182 c 0,9,10
 145 196 145 196 148 215 c 1,11,12
 326 220 326 220 409.5 264 c 128,-1,13
 493 308 493 308 493 390 c 0,14,15
 493 461 493 461 437 499 c 0,16,17
 388 532 388 532 318 532 c 0,18,19
 255 532 255 532 204 506 c 128,-1,20
 153 480 153 480 117 434 c 0,21,22
 42 336 42 336 42 208 c 0,23,24
 42 103 42 103 94.5 45.5 c 128,-1,25
 147 -12 147 -12 248 -12 c 0,0,1
160 288 m 1,26,-1
 165 314 l 2,27,28
 178 377 178 377 217 413 c 128,-1,29
 256 449 256 449 310 449 c 0,30,31
 340 449 340 449 365 437 c 0,32,33
 390 423 390 423 390 385 c 0,34,35
 390 363 390 363 381 346 c 128,-1,36
 372 329 372 329 347 317 c 0,37,38
 299 294 299 294 160 288 c 1,26,-1
449 585 m 1,39,-1
 506 628 l 1,40,-1
 416 778 l 1,41,-1
 310 778 l 1,42,-1
 165 629 l 1,43,-1
 217 586 l 1,44,-1
 354 701 l 1,45,-1
 449 585 l 1,39,-1
EndSplineSet
EndChar

StartChar: edieresis
Encoding: 235 235 170
Width: 512
Flags: W
LayerCount: 2
Fore
SplineSet
248 -12 m 0,0,1
 309 -12 309 -12 363 13.5 c 128,-1,2
 417 39 417 39 466 99 c 1,3,-1
 400 154 l 1,4,5
 341 76 341 76 255 76 c 0,6,7
 198 76 198 76 171.5 105 c 128,-1,8
 145 134 145 134 145 182 c 0,9,10
 145 196 145 196 148 215 c 1,11,12
 326 220 326 220 409.5 264 c 128,-1,13
 493 308 493 308 493 390 c 0,14,15
 493 461 493 461 437 499 c 0,16,17
 388 532 388 532 318 532 c 0,18,19
 255 532 255 532 204 506 c 128,-1,20
 153 480 153 480 117 434 c 0,21,22
 42 336 42 336 42 208 c 0,23,24
 42 103 42 103 94.5 45.5 c 128,-1,25
 147 -12 147 -12 248 -12 c 0,0,1
160 288 m 1,26,-1
 165 314 l 2,27,28
 178 377 178 377 217 413 c 128,-1,29
 256 449 256 449 310 449 c 0,30,31
 340 449 340 449 365 437 c 0,32,33
 390 423 390 423 390 385 c 0,34,35
 390 363 390 363 381 346 c 128,-1,36
 372 329 372 329 347 317 c 0,37,38
 299 294 299 294 160 288 c 1,26,-1
243 610 m 0,39,40
 301 610 301 610 312 664 c 0,41,42
 316 688 316 688 316 694 c 0,43,44
 316 734 316 734 267 734 c 0,45,46
 234 734 234 734 217 719 c 0,47,48
 202 703 202 703 197 680.5 c 128,-1,49
 192 658 192 658 192 650 c 0,50,51
 192 632 192 632 204.5 621 c 128,-1,52
 217 610 217 610 243 610 c 0,39,40
432 610 m 0,53,54
 490 610 490 610 501 664 c 0,55,56
 505 688 505 688 505 694 c 0,57,58
 505 734 505 734 456 734 c 0,59,60
 423 734 423 734 406 719 c 0,61,62
 391 703 391 703 386 680.5 c 128,-1,63
 381 658 381 658 381 650 c 0,64,65
 381 632 381 632 393.5 621 c 128,-1,66
 406 610 406 610 432 610 c 0,53,54
EndSplineSet
EndChar

StartChar: igrave
Encoding: 236 236 171
Width: 271
Flags: W
LayerCount: 2
Fore
SplineSet
198 0 m 1,0,-1
 215 87 l 1,1,-1
 148 87 l 1,2,-1
 235 520 l 1,3,-1
 131 520 l 1,4,-1
 45 93 l 2,5,6
 43 82 43 82 43 71 c 0,7,8
 43 39 43 39 63 19.5 c 128,-1,9
 83 0 83 0 121 0 c 2,10,-1
 198 0 l 1,0,-1
180 582 m 1,11,-1
 244 611 l 1,12,-1
 180 794 l 1,13,-1
 87 750 l 1,14,-1
 180 582 l 1,11,-1
EndSplineSet
EndChar

StartChar: iacute
Encoding: 237 237 172
Width: 271
Flags: W
LayerCount: 2
Fore
SplineSet
198 0 m 1,0,-1
 215 87 l 1,1,-1
 148 87 l 1,2,-1
 235 520 l 1,3,-1
 131 520 l 1,4,-1
 45 93 l 2,5,6
 43 82 43 82 43 71 c 0,7,8
 43 39 43 39 63 19.5 c 128,-1,9
 83 0 83 0 121 0 c 2,10,-1
 198 0 l 1,0,-1
214 582 m 1,11,-1
 348 749 l 1,12,-1
 261 795 l 1,13,-1
 151 616 l 1,14,-1
 214 582 l 1,11,-1
EndSplineSet
EndChar

StartChar: icircumflex
Encoding: 238 238 173
Width: 271
Flags: W
LayerCount: 2
Fore
SplineSet
198 0 m 1,0,-1
 215 87 l 1,1,-1
 148 87 l 1,2,-1
 235 520 l 1,3,-1
 131 520 l 1,4,-1
 45 93 l 2,5,6
 43 82 43 82 43 71 c 0,7,8
 43 39 43 39 63 19.5 c 128,-1,9
 83 0 83 0 121 0 c 2,10,-1
 198 0 l 1,0,-1
314 585 m 1,11,-1
 371 628 l 1,12,-1
 281 778 l 1,13,-1
 175 778 l 1,14,-1
 30 629 l 1,15,-1
 82 586 l 1,16,-1
 219 701 l 1,17,-1
 314 585 l 1,11,-1
EndSplineSet
EndChar

StartChar: idieresis
Encoding: 239 239 174
Width: 271
Flags: W
LayerCount: 2
Fore
SplineSet
198 0 m 1,0,-1
 215 87 l 1,1,-1
 148 87 l 1,2,-1
 235 520 l 1,3,-1
 131 520 l 1,4,-1
 45 93 l 2,5,6
 43 82 43 82 43 71 c 0,7,8
 43 39 43 39 63 19.5 c 128,-1,9
 83 0 83 0 121 0 c 2,10,-1
 198 0 l 1,0,-1
108 610 m 0,11,12
 166 610 166 610 177 664 c 0,13,14
 181 688 181 688 181 694 c 0,15,16
 181 734 181 734 132 734 c 0,17,18
 99 734 99 734 82 719 c 0,19,20
 67 703 67 703 62 680.5 c 128,-1,21
 57 658 57 658 57 650 c 0,22,23
 57 632 57 632 69.5 621 c 128,-1,24
 82 610 82 610 108 610 c 0,11,12
297 610 m 0,25,26
 355 610 355 610 366 664 c 0,27,28
 370 688 370 688 370 694 c 0,29,30
 370 734 370 734 321 734 c 0,31,32
 288 734 288 734 271 719 c 0,33,34
 256 703 256 703 251 680.5 c 128,-1,35
 246 658 246 658 246 650 c 0,36,37
 246 632 246 632 258.5 621 c 128,-1,38
 271 610 271 610 297 610 c 0,25,26
EndSplineSet
EndChar

StartChar: eth
Encoding: 240 240 175
Width: 567
Flags: W
LayerCount: 2
Fore
SplineSet
239 -12 m 0,0,1
 358 -12 358 -12 439 81 c 0,2,3
 521 179 521 179 521 351 c 0,4,5
 521 530 521 530 429 649 c 1,6,-1
 514 699 l 1,7,-1
 484 752 l 1,8,-1
 389 695 l 1,9,10
 365 721 365 721 340 740 c 1,11,-1
 191 740 l 1,12,13
 251 706 251 706 306 648 c 1,14,-1
 219 597 l 1,15,-1
 248 545 l 1,16,-1
 345 601 l 1,17,18
 405 516 405 516 420 408 c 1,19,-1
 413 407 l 1,20,21
 399 452 399 452 365 477 c 128,-1,22
 331 502 331 502 278 502 c 0,23,24
 178 502 178 502 109.5 414 c 128,-1,25
 41 326 41 326 41 204 c 0,26,27
 41 104 41 104 93 46 c 128,-1,28
 145 -12 145 -12 239 -12 c 0,0,1
250 73 m 0,29,30
 201 73 201 73 173 100.5 c 128,-1,31
 145 128 145 128 145 177 c 0,32,33
 145 197 145 197 150 220 c 2,34,-1
 162 277 l 2,35,36
 177 342 177 342 212 379.5 c 128,-1,37
 247 417 247 417 299 417 c 0,38,39
 348 417 348 417 376 389.5 c 128,-1,40
 404 362 404 362 404 313 c 0,41,42
 404 294 404 294 399 270 c 2,43,-1
 387 213 l 2,44,45
 372 148 372 148 337 110.5 c 128,-1,46
 302 73 302 73 250 73 c 0,29,30
EndSplineSet
EndChar

StartChar: ntilde
Encoding: 241 241 176
Width: 573
Flags: W
LayerCount: 2
Fore
SplineSet
504 0 m 1,0,-1
 521 87 l 1,1,-1
 458 87 l 1,2,-1
 505 322 l 2,3,4
 513 358 513 358 513 392 c 0,5,6
 513 458 513 458 480.5 495 c 128,-1,7
 448 532 448 532 383 532 c 0,8,9
 325 532 325 532 286 500.5 c 128,-1,10
 247 469 247 469 218 409 c 1,11,-1
 213 409 l 1,12,-1
 235 520 l 1,13,-1
 131 520 l 1,14,-1
 27 0 l 1,15,-1
 131 0 l 1,16,-1
 187 280 l 2,17,18
 197 335 197 335 237.5 388.5 c 128,-1,19
 278 442 278 442 338 442 c 0,20,21
 406 442 406 442 406 370 c 0,22,23
 406 345 406 345 400 315 c 2,24,-1
 354 85 l 2,25,26
 353 80 353 80 353 66 c 0,27,28
 353 2 353 2 425 0 c 2,29,-1
 504 0 l 1,0,-1
433 607 m 0,30,31
 468 607 468 607 493.5 623 c 128,-1,32
 519 639 519 639 539 664 c 1,33,-1
 504 716 l 1,34,35
 487 703 487 703 474.5 696.5 c 128,-1,36
 462 690 462 690 445 690 c 0,37,38
 417 690 417 690 377 713 c 0,39,40
 360 722 360 722 342.5 729 c 128,-1,41
 325 736 325 736 302 736 c 0,42,43
 267 736 267 736 241.5 720 c 128,-1,44
 216 704 216 704 196 679 c 1,45,-1
 231 628 l 1,46,47
 248 641 248 641 260.5 647.5 c 128,-1,48
 273 654 273 654 290 654 c 0,49,50
 319 654 319 654 358 631 c 2,51,-1
 363 628 l 2,52,53
 379 620 379 620 395 613.5 c 128,-1,54
 411 607 411 607 433 607 c 0,30,31
EndSplineSet
EndChar

StartChar: ograve
Encoding: 242 242 177
Width: 548
Flags: W
LayerCount: 2
Fore
SplineSet
238 -12 m 0,0,1
 354 -12 354 -12 430 84.5 c 128,-1,2
 506 181 506 181 506 317 c 0,3,4
 506 422 506 422 452 477 c 128,-1,5
 398 532 398 532 310 532 c 0,6,7
 251 532 251 532 202 506 c 128,-1,8
 153 480 153 480 118 435 c 0,9,10
 42 337 42 337 42 203 c 0,11,12
 42 98 42 98 96 43 c 128,-1,13
 150 -12 150 -12 238 -12 c 0,0,1
246 76 m 0,14,15
 196 76 196 76 170.5 104.5 c 128,-1,16
 145 133 145 133 145 181 c 0,17,18
 145 204 145 204 149 220 c 2,19,-1
 166 303 l 2,20,21
 181 372 181 372 217 408 c 128,-1,22
 253 444 253 444 302 444 c 0,23,24
 352 444 352 444 377.5 415.5 c 128,-1,25
 403 387 403 387 403 339 c 0,26,27
 403 317 403 317 399 300 c 2,28,-1
 382 217 l 2,29,30
 367 148 367 148 331 112 c 128,-1,31
 295 76 295 76 246 76 c 0,14,15
311 582 m 1,32,-1
 375 611 l 1,33,-1
 311 794 l 1,34,-1
 218 750 l 1,35,-1
 311 582 l 1,32,-1
EndSplineSet
EndChar

StartChar: oacute
Encoding: 243 243 178
Width: 548
Flags: W
LayerCount: 2
Fore
SplineSet
238 -12 m 0,0,1
 354 -12 354 -12 430 84.5 c 128,-1,2
 506 181 506 181 506 317 c 0,3,4
 506 422 506 422 452 477 c 128,-1,5
 398 532 398 532 310 532 c 0,6,7
 251 532 251 532 202 506 c 128,-1,8
 153 480 153 480 118 435 c 0,9,10
 42 337 42 337 42 203 c 0,11,12
 42 98 42 98 96 43 c 128,-1,13
 150 -12 150 -12 238 -12 c 0,0,1
246 76 m 0,14,15
 196 76 196 76 170.5 104.5 c 128,-1,16
 145 133 145 133 145 181 c 0,17,18
 145 204 145 204 149 220 c 2,19,-1
 166 303 l 2,20,21
 181 372 181 372 217 408 c 128,-1,22
 253 444 253 444 302 444 c 0,23,24
 352 444 352 444 377.5 415.5 c 128,-1,25
 403 387 403 387 403 339 c 0,26,27
 403 317 403 317 399 300 c 2,28,-1
 382 217 l 2,29,30
 367 148 367 148 331 112 c 128,-1,31
 295 76 295 76 246 76 c 0,14,15
345 582 m 1,32,-1
 479 749 l 1,33,-1
 392 795 l 1,34,-1
 282 616 l 1,35,-1
 345 582 l 1,32,-1
EndSplineSet
EndChar

StartChar: ocircumflex
Encoding: 244 244 179
Width: 548
Flags: W
LayerCount: 2
Fore
SplineSet
238 -12 m 0,0,1
 354 -12 354 -12 430 84.5 c 128,-1,2
 506 181 506 181 506 317 c 0,3,4
 506 422 506 422 452 477 c 128,-1,5
 398 532 398 532 310 532 c 0,6,7
 251 532 251 532 202 506 c 128,-1,8
 153 480 153 480 118 435 c 0,9,10
 42 337 42 337 42 203 c 0,11,12
 42 98 42 98 96 43 c 128,-1,13
 150 -12 150 -12 238 -12 c 0,0,1
246 76 m 0,14,15
 196 76 196 76 170.5 104.5 c 128,-1,16
 145 133 145 133 145 181 c 0,17,18
 145 204 145 204 149 220 c 2,19,-1
 166 303 l 2,20,21
 181 372 181 372 217 408 c 128,-1,22
 253 444 253 444 302 444 c 0,23,24
 352 444 352 444 377.5 415.5 c 128,-1,25
 403 387 403 387 403 339 c 0,26,27
 403 317 403 317 399 300 c 2,28,-1
 382 217 l 2,29,30
 367 148 367 148 331 112 c 128,-1,31
 295 76 295 76 246 76 c 0,14,15
445 585 m 1,32,-1
 502 628 l 1,33,-1
 412 778 l 1,34,-1
 306 778 l 1,35,-1
 161 629 l 1,36,-1
 213 586 l 1,37,-1
 350 701 l 1,38,-1
 445 585 l 1,32,-1
EndSplineSet
EndChar

StartChar: otilde
Encoding: 245 245 180
Width: 548
Flags: W
LayerCount: 2
Fore
SplineSet
238 -12 m 0,0,1
 354 -12 354 -12 430 84.5 c 128,-1,2
 506 181 506 181 506 317 c 0,3,4
 506 422 506 422 452 477 c 128,-1,5
 398 532 398 532 310 532 c 0,6,7
 251 532 251 532 202 506 c 128,-1,8
 153 480 153 480 118 435 c 0,9,10
 42 337 42 337 42 203 c 0,11,12
 42 98 42 98 96 43 c 128,-1,13
 150 -12 150 -12 238 -12 c 0,0,1
246 76 m 0,14,15
 196 76 196 76 170.5 104.5 c 128,-1,16
 145 133 145 133 145 181 c 0,17,18
 145 204 145 204 149 220 c 2,19,-1
 166 303 l 2,20,21
 181 372 181 372 217 408 c 128,-1,22
 253 444 253 444 302 444 c 0,23,24
 352 444 352 444 377.5 415.5 c 128,-1,25
 403 387 403 387 403 339 c 0,26,27
 403 317 403 317 399 300 c 2,28,-1
 382 217 l 2,29,30
 367 148 367 148 331 112 c 128,-1,31
 295 76 295 76 246 76 c 0,14,15
410 607 m 0,32,33
 445 607 445 607 470.5 623 c 128,-1,34
 496 639 496 639 516 664 c 1,35,-1
 481 716 l 1,36,37
 464 703 464 703 451.5 696.5 c 128,-1,38
 439 690 439 690 422 690 c 0,39,40
 394 690 394 690 354 713 c 0,41,42
 337 722 337 722 319.5 729 c 128,-1,43
 302 736 302 736 279 736 c 0,44,45
 244 736 244 736 218.5 720 c 128,-1,46
 193 704 193 704 173 679 c 1,47,-1
 208 628 l 1,48,49
 225 641 225 641 237.5 647.5 c 128,-1,50
 250 654 250 654 267 654 c 0,51,52
 296 654 296 654 335 631 c 2,53,-1
 340 628 l 2,54,55
 356 620 356 620 372 613.5 c 128,-1,56
 388 607 388 607 410 607 c 0,32,33
EndSplineSet
EndChar

StartChar: odieresis
Encoding: 246 246 181
Width: 548
Flags: W
LayerCount: 2
Fore
SplineSet
238 -12 m 0,0,1
 354 -12 354 -12 430 84.5 c 128,-1,2
 506 181 506 181 506 317 c 0,3,4
 506 422 506 422 452 477 c 128,-1,5
 398 532 398 532 310 532 c 0,6,7
 251 532 251 532 202 506 c 128,-1,8
 153 480 153 480 118 435 c 0,9,10
 42 337 42 337 42 203 c 0,11,12
 42 98 42 98 96 43 c 128,-1,13
 150 -12 150 -12 238 -12 c 0,0,1
246 76 m 0,14,15
 196 76 196 76 170.5 104.5 c 128,-1,16
 145 133 145 133 145 181 c 0,17,18
 145 204 145 204 149 220 c 2,19,-1
 166 303 l 2,20,21
 181 372 181 372 217 408 c 128,-1,22
 253 444 253 444 302 444 c 0,23,24
 352 444 352 444 377.5 415.5 c 128,-1,25
 403 387 403 387 403 339 c 0,26,27
 403 317 403 317 399 300 c 2,28,-1
 382 217 l 2,29,30
 367 148 367 148 331 112 c 128,-1,31
 295 76 295 76 246 76 c 0,14,15
239 610 m 0,32,33
 297 610 297 610 308 664 c 0,34,35
 312 688 312 688 312 694 c 0,36,37
 312 734 312 734 263 734 c 0,38,39
 230 734 230 734 213 719 c 0,40,41
 198 703 198 703 193 680.5 c 128,-1,42
 188 658 188 658 188 650 c 0,43,44
 188 632 188 632 200.5 621 c 128,-1,45
 213 610 213 610 239 610 c 0,32,33
428 610 m 0,46,47
 486 610 486 610 497 664 c 0,48,49
 501 688 501 688 501 694 c 0,50,51
 501 734 501 734 452 734 c 0,52,53
 419 734 419 734 402 719 c 0,54,55
 387 703 387 703 382 680.5 c 128,-1,56
 377 658 377 658 377 650 c 0,57,58
 377 632 377 632 389.5 621 c 128,-1,59
 402 610 402 610 428 610 c 0,46,47
EndSplineSet
EndChar

StartChar: divide
Encoding: 247 247 182
Width: 600
Flags: W
LayerCount: 2
Fore
SplineSet
528 262 m 1,0,-1
 546 350 l 1,1,-1
 90 350 l 1,2,-1
 72 262 l 1,3,-1
 528 262 l 1,0,-1
260 42 m 0,4,5
 326 42 326 42 338 100 c 0,6,7
 342 115 342 115 342 135 c 0,8,9
 342 179 342 179 281 179 c 0,10,11
 215 179 215 179 203 120 c 0,12,13
 199 105 199 105 199 85 c 0,14,15
 199 42 199 42 260 42 c 0,4,5
337 431 m 0,16,17
 403 431 403 431 415 490 c 0,18,19
 419 505 419 505 419 525 c 0,20,21
 419 568 419 568 358 568 c 0,22,23
 292 568 292 568 280 510 c 0,24,25
 276 495 276 495 276 475 c 0,26,27
 276 431 276 431 337 431 c 0,16,17
EndSplineSet
EndChar

StartChar: oslash
Encoding: 248 248 183
Width: 548
Flags: W
LayerCount: 2
Fore
SplineSet
29 -42 m 1,0,-1
 104 36 l 1,1,2
 158 -12 158 -12 237 -12 c 0,3,4
 296 -12 296 -12 345.5 14 c 128,-1,5
 395 40 395 40 431 85 c 0,6,7
 506 181 506 181 506 317 c 0,8,9
 506 379 506 379 485 424 c 1,10,-1
 571 513 l 1,11,-1
 518 562 l 1,12,-1
 443 484 l 1,13,14
 390 532 390 532 310 532 c 0,15,16
 251 532 251 532 202 506 c 128,-1,17
 153 480 153 480 118 435 c 0,18,19
 42 337 42 337 42 203 c 0,20,21
 42 139 42 139 62 96 c 1,22,-1
 -24 7 l 1,23,-1
 29 -42 l 1,0,-1
245 74 m 0,24,25
 196 74 196 74 169 106 c 1,26,-1
 402 341 l 1,27,-1
 403 329 l 2,28,29
 403 323 403 323 400 300 c 0,30,31
 396 271 396 271 385 217 c 0,32,33
 370 147 370 147 332.5 110.5 c 128,-1,34
 295 74 295 74 245 74 c 0,24,25
147 179 m 1,35,-1
 147 192 l 2,36,37
 147 199 147 199 147.5 207.5 c 128,-1,38
 148 216 148 216 152.5 241 c 128,-1,39
 157 266 157 266 164 303 c 0,40,41
 179 373 179 373 216 409.5 c 128,-1,42
 253 446 253 446 302 446 c 0,43,44
 352 446 352 446 378 414 c 1,45,-1
 147 179 l 1,35,-1
EndSplineSet
EndChar

StartChar: ugrave
Encoding: 249 249 184
Width: 570
Flags: W
LayerCount: 2
Fore
SplineSet
182 -12 m 0,0,1
 238 -12 238 -12 276 19.5 c 128,-1,2
 314 51 314 51 343 111 c 1,3,-1
 348 111 l 1,4,5
 343 81 343 81 343 69 c 0,6,7
 343 5 343 5 417 0 c 1,8,-1
 497 0 l 1,9,-1
 514 87 l 1,10,-1
 447 87 l 1,11,-1
 534 520 l 1,12,-1
 430 520 l 1,13,-1
 374 242 l 2,14,15
 363 186 363 186 325 135 c 0,16,17
 284 78 284 78 225 78 c 0,18,19
 190 78 190 78 175 97 c 128,-1,20
 160 116 160 116 160 151 c 0,21,22
 160 174 160 174 166 204 c 2,23,-1
 229 520 l 1,24,-1
 125 520 l 1,25,-1
 61 199 l 2,26,27
 53 163 53 163 53 128 c 0,28,29
 53 62 53 62 85.5 25 c 128,-1,30
 118 -12 118 -12 182 -12 c 0,0,1
324 582 m 1,31,-1
 388 611 l 1,32,-1
 324 794 l 1,33,-1
 231 750 l 1,34,-1
 324 582 l 1,31,-1
EndSplineSet
EndChar

StartChar: uacute
Encoding: 250 250 185
Width: 570
Flags: W
LayerCount: 2
Fore
SplineSet
182 -12 m 0,0,1
 238 -12 238 -12 276 19.5 c 128,-1,2
 314 51 314 51 343 111 c 1,3,-1
 348 111 l 1,4,5
 343 81 343 81 343 69 c 0,6,7
 343 5 343 5 417 0 c 1,8,-1
 497 0 l 1,9,-1
 514 87 l 1,10,-1
 447 87 l 1,11,-1
 534 520 l 1,12,-1
 430 520 l 1,13,-1
 374 242 l 2,14,15
 363 186 363 186 325 135 c 0,16,17
 284 78 284 78 225 78 c 0,18,19
 190 78 190 78 175 97 c 128,-1,20
 160 116 160 116 160 151 c 0,21,22
 160 174 160 174 166 204 c 2,23,-1
 229 520 l 1,24,-1
 125 520 l 1,25,-1
 61 199 l 2,26,27
 53 163 53 163 53 128 c 0,28,29
 53 62 53 62 85.5 25 c 128,-1,30
 118 -12 118 -12 182 -12 c 0,0,1
358 582 m 1,31,-1
 492 749 l 1,32,-1
 405 795 l 1,33,-1
 295 616 l 1,34,-1
 358 582 l 1,31,-1
EndSplineSet
EndChar

StartChar: ucircumflex
Encoding: 251 251 186
Width: 570
Flags: W
LayerCount: 2
Fore
SplineSet
182 -12 m 0,0,1
 238 -12 238 -12 276 19.5 c 128,-1,2
 314 51 314 51 343 111 c 1,3,-1
 348 111 l 1,4,5
 343 81 343 81 343 69 c 0,6,7
 343 5 343 5 417 0 c 1,8,-1
 497 0 l 1,9,-1
 514 87 l 1,10,-1
 447 87 l 1,11,-1
 534 520 l 1,12,-1
 430 520 l 1,13,-1
 374 242 l 2,14,15
 363 186 363 186 325 135 c 0,16,17
 284 78 284 78 225 78 c 0,18,19
 190 78 190 78 175 97 c 128,-1,20
 160 116 160 116 160 151 c 0,21,22
 160 174 160 174 166 204 c 2,23,-1
 229 520 l 1,24,-1
 125 520 l 1,25,-1
 61 199 l 2,26,27
 53 163 53 163 53 128 c 0,28,29
 53 62 53 62 85.5 25 c 128,-1,30
 118 -12 118 -12 182 -12 c 0,0,1
458 585 m 1,31,-1
 515 628 l 1,32,-1
 425 778 l 1,33,-1
 319 778 l 1,34,-1
 174 629 l 1,35,-1
 226 586 l 1,36,-1
 363 701 l 1,37,-1
 458 585 l 1,31,-1
EndSplineSet
EndChar

StartChar: udieresis
Encoding: 252 252 187
Width: 570
Flags: W
LayerCount: 2
Fore
SplineSet
182 -12 m 0,0,1
 238 -12 238 -12 276 19.5 c 128,-1,2
 314 51 314 51 343 111 c 1,3,-1
 348 111 l 1,4,5
 343 81 343 81 343 69 c 0,6,7
 343 5 343 5 417 0 c 1,8,-1
 497 0 l 1,9,-1
 514 87 l 1,10,-1
 447 87 l 1,11,-1
 534 520 l 1,12,-1
 430 520 l 1,13,-1
 374 242 l 2,14,15
 363 186 363 186 325 135 c 0,16,17
 284 78 284 78 225 78 c 0,18,19
 190 78 190 78 175 97 c 128,-1,20
 160 116 160 116 160 151 c 0,21,22
 160 174 160 174 166 204 c 2,23,-1
 229 520 l 1,24,-1
 125 520 l 1,25,-1
 61 199 l 2,26,27
 53 163 53 163 53 128 c 0,28,29
 53 62 53 62 85.5 25 c 128,-1,30
 118 -12 118 -12 182 -12 c 0,0,1
252 610 m 0,31,32
 310 610 310 610 321 664 c 0,33,34
 325 688 325 688 325 694 c 0,35,36
 325 734 325 734 276 734 c 0,37,38
 243 734 243 734 226 719 c 0,39,40
 211 703 211 703 206 680.5 c 128,-1,41
 201 658 201 658 201 650 c 0,42,43
 201 632 201 632 213.5 621 c 128,-1,44
 226 610 226 610 252 610 c 0,31,32
441 610 m 0,45,46
 499 610 499 610 510 664 c 0,47,48
 514 688 514 688 514 694 c 0,49,50
 514 734 514 734 465 734 c 0,51,52
 432 734 432 734 415 719 c 0,53,54
 400 703 400 703 395 680.5 c 128,-1,55
 390 658 390 658 390 650 c 0,56,57
 390 632 390 632 402.5 621 c 128,-1,58
 415 610 415 610 441 610 c 0,45,46
EndSplineSet
EndChar

StartChar: yacute
Encoding: 253 253 188
Width: 495
Flags: W
LayerCount: 2
Fore
SplineSet
55 -200 m 2,0,1
 109 -200 109 -200 140.5 -177 c 128,-1,2
 172 -154 172 -154 198 -103 c 2,3,-1
 536 520 l 1,4,-1
 425 520 l 1,5,-1
 306 289 l 1,6,-1
 215 98 l 1,7,-1
 210 98 l 1,8,-1
 191 289 l 1,9,-1
 160 520 l 1,10,-1
 58 520 l 1,11,-1
 137 -22 l 1,12,-1
 88 -114 l 1,13,-1
 -7 -114 l 1,14,-1
 -24 -200 l 1,15,-1
 55 -200 l 2,0,1
318 582 m 1,16,-1
 452 749 l 1,17,-1
 365 795 l 1,18,-1
 255 616 l 1,19,-1
 318 582 l 1,16,-1
EndSplineSet
EndChar

StartChar: thorn
Encoding: 254 254 189
Width: 578
Flags: W
LayerCount: 2
Fore
SplineSet
91 -200 m 1,0,-1
 148 87 l 1,1,-1
 153 87 l 1,2,3
 162 39 162 39 198.5 13.5 c 128,-1,4
 235 -12 235 -12 286 -12 c 0,5,6
 397 -12 397 -12 469 96 c 1,7,8
 535 205 535 205 535 341 c 0,9,10
 535 428 535 428 496 480 c 128,-1,11
 457 532 457 532 385 532 c 0,12,13
 325 532 325 532 286 500 c 128,-1,14
 247 468 247 468 216 404 c 1,15,-1
 212 404 l 1,16,-1
 279 740 l 1,17,-1
 175 740 l 1,18,-1
 -13 -200 l 1,19,-1
 91 -200 l 1,0,-1
267 77 m 0,20,21
 209 77 209 77 184 107 c 0,22,23
 166 129 166 129 166 160 c 0,24,25
 166 171 166 171 168 183 c 2,26,-1
 187 278 l 2,27,28
 201 348 201 348 244 393 c 0,29,30
 289 443 289 443 344 443 c 0,31,32
 386 443 386 443 407 415 c 128,-1,33
 428 387 428 387 428 344 c 0,34,35
 428 319 428 319 423 290 c 2,36,-1
 408 217 l 2,37,38
 381 77 381 77 267 77 c 0,20,21
EndSplineSet
EndChar

StartChar: ydieresis
Encoding: 255 255 190
Width: 495
Flags: W
LayerCount: 2
Fore
SplineSet
55 -200 m 2,0,1
 109 -200 109 -200 140.5 -177 c 128,-1,2
 172 -154 172 -154 198 -103 c 2,3,-1
 536 520 l 1,4,-1
 425 520 l 1,5,-1
 306 289 l 1,6,-1
 215 98 l 1,7,-1
 210 98 l 1,8,-1
 191 289 l 1,9,-1
 160 520 l 1,10,-1
 58 520 l 1,11,-1
 137 -22 l 1,12,-1
 88 -114 l 1,13,-1
 -7 -114 l 1,14,-1
 -24 -200 l 1,15,-1
 55 -200 l 2,0,1
212 610 m 0,16,17
 270 610 270 610 281 664 c 0,18,19
 285 688 285 688 285 694 c 0,20,21
 285 734 285 734 236 734 c 0,22,23
 203 734 203 734 186 719 c 0,24,25
 171 703 171 703 166 680.5 c 128,-1,26
 161 658 161 658 161 650 c 0,27,28
 161 632 161 632 173.5 621 c 128,-1,29
 186 610 186 610 212 610 c 0,16,17
401 610 m 0,30,31
 459 610 459 610 470 664 c 0,32,33
 474 688 474 688 474 694 c 0,34,35
 474 734 474 734 425 734 c 0,36,37
 392 734 392 734 375 719 c 0,38,39
 360 703 360 703 355 680.5 c 128,-1,40
 350 658 350 658 350 650 c 0,41,42
 350 632 350 632 362.5 621 c 128,-1,43
 375 610 375 610 401 610 c 0,30,31
EndSplineSet
EndChar

StartChar: Amacron
Encoding: 256 256 191
Width: 638
Flags: W
LayerCount: 2
Fore
SplineSet
565 0 m 1,0,-1
 477 698 l 1,1,-1
 337 698 l 1,2,-1
 -30 0 l 1,3,-1
 86 0 l 1,4,-1
 183 189 l 1,5,-1
 433 189 l 1,6,-1
 455 0 l 1,7,-1
 565 0 l 1,0,-1
424 283 m 1,8,-1
 228 283 l 1,9,-1
 384 598 l 1,10,-1
 391 598 l 1,11,-1
 424 283 l 1,8,-1
559 800 m 1,12,-1
 575 881 l 1,13,-1
 301 881 l 1,14,-1
 284 800 l 1,15,-1
 559 800 l 1,12,-1
EndSplineSet
EndChar

StartChar: amacron
Encoding: 257 257 192
Width: 586
Flags: W
LayerCount: 2
Fore
SplineSet
192 -12 m 0,0,1
 252 -12 252 -12 291 20 c 128,-1,2
 330 52 330 52 361 116 c 1,3,-1
 365 116 l 1,4,5
 363 107 363 107 360.5 96 c 128,-1,6
 358 85 358 85 358 68 c 0,7,8
 358 4 358 4 434 0 c 1,9,-1
 513 0 l 1,10,-1
 530 87 l 1,11,-1
 463 87 l 1,12,-1
 550 520 l 1,13,-1
 446 520 l 1,14,-1
 429 433 l 1,15,-1
 424 433 l 1,16,17
 415 479 415 479 378.5 505.5 c 128,-1,18
 342 532 342 532 291 532 c 0,19,20
 233 532 233 532 187 502.5 c 128,-1,21
 141 473 141 473 109 424 c 0,22,23
 42 316 42 316 42 179 c 0,24,25
 42 92 42 92 81 40 c 128,-1,26
 120 -12 120 -12 192 -12 c 0,0,1
232 77 m 0,27,28
 190 77 190 77 169.5 104.5 c 128,-1,29
 149 132 149 132 149 176 c 0,30,31
 149 200 149 200 154 230 c 2,32,-1
 169 303 l 2,33,34
 196 443 196 443 311 443 c 0,35,36
 364 443 364 443 391 413 c 0,37,38
 412 389 412 389 412 361 c 0,39,40
 412 354 412 354 390 243 c 0,41,42
 377 173 377 173 333 127 c 0,43,44
 288 77 288 77 232 77 c 0,27,28
488 632 m 1,45,-1
 505 714 l 1,46,-1
 230 714 l 1,47,-1
 213 632 l 1,48,-1
 488 632 l 1,45,-1
EndSplineSet
EndChar

StartChar: Abreve
Encoding: 258 258 193
Width: 638
Flags: W
LayerCount: 2
Fore
SplineSet
565 0 m 1,0,-1
 477 698 l 1,1,-1
 337 698 l 1,2,-1
 -30 0 l 1,3,-1
 86 0 l 1,4,-1
 183 189 l 1,5,-1
 433 189 l 1,6,-1
 455 0 l 1,7,-1
 565 0 l 1,0,-1
424 283 m 1,8,-1
 228 283 l 1,9,-1
 384 598 l 1,10,-1
 391 598 l 1,11,-1
 424 283 l 1,8,-1
419 755 m 0,12,13
 489 755 489 755 539 804 c 0,14,15
 583 848 583 848 607 903 c 1,16,-1
 544 934 l 1,17,-1
 522 904 l 1,18,19
 477 833 477 833 423 833 c 0,20,21
 393 833 393 833 376 851.5 c 128,-1,22
 359 870 359 870 345 903 c 2,23,-1
 331 934 l 1,24,-1
 271 905 l 1,25,26
 277 852 277 852 310 805 c 0,27,28
 348 755 348 755 419 755 c 0,12,13
EndSplineSet
EndChar

StartChar: abreve
Encoding: 259 259 194
Width: 586
Flags: W
LayerCount: 2
Fore
SplineSet
192 -12 m 0,0,1
 252 -12 252 -12 291 20 c 128,-1,2
 330 52 330 52 361 116 c 1,3,-1
 365 116 l 1,4,5
 363 107 363 107 360.5 96 c 128,-1,6
 358 85 358 85 358 68 c 0,7,8
 358 4 358 4 434 0 c 1,9,-1
 513 0 l 1,10,-1
 530 87 l 1,11,-1
 463 87 l 1,12,-1
 550 520 l 1,13,-1
 446 520 l 1,14,-1
 429 433 l 1,15,-1
 424 433 l 1,16,17
 415 479 415 479 378.5 505.5 c 128,-1,18
 342 532 342 532 291 532 c 0,19,20
 233 532 233 532 187 502.5 c 128,-1,21
 141 473 141 473 109 424 c 0,22,23
 42 316 42 316 42 179 c 0,24,25
 42 92 42 92 81 40 c 128,-1,26
 120 -12 120 -12 192 -12 c 0,0,1
232 77 m 0,27,28
 190 77 190 77 169.5 104.5 c 128,-1,29
 149 132 149 132 149 176 c 0,30,31
 149 200 149 200 154 230 c 2,32,-1
 169 303 l 2,33,34
 196 443 196 443 311 443 c 0,35,36
 364 443 364 443 391 413 c 0,37,38
 412 389 412 389 412 361 c 0,39,40
 412 354 412 354 390 243 c 0,41,42
 377 173 377 173 333 127 c 0,43,44
 288 77 288 77 232 77 c 0,27,28
346 589 m 0,45,46
 464 589 464 589 535 737 c 1,47,-1
 472 768 l 1,48,-1
 450 740 l 2,49,50
 422 702 422 702 400 685 c 128,-1,51
 378 668 378 668 351 668 c 0,52,53
 321 668 321 668 304 686.5 c 128,-1,54
 287 705 287 705 273 739 c 2,55,-1
 259 768 l 1,56,-1
 199 739 l 1,57,58
 206 686 206 686 238 639 c 0,59,60
 275 589 275 589 346 589 c 0,45,46
EndSplineSet
EndChar

StartChar: Aogonek
Encoding: 260 260 195
Width: 638
Flags: W
LayerCount: 2
Fore
SplineSet
470 -209 m 0,0,1
 541 -209 541 -209 578 -167 c 1,2,-1
 534 -120 l 1,3,4
 513 -147 513 -147 480 -147 c 256,5,6
 447 -147 447 -147 447 -117 c 0,7,8
 447 -98 447 -98 466 -76 c 0,9,10
 488 -51 488 -51 565 0 c 1,11,-1
 477 698 l 1,12,-1
 337 698 l 1,13,-1
 -30 0 l 1,14,-1
 86 0 l 1,15,-1
 183 189 l 1,16,-1
 433 189 l 1,17,-1
 455 0 l 1,18,-1
 493 0 l 1,19,-1
 494 -5 l 1,20,21
 364 -51 364 -51 364 -131 c 0,22,23
 364 -171 364 -171 396 -190 c 128,-1,24
 428 -209 428 -209 470 -209 c 0,0,1
424 283 m 1,25,-1
 228 283 l 1,26,-1
 384 598 l 1,27,-1
 391 598 l 1,28,-1
 424 283 l 1,25,-1
EndSplineSet
EndChar

StartChar: aogonek
Encoding: 261 261 196
Width: 586
Flags: W
LayerCount: 2
Fore
SplineSet
418 -209 m 0,0,1
 491 -209 491 -209 526 -167 c 1,2,-1
 483 -120 l 1,3,4
 458 -147 458 -147 429 -147 c 0,5,6
 395 -147 395 -147 395 -117 c 0,7,8
 395 -98 395 -98 414 -76 c 0,9,10
 436 -51 436 -51 513 0 c 1,11,-1
 530 87 l 1,12,-1
 463 87 l 1,13,-1
 550 520 l 1,14,-1
 446 520 l 1,15,-1
 429 433 l 1,16,-1
 424 433 l 1,17,18
 415 479 415 479 378.5 505.5 c 128,-1,19
 342 532 342 532 291 532 c 0,20,21
 233 532 233 532 187 502.5 c 128,-1,22
 141 473 141 473 109 424 c 0,23,24
 42 316 42 316 42 179 c 0,25,26
 42 92 42 92 81 40 c 128,-1,27
 120 -12 120 -12 192 -12 c 0,28,29
 252 -12 252 -12 291 20 c 128,-1,30
 330 52 330 52 361 116 c 1,31,-1
 365 116 l 1,32,33
 363 107 363 107 360.5 96 c 128,-1,34
 358 85 358 85 358 68 c 0,35,36
 358 0 358 0 441 0 c 1,37,-1
 442 -5 l 1,38,39
 312 -51 312 -51 312 -131 c 0,40,41
 312 -171 312 -171 344 -190 c 128,-1,42
 376 -209 376 -209 418 -209 c 0,0,1
232 77 m 0,43,44
 190 77 190 77 169.5 104.5 c 128,-1,45
 149 132 149 132 149 176 c 0,46,47
 149 200 149 200 154 230 c 2,48,-1
 169 303 l 2,49,50
 196 443 196 443 311 443 c 0,51,52
 364 443 364 443 391 413 c 0,53,54
 412 389 412 389 412 361 c 0,55,56
 412 354 412 354 390 243 c 0,57,58
 377 175 377 175 332.5 126 c 128,-1,59
 288 77 288 77 232 77 c 0,43,44
EndSplineSet
EndChar

StartChar: Cacute
Encoding: 262 262 197
Width: 616
Flags: W
LayerCount: 2
Fore
SplineSet
297 -12 m 0,0,1
 483 -12 483 -12 571 161 c 1,2,-1
 481 204 l 1,3,4
 452 149 452 149 411 118 c 0,5,6
 371 85 371 85 305 85 c 0,7,8
 237 85 237 85 200.5 128 c 128,-1,9
 164 171 164 171 164 246 c 0,10,11
 164 272 164 272 170 305 c 2,12,-1
 193 418 l 2,13,14
 212 508 212 508 264 560.5 c 128,-1,15
 316 613 316 613 392 613 c 0,16,17
 453 613 453 613 486 584 c 128,-1,18
 519 555 519 555 533 504 c 1,19,-1
 630 546 l 1,20,21
 580 710 580 710 401 710 c 0,22,23
 325 710 325 710 261.5 676 c 128,-1,24
 198 642 198 642 153 581 c 0,25,26
 56 451 56 451 56 269 c 0,27,28
 56 131 56 131 123.5 59.5 c 128,-1,29
 191 -12 191 -12 297 -12 c 0,0,1
431 749 m 1,30,-1
 564 916 l 1,31,-1
 477 962 l 1,32,-1
 367 783 l 1,33,-1
 431 749 l 1,30,-1
EndSplineSet
EndChar

StartChar: cacute
Encoding: 263 263 198
Width: 491
Flags: W
LayerCount: 2
Fore
SplineSet
237 -12 m 0,0,1
 380 -12 380 -12 447 131 c 1,2,-1
 367 169 l 1,3,4
 341 121 341 121 313 98.5 c 128,-1,5
 285 76 285 76 247 76 c 0,6,7
 195 76 195 76 170 105.5 c 128,-1,8
 145 135 145 135 145 183 c 0,9,10
 145 203 145 203 150 227 c 2,11,-1
 167 313 l 2,12,13
 193 444 193 444 301 444 c 0,14,15
 343 444 343 444 364.5 424.5 c 128,-1,16
 386 405 386 405 397 370 c 1,17,-1
 484 405 l 1,18,19
 471 463 471 463 424.5 497.5 c 128,-1,20
 378 532 378 532 306 532 c 0,21,22
 190 532 190 532 116 437.5 c 128,-1,23
 42 343 42 343 42 206 c 0,24,25
 42 99 42 99 96 43.5 c 128,-1,26
 150 -12 150 -12 237 -12 c 0,0,1
336 582 m 1,27,-1
 470 749 l 1,28,-1
 383 795 l 1,29,-1
 273 616 l 1,30,-1
 336 582 l 1,27,-1
EndSplineSet
EndChar

StartChar: Ccircumflex
Encoding: 264 264 199
Width: 616
Flags: W
LayerCount: 2
Fore
SplineSet
297 -12 m 0,0,1
 483 -12 483 -12 571 161 c 1,2,-1
 481 204 l 1,3,4
 452 149 452 149 411 118 c 0,5,6
 371 85 371 85 305 85 c 0,7,8
 237 85 237 85 200.5 128 c 128,-1,9
 164 171 164 171 164 246 c 0,10,11
 164 272 164 272 170 305 c 2,12,-1
 193 418 l 2,13,14
 212 508 212 508 264 560.5 c 128,-1,15
 316 613 316 613 392 613 c 0,16,17
 453 613 453 613 486 584 c 128,-1,18
 519 555 519 555 533 504 c 1,19,-1
 630 546 l 1,20,21
 580 710 580 710 401 710 c 0,22,23
 325 710 325 710 261.5 676 c 128,-1,24
 198 642 198 642 153 581 c 0,25,26
 56 451 56 451 56 269 c 0,27,28
 56 131 56 131 123.5 59.5 c 128,-1,29
 191 -12 191 -12 297 -12 c 0,0,1
301 751 m 1,30,-1
 438 867 l 1,31,-1
 533 752 l 1,32,-1
 590 794 l 1,33,-1
 500 944 l 1,34,-1
 394 944 l 1,35,-1
 248 794 l 1,36,-1
 301 751 l 1,30,-1
EndSplineSet
EndChar

StartChar: ccircumflex
Encoding: 265 265 200
Width: 491
Flags: W
LayerCount: 2
Fore
SplineSet
237 -12 m 0,0,1
 380 -12 380 -12 447 131 c 1,2,-1
 367 169 l 1,3,4
 341 121 341 121 313 98.5 c 128,-1,5
 285 76 285 76 247 76 c 0,6,7
 195 76 195 76 170 105.5 c 128,-1,8
 145 135 145 135 145 183 c 0,9,10
 145 203 145 203 150 227 c 2,11,-1
 167 313 l 2,12,13
 193 444 193 444 301 444 c 0,14,15
 343 444 343 444 364.5 424.5 c 128,-1,16
 386 405 386 405 397 370 c 1,17,-1
 484 405 l 1,18,19
 471 463 471 463 424.5 497.5 c 128,-1,20
 378 532 378 532 306 532 c 0,21,22
 190 532 190 532 116 437.5 c 128,-1,23
 42 343 42 343 42 206 c 0,24,25
 42 99 42 99 96 43.5 c 128,-1,26
 150 -12 150 -12 237 -12 c 0,0,1
436 585 m 1,27,-1
 493 628 l 1,28,-1
 403 778 l 1,29,-1
 297 778 l 1,30,-1
 152 629 l 1,31,-1
 204 586 l 1,32,-1
 341 701 l 1,33,-1
 436 585 l 1,27,-1
EndSplineSet
EndChar

StartChar: Cdotaccent
Encoding: 266 266 201
Width: 616
Flags: W
LayerCount: 2
Fore
SplineSet
297 -12 m 0,0,1
 483 -12 483 -12 571 161 c 1,2,-1
 481 204 l 1,3,4
 452 149 452 149 411 118 c 0,5,6
 371 85 371 85 305 85 c 0,7,8
 237 85 237 85 200.5 128 c 128,-1,9
 164 171 164 171 164 246 c 0,10,11
 164 272 164 272 170 305 c 2,12,-1
 193 418 l 2,13,14
 212 508 212 508 264 560.5 c 128,-1,15
 316 613 316 613 392 613 c 0,16,17
 453 613 453 613 486 584 c 128,-1,18
 519 555 519 555 533 504 c 1,19,-1
 630 546 l 1,20,21
 580 710 580 710 401 710 c 0,22,23
 325 710 325 710 261.5 676 c 128,-1,24
 198 642 198 642 153 581 c 0,25,26
 56 451 56 451 56 269 c 0,27,28
 56 131 56 131 123.5 59.5 c 128,-1,29
 191 -12 191 -12 297 -12 c 0,0,1
421 772 m 0,30,31
 456 772 456 772 472 787 c 128,-1,32
 488 802 488 802 493 828 c 0,33,34
 495 835 495 835 495.5 840 c 128,-1,35
 496 845 496 845 497 850 c 128,-1,36
 498 855 498 855 498 859 c 0,37,38
 498 904 498 904 442 904 c 0,39,40
 407 904 407 904 391 889 c 128,-1,41
 375 874 375 874 370 848 c 0,42,43
 368 841 368 841 367.5 836 c 128,-1,44
 367 831 367 831 366 826.5 c 128,-1,45
 365 822 365 822 365 817 c 0,46,47
 365 772 365 772 421 772 c 0,30,31
EndSplineSet
EndChar

StartChar: cdotaccent
Encoding: 267 267 202
Width: 491
Flags: W
LayerCount: 2
Fore
SplineSet
237 -12 m 0,0,1
 380 -12 380 -12 447 131 c 1,2,-1
 367 169 l 1,3,4
 341 121 341 121 313 98.5 c 128,-1,5
 285 76 285 76 247 76 c 0,6,7
 195 76 195 76 170 105.5 c 128,-1,8
 145 135 145 135 145 183 c 0,9,10
 145 203 145 203 150 227 c 2,11,-1
 167 313 l 2,12,13
 193 444 193 444 301 444 c 0,14,15
 343 444 343 444 364.5 424.5 c 128,-1,16
 386 405 386 405 397 370 c 1,17,-1
 484 405 l 1,18,19
 471 463 471 463 424.5 497.5 c 128,-1,20
 378 532 378 532 306 532 c 0,21,22
 190 532 190 532 116 437.5 c 128,-1,23
 42 343 42 343 42 206 c 0,24,25
 42 99 42 99 96 43.5 c 128,-1,26
 150 -12 150 -12 237 -12 c 0,0,1
326 605 m 0,27,28
 361 605 361 605 377 620 c 128,-1,29
 393 635 393 635 398 661 c 0,30,31
 400 668 400 668 400.5 673 c 128,-1,32
 401 678 401 678 402 683 c 128,-1,33
 403 688 403 688 403 692 c 0,34,35
 403 737 403 737 347 737 c 0,36,37
 312 737 312 737 296 722 c 128,-1,38
 280 707 280 707 275 681 c 0,39,40
 273 674 273 674 272.5 669 c 128,-1,41
 272 664 272 664 271 659.5 c 128,-1,42
 270 655 270 655 270 650 c 0,43,44
 270 605 270 605 326 605 c 0,27,28
EndSplineSet
EndChar

StartChar: Ccaron
Encoding: 268 268 203
Width: 616
Flags: W
LayerCount: 2
Fore
SplineSet
297 -12 m 0,0,1
 483 -12 483 -12 571 161 c 1,2,-1
 481 204 l 1,3,4
 452 149 452 149 411 118 c 0,5,6
 371 85 371 85 305 85 c 0,7,8
 237 85 237 85 200.5 128 c 128,-1,9
 164 171 164 171 164 246 c 0,10,11
 164 272 164 272 170 305 c 2,12,-1
 193 418 l 2,13,14
 212 508 212 508 264 560.5 c 128,-1,15
 316 613 316 613 392 613 c 0,16,17
 453 613 453 613 486 584 c 128,-1,18
 519 555 519 555 533 504 c 1,19,-1
 630 546 l 1,20,21
 580 710 580 710 401 710 c 0,22,23
 325 710 325 710 261.5 676 c 128,-1,24
 198 642 198 642 153 581 c 0,25,26
 56 451 56 451 56 269 c 0,27,28
 56 131 56 131 123.5 59.5 c 128,-1,29
 191 -12 191 -12 297 -12 c 0,0,1
471 760 m 1,30,-1
 617 910 l 1,31,-1
 563 953 l 1,32,-1
 424 837 l 1,33,-1
 331 953 l 1,34,-1
 274 910 l 1,35,-1
 365 760 l 1,36,-1
 471 760 l 1,30,-1
EndSplineSet
EndChar

StartChar: ccaron
Encoding: 269 269 204
Width: 491
Flags: W
LayerCount: 2
Fore
SplineSet
237 -12 m 0,0,1
 380 -12 380 -12 447 131 c 1,2,-1
 367 169 l 1,3,4
 341 121 341 121 313 98.5 c 128,-1,5
 285 76 285 76 247 76 c 0,6,7
 195 76 195 76 170 105.5 c 128,-1,8
 145 135 145 135 145 183 c 0,9,10
 145 203 145 203 150 227 c 2,11,-1
 167 313 l 2,12,13
 193 444 193 444 301 444 c 0,14,15
 343 444 343 444 364.5 424.5 c 128,-1,16
 386 405 386 405 397 370 c 1,17,-1
 484 405 l 1,18,19
 471 463 471 463 424.5 497.5 c 128,-1,20
 378 532 378 532 306 532 c 0,21,22
 190 532 190 532 116 437.5 c 128,-1,23
 42 343 42 343 42 206 c 0,24,25
 42 99 42 99 96 43.5 c 128,-1,26
 150 -12 150 -12 237 -12 c 0,0,1
376 594 m 1,27,-1
 521 744 l 1,28,-1
 467 786 l 1,29,-1
 328 670 l 1,30,-1
 236 786 l 1,31,-1
 179 744 l 1,32,-1
 269 594 l 1,33,-1
 376 594 l 1,27,-1
EndSplineSet
EndChar

StartChar: Dcaron
Encoding: 270 270 205
Width: 665
Flags: W
LayerCount: 2
Fore
SplineSet
281 0 m 2,0,1
 366 0 366 0 432.5 34.5 c 128,-1,2
 499 69 499 69 544 130 c 0,3,4
 636 259 636 259 636 431 c 0,5,6
 636 563 636 563 569 630.5 c 128,-1,7
 502 698 502 698 385 698 c 2,8,-1
 172 698 l 1,9,-1
 32 0 l 1,10,-1
 281 0 l 2,0,1
287 97 m 2,11,-1
 160 97 l 1,12,-1
 261 601 l 1,13,-1
 387 601 l 2,14,15
 450 601 450 601 487.5 565 c 128,-1,16
 525 529 525 529 525 454 c 0,17,18
 525 430 525 430 519 392 c 2,19,-1
 499 292 l 2,20,21
 478 195 478 195 423 146 c 128,-1,22
 368 97 368 97 287 97 c 2,11,-1
451 760 m 1,23,-1
 597 910 l 1,24,-1
 543 953 l 1,25,-1
 404 837 l 1,26,-1
 311 953 l 1,27,-1
 254 910 l 1,28,-1
 345 760 l 1,29,-1
 451 760 l 1,23,-1
EndSplineSet
EndChar

StartChar: dcaron
Encoding: 271 271 206
Width: 620
Flags: W
LayerCount: 2
Fore
SplineSet
192 -12 m 0,0,1
 252 -12 252 -12 291 20 c 128,-1,2
 330 52 330 52 361 116 c 1,3,-1
 365 116 l 1,4,5
 363 107 363 107 360.5 96 c 128,-1,6
 358 85 358 85 358 68 c 0,7,8
 358 4 358 4 434 0 c 1,9,-1
 513 0 l 1,10,-1
 530 87 l 1,11,-1
 463 87 l 1,12,-1
 594 740 l 1,13,-1
 490 740 l 1,14,-1
 429 433 l 1,15,-1
 424 433 l 1,16,17
 415 479 415 479 378.5 505.5 c 128,-1,18
 342 532 342 532 291 532 c 0,19,20
 233 532 233 532 187 502.5 c 128,-1,21
 141 473 141 473 109 424 c 0,22,23
 42 316 42 316 42 179 c 0,24,25
 42 92 42 92 81 40 c 128,-1,26
 120 -12 120 -12 192 -12 c 0,0,1
234 77 m 0,27,28
 191 77 191 77 170 104.5 c 128,-1,29
 149 132 149 132 149 176 c 0,30,31
 149 202 149 202 154 230 c 2,32,-1
 169 303 l 2,33,34
 197 443 197 443 309 443 c 0,35,36
 368 443 368 443 393 413 c 0,37,38
 411 391 411 391 411 360 c 0,39,40
 411 349 411 349 409 337 c 2,41,-1
 390 242 l 2,42,43
 377 174 377 174 333 127 c 0,44,45
 313 106 313 106 289 91.5 c 128,-1,46
 265 77 265 77 234 77 c 0,27,28
688 542 m 1,47,-1
 778 740 l 1,48,-1
 658 740 l 1,49,-1
 616 542 l 1,50,-1
 688 542 l 1,47,-1
EndSplineSet
EndChar

StartChar: Dcroat
Encoding: 272 272 207
Width: 669
Flags: W
LayerCount: 2
Fore
SplineSet
284 0 m 2,0,1
 369 0 369 0 435.5 34.5 c 128,-1,2
 502 69 502 69 548 130 c 0,3,4
 640 259 640 259 640 431 c 0,5,6
 640 563 640 563 573 630.5 c 128,-1,7
 506 698 506 698 389 698 c 2,8,-1
 176 698 l 1,9,-1
 117 403 l 1,10,-1
 42 403 l 1,11,-1
 25 319 l 1,12,-1
 100 319 l 1,13,-1
 36 0 l 1,14,-1
 284 0 l 2,0,1
291 97 m 2,15,-1
 164 97 l 1,16,-1
 209 319 l 1,17,-1
 333 319 l 1,18,-1
 350 403 l 1,19,-1
 226 403 l 1,20,-1
 265 601 l 1,21,-1
 390 601 l 2,22,23
 454 601 454 601 491.5 565 c 128,-1,24
 529 529 529 529 529 454 c 0,25,26
 529 430 529 430 523 392 c 2,27,-1
 503 292 l 2,28,29
 482 195 482 195 427 146 c 128,-1,30
 372 97 372 97 291 97 c 2,15,-1
EndSplineSet
EndChar

StartChar: dcroat
Encoding: 273 273 208
Width: 586
Flags: W
LayerCount: 2
Fore
SplineSet
192 -12 m 0,0,1
 252 -12 252 -12 291 20 c 128,-1,2
 330 52 330 52 361 116 c 1,3,-1
 365 116 l 1,4,5
 363 107 363 107 360.5 96 c 128,-1,6
 358 85 358 85 358 68 c 0,7,8
 358 4 358 4 434 0 c 1,9,-1
 513 0 l 1,10,-1
 530 87 l 1,11,-1
 463 87 l 1,12,-1
 566 600 l 1,13,-1
 624 600 l 1,14,-1
 640 675 l 1,15,-1
 581 675 l 1,16,-1
 594 740 l 1,17,-1
 490 740 l 1,18,-1
 477 675 l 1,19,-1
 328 675 l 1,20,-1
 313 600 l 1,21,-1
 462 600 l 1,22,-1
 429 433 l 1,23,-1
 424 433 l 1,24,25
 415 479 415 479 378.5 505.5 c 128,-1,26
 342 532 342 532 291 532 c 0,27,28
 233 532 233 532 187 502.5 c 128,-1,29
 141 473 141 473 109 424 c 0,30,31
 42 316 42 316 42 179 c 0,32,33
 42 92 42 92 81 40 c 128,-1,34
 120 -12 120 -12 192 -12 c 0,0,1
234 77 m 0,35,36
 191 77 191 77 170 104.5 c 128,-1,37
 149 132 149 132 149 176 c 0,38,39
 149 202 149 202 154 230 c 2,40,-1
 169 303 l 2,41,42
 197 443 197 443 309 443 c 0,43,44
 368 443 368 443 393 413 c 0,45,46
 411 391 411 391 411 360 c 0,47,48
 411 349 411 349 409 337 c 2,49,-1
 390 242 l 2,50,51
 377 174 377 174 333 127 c 0,52,53
 313 106 313 106 289 91.5 c 128,-1,54
 265 77 265 77 234 77 c 0,35,36
EndSplineSet
EndChar

StartChar: Emacron
Encoding: 274 274 209
Width: 571
Flags: W
LayerCount: 2
Fore
SplineSet
473 0 m 1,0,-1
 492 96 l 1,1,-1
 160 96 l 1,2,-1
 202 304 l 1,3,-1
 486 304 l 1,4,-1
 505 400 l 1,5,-1
 221 400 l 1,6,-1
 261 602 l 1,7,-1
 579 602 l 1,8,-1
 599 698 l 1,9,-1
 172 698 l 1,10,-1
 32 0 l 1,11,-1
 473 0 l 1,0,-1
537 800 m 1,12,-1
 553 881 l 1,13,-1
 279 881 l 1,14,-1
 262 800 l 1,15,-1
 537 800 l 1,12,-1
EndSplineSet
EndChar

StartChar: emacron
Encoding: 275 275 210
Width: 512
Flags: W
LayerCount: 2
Fore
SplineSet
248 -12 m 0,0,1
 309 -12 309 -12 363 13.5 c 128,-1,2
 417 39 417 39 466 99 c 1,3,-1
 400 154 l 1,4,5
 341 76 341 76 255 76 c 0,6,7
 198 76 198 76 171.5 105 c 128,-1,8
 145 134 145 134 145 182 c 0,9,10
 145 196 145 196 148 215 c 1,11,12
 326 220 326 220 409.5 264 c 128,-1,13
 493 308 493 308 493 390 c 0,14,15
 493 461 493 461 437 499 c 0,16,17
 388 532 388 532 318 532 c 0,18,19
 255 532 255 532 204 506 c 128,-1,20
 153 480 153 480 117 434 c 0,21,22
 42 336 42 336 42 208 c 0,23,24
 42 103 42 103 94.5 45.5 c 128,-1,25
 147 -12 147 -12 248 -12 c 0,0,1
160 288 m 1,26,-1
 165 314 l 2,27,28
 178 377 178 377 217 413 c 128,-1,29
 256 449 256 449 310 449 c 0,30,31
 340 449 340 449 365 437 c 0,32,33
 390 423 390 423 390 385 c 0,34,35
 390 363 390 363 381 346 c 128,-1,36
 372 329 372 329 347 317 c 0,37,38
 299 294 299 294 160 288 c 1,26,-1
478 632 m 1,39,-1
 495 714 l 1,40,-1
 220 714 l 1,41,-1
 203 632 l 1,42,-1
 478 632 l 1,39,-1
EndSplineSet
EndChar

StartChar: Ebreve
Encoding: 276 276 211
Width: 571
Flags: W
LayerCount: 2
Fore
SplineSet
473 0 m 1,0,-1
 492 96 l 1,1,-1
 160 96 l 1,2,-1
 202 304 l 1,3,-1
 486 304 l 1,4,-1
 505 400 l 1,5,-1
 221 400 l 1,6,-1
 261 602 l 1,7,-1
 579 602 l 1,8,-1
 599 698 l 1,9,-1
 172 698 l 1,10,-1
 32 0 l 1,11,-1
 473 0 l 1,0,-1
397 755 m 0,12,13
 467 755 467 755 517 804 c 0,14,15
 561 848 561 848 585 903 c 1,16,-1
 522 934 l 1,17,-1
 500 904 l 1,18,19
 455 833 455 833 401 833 c 0,20,21
 371 833 371 833 354 851.5 c 128,-1,22
 337 870 337 870 323 903 c 2,23,-1
 309 934 l 1,24,-1
 249 905 l 1,25,26
 255 852 255 852 288 805 c 0,27,28
 326 755 326 755 397 755 c 0,12,13
EndSplineSet
EndChar

StartChar: ebreve
Encoding: 277 277 212
Width: 512
Flags: W
LayerCount: 2
Fore
SplineSet
248 -12 m 0,0,1
 309 -12 309 -12 363 13.5 c 128,-1,2
 417 39 417 39 466 99 c 1,3,-1
 400 154 l 1,4,5
 341 76 341 76 255 76 c 0,6,7
 198 76 198 76 171.5 105 c 128,-1,8
 145 134 145 134 145 182 c 0,9,10
 145 196 145 196 148 215 c 1,11,12
 326 220 326 220 409.5 264 c 128,-1,13
 493 308 493 308 493 390 c 0,14,15
 493 461 493 461 437 499 c 0,16,17
 388 532 388 532 318 532 c 0,18,19
 255 532 255 532 204 506 c 128,-1,20
 153 480 153 480 117 434 c 0,21,22
 42 336 42 336 42 208 c 0,23,24
 42 103 42 103 94.5 45.5 c 128,-1,25
 147 -12 147 -12 248 -12 c 0,0,1
160 288 m 1,26,-1
 165 314 l 2,27,28
 178 377 178 377 217 413 c 128,-1,29
 256 449 256 449 310 449 c 0,30,31
 340 449 340 449 365 437 c 0,32,33
 390 423 390 423 390 385 c 0,34,35
 390 363 390 363 381 346 c 128,-1,36
 372 329 372 329 347 317 c 0,37,38
 299 294 299 294 160 288 c 1,26,-1
336 589 m 0,39,40
 454 589 454 589 525 737 c 1,41,-1
 462 768 l 1,42,-1
 440 740 l 2,43,44
 412 702 412 702 390 685 c 128,-1,45
 368 668 368 668 341 668 c 0,46,47
 311 668 311 668 294 686.5 c 128,-1,48
 277 705 277 705 263 739 c 2,49,-1
 249 768 l 1,50,-1
 189 739 l 1,51,52
 196 686 196 686 228 639 c 0,53,54
 265 589 265 589 336 589 c 0,39,40
EndSplineSet
EndChar

StartChar: Edotaccent
Encoding: 278 278 213
Width: 571
Flags: W
LayerCount: 2
Fore
SplineSet
473 0 m 1,0,-1
 492 96 l 1,1,-1
 160 96 l 1,2,-1
 202 304 l 1,3,-1
 486 304 l 1,4,-1
 505 400 l 1,5,-1
 221 400 l 1,6,-1
 261 602 l 1,7,-1
 579 602 l 1,8,-1
 599 698 l 1,9,-1
 172 698 l 1,10,-1
 32 0 l 1,11,-1
 473 0 l 1,0,-1
397 772 m 0,12,13
 432 772 432 772 448 787 c 128,-1,14
 464 802 464 802 469 828 c 0,15,16
 471 835 471 835 471.5 840 c 128,-1,17
 472 845 472 845 473 850 c 128,-1,18
 474 855 474 855 474 859 c 0,19,20
 474 904 474 904 418 904 c 0,21,22
 383 904 383 904 367 889 c 128,-1,23
 351 874 351 874 346 848 c 0,24,25
 344 841 344 841 343.5 836 c 128,-1,26
 343 831 343 831 342 826.5 c 128,-1,27
 341 822 341 822 341 817 c 0,28,29
 341 772 341 772 397 772 c 0,12,13
EndSplineSet
EndChar

StartChar: edotaccent
Encoding: 279 279 214
Width: 512
Flags: W
LayerCount: 2
Fore
SplineSet
248 -12 m 0,0,1
 309 -12 309 -12 363 13.5 c 128,-1,2
 417 39 417 39 466 99 c 1,3,-1
 400 154 l 1,4,5
 341 76 341 76 255 76 c 0,6,7
 198 76 198 76 171.5 105 c 128,-1,8
 145 134 145 134 145 182 c 0,9,10
 145 196 145 196 148 215 c 1,11,12
 326 220 326 220 409.5 264 c 128,-1,13
 493 308 493 308 493 390 c 0,14,15
 493 461 493 461 437 499 c 0,16,17
 388 532 388 532 318 532 c 0,18,19
 255 532 255 532 204 506 c 128,-1,20
 153 480 153 480 117 434 c 0,21,22
 42 336 42 336 42 208 c 0,23,24
 42 103 42 103 94.5 45.5 c 128,-1,25
 147 -12 147 -12 248 -12 c 0,0,1
160 288 m 1,26,-1
 165 314 l 2,27,28
 178 377 178 377 217 413 c 128,-1,29
 256 449 256 449 310 449 c 0,30,31
 340 449 340 449 365 437 c 0,32,33
 390 423 390 423 390 385 c 0,34,35
 390 363 390 363 381 346 c 128,-1,36
 372 329 372 329 347 317 c 0,37,38
 299 294 299 294 160 288 c 1,26,-1
339 605 m 0,39,40
 374 605 374 605 390 620 c 128,-1,41
 406 635 406 635 411 661 c 0,42,43
 413 668 413 668 413.5 673 c 128,-1,44
 414 678 414 678 415 683 c 128,-1,45
 416 688 416 688 416 692 c 0,46,47
 416 737 416 737 360 737 c 0,48,49
 325 737 325 737 309 722 c 128,-1,50
 293 707 293 707 288 681 c 0,51,52
 286 674 286 674 285.5 669 c 128,-1,53
 285 664 285 664 284 659.5 c 128,-1,54
 283 655 283 655 283 650 c 0,55,56
 283 605 283 605 339 605 c 0,39,40
EndSplineSet
EndChar

StartChar: Eogonek
Encoding: 280 280 215
Width: 571
Flags: W
LayerCount: 2
Fore
SplineSet
378 -209 m 0,0,1
 451 -209 451 -209 486 -167 c 1,2,-1
 443 -120 l 1,3,4
 418 -147 418 -147 389 -147 c 0,5,6
 355 -147 355 -147 355 -117 c 0,7,8
 355 -98 355 -98 374 -76 c 0,9,10
 396 -51 396 -51 473 0 c 1,11,-1
 492 96 l 1,12,-1
 160 96 l 1,13,-1
 202 304 l 1,14,-1
 486 304 l 1,15,-1
 505 400 l 1,16,-1
 221 400 l 1,17,-1
 261 602 l 1,18,-1
 580 602 l 1,19,-1
 599 698 l 1,20,-1
 172 698 l 1,21,-1
 32 0 l 1,22,-1
 401 0 l 1,23,-1
 402 -5 l 1,24,25
 272 -51 272 -51 272 -131 c 0,26,27
 272 -171 272 -171 304 -190 c 128,-1,28
 336 -209 336 -209 378 -209 c 0,0,1
EndSplineSet
EndChar

StartChar: eogonek
Encoding: 281 281 216
Width: 512
Flags: W
LayerCount: 2
Fore
SplineSet
233 -209 m 0,0,1
 305 -209 305 -209 342 -167 c 1,2,-1
 298 -120 l 1,3,4
 273 -147 273 -147 244 -147 c 0,5,6
 210 -147 210 -147 210 -117 c 0,7,8
 210 -93 210 -93 237 -65.5 c 128,-1,9
 264 -38 264 -38 324 -6 c 0,10,11
 342 4 342 4 360 13 c 128,-1,12
 378 22 378 22 396 33 c 0,13,14
 430 54 430 54 466 99 c 1,15,-1
 400 154 l 1,16,17
 341 76 341 76 255 76 c 0,18,19
 198 76 198 76 171.5 105 c 128,-1,20
 145 134 145 134 145 182 c 0,21,22
 145 196 145 196 148 215 c 1,23,24
 326 220 326 220 409.5 264 c 128,-1,25
 493 308 493 308 493 390 c 0,26,27
 493 461 493 461 437 499 c 0,28,29
 388 532 388 532 318 532 c 0,30,31
 255 532 255 532 204 506 c 128,-1,32
 153 480 153 480 117 434 c 0,33,34
 42 336 42 336 42 208 c 0,35,36
 42 105 42 105 92.5 48 c 128,-1,37
 143 -9 143 -9 240 -12 c 1,38,-1
 241 -15 l 1,39,40
 127 -57 127 -57 127 -131 c 0,41,42
 127 -171 127 -171 159 -190 c 128,-1,43
 191 -209 191 -209 233 -209 c 0,0,1
160 288 m 1,44,-1
 165 314 l 2,45,46
 178 377 178 377 217 413 c 128,-1,47
 256 449 256 449 310 449 c 0,48,49
 340 449 340 449 365 437 c 0,50,51
 390 423 390 423 390 385 c 0,52,53
 390 363 390 363 381 346 c 128,-1,54
 372 329 372 329 347 317 c 0,55,56
 299 294 299 294 160 288 c 1,44,-1
EndSplineSet
EndChar

StartChar: Ecaron
Encoding: 282 282 217
Width: 571
Flags: W
LayerCount: 2
Fore
SplineSet
473 0 m 1,0,-1
 492 96 l 1,1,-1
 160 96 l 1,2,-1
 202 304 l 1,3,-1
 486 304 l 1,4,-1
 505 400 l 1,5,-1
 221 400 l 1,6,-1
 261 602 l 1,7,-1
 579 602 l 1,8,-1
 599 698 l 1,9,-1
 172 698 l 1,10,-1
 32 0 l 1,11,-1
 473 0 l 1,0,-1
447 760 m 1,12,-1
 593 910 l 1,13,-1
 539 953 l 1,14,-1
 400 837 l 1,15,-1
 307 953 l 1,16,-1
 250 910 l 1,17,-1
 341 760 l 1,18,-1
 447 760 l 1,12,-1
EndSplineSet
EndChar

StartChar: ecaron
Encoding: 283 283 218
Width: 512
Flags: W
LayerCount: 2
Fore
SplineSet
248 -12 m 0,0,1
 309 -12 309 -12 363 13.5 c 128,-1,2
 417 39 417 39 466 99 c 1,3,-1
 400 154 l 1,4,5
 341 76 341 76 255 76 c 0,6,7
 198 76 198 76 171.5 105 c 128,-1,8
 145 134 145 134 145 182 c 0,9,10
 145 196 145 196 148 215 c 1,11,12
 326 220 326 220 409.5 264 c 128,-1,13
 493 308 493 308 493 390 c 0,14,15
 493 461 493 461 437 499 c 0,16,17
 388 532 388 532 318 532 c 0,18,19
 255 532 255 532 204 506 c 128,-1,20
 153 480 153 480 117 434 c 0,21,22
 42 336 42 336 42 208 c 0,23,24
 42 103 42 103 94.5 45.5 c 128,-1,25
 147 -12 147 -12 248 -12 c 0,0,1
160 288 m 1,26,-1
 165 314 l 2,27,28
 178 377 178 377 217 413 c 128,-1,29
 256 449 256 449 310 449 c 0,30,31
 340 449 340 449 365 437 c 0,32,33
 390 423 390 423 390 385 c 0,34,35
 390 363 390 363 381 346 c 128,-1,36
 372 329 372 329 347 317 c 0,37,38
 299 294 299 294 160 288 c 1,26,-1
389 594 m 1,39,-1
 534 744 l 1,40,-1
 480 786 l 1,41,-1
 341 670 l 1,42,-1
 249 786 l 1,43,-1
 192 744 l 1,44,-1
 282 594 l 1,45,-1
 389 594 l 1,39,-1
EndSplineSet
EndChar

StartChar: Gcircumflex
Encoding: 284 284 219
Width: 678
Flags: W
LayerCount: 2
Fore
SplineSet
281 -12 m 0,0,1
 355 -12 355 -12 404 22 c 128,-1,2
 453 56 453 56 477 106 c 1,3,-1
 483 106 l 1,4,-1
 461 0 l 1,5,-1
 556 0 l 1,6,-1
 630 371 l 1,7,-1
 387 371 l 1,8,-1
 368 277 l 1,9,-1
 507 277 l 1,10,-1
 498 231 l 2,11,12
 482 162 482 162 430.5 123.5 c 128,-1,13
 379 85 379 85 310 85 c 0,14,15
 244 85 244 85 204.5 127 c 128,-1,16
 165 169 165 169 165 248 c 0,17,18
 165 277 165 277 171 306 c 2,19,-1
 192 413 l 2,20,21
 210 507 210 507 264.5 560 c 128,-1,22
 319 613 319 613 404 613 c 0,23,24
 527 613 527 613 562 502 c 1,25,-1
 656 548 l 1,26,27
 632 626 632 626 568.5 668 c 128,-1,28
 505 710 505 710 413 710 c 0,29,30
 330 710 330 710 263.5 675.5 c 128,-1,31
 197 641 197 641 151 580 c 0,32,33
 56 449 56 449 56 267 c 0,34,35
 56 129 56 129 118.5 58.5 c 128,-1,36
 181 -12 181 -12 281 -12 c 0,0,1
315 751 m 1,37,-1
 452 867 l 1,38,-1
 547 752 l 1,39,-1
 604 794 l 1,40,-1
 514 944 l 1,41,-1
 408 944 l 1,42,-1
 262 794 l 1,43,-1
 315 751 l 1,37,-1
EndSplineSet
EndChar

StartChar: gcircumflex
Encoding: 285 285 220
Width: 566
Flags: W
LayerCount: 2
Fore
SplineSet
457 585 m 1,0,-1
 362 701 l 1,1,-1
 225 586 l 1,2,-1
 173 629 l 1,3,-1
 318 778 l 1,4,-1
 424 778 l 1,5,-1
 514 628 l 1,6,-1
 457 585 l 1,0,-1
202 -212 m 0,7,8
 66 -212 66 -212 3 -121 c 1,9,-1
 73 -59 l 1,10,11
 114 -125 114 -125 201 -125 c 0,12,13
 317 -125 317 -125 344 12 c 2,14,-1
 366 122 l 1,15,-1
 362 122 l 1,16,17
 332 58 332 58 292 26 c 128,-1,18
 252 -6 252 -6 193 -6 c 0,19,20
 122 -6 122 -6 83 46.5 c 128,-1,21
 44 99 44 99 44 185 c 0,22,23
 44 276 44 276 73.5 355 c 128,-1,24
 103 434 103 434 158.5 483 c 128,-1,25
 214 532 214 532 291 532 c 0,26,27
 341 532 341 532 378 505.5 c 128,-1,28
 415 479 415 479 424 433 c 1,29,-1
 429 433 l 1,30,-1
 446 520 l 1,31,-1
 550 520 l 1,32,-1
 447 4 l 2,33,34
 427 -100 427 -100 368.5 -156 c 128,-1,35
 310 -212 310 -212 202 -212 c 0,7,8
235 83 m 0,36,37
 289 83 289 83 334 133 c 0,38,39
 377 179 377 179 391 248 c 0,40,41
 410 348 410 348 410 358 c 0,42,43
 410 387 410 387 390 415 c 128,-1,44
 370 443 370 443 310 443 c 0,45,46
 199 443 199 443 170 303 c 2,47,-1
 156 236 l 2,48,49
 151 208 151 208 151 182 c 0,50,51
 151 139 151 139 172 111 c 128,-1,52
 193 83 193 83 235 83 c 0,36,37
EndSplineSet
EndChar

StartChar: Gbreve
Encoding: 286 286 221
Width: 678
Flags: W
LayerCount: 2
Fore
SplineSet
281 -12 m 0,0,1
 355 -12 355 -12 404 22 c 128,-1,2
 453 56 453 56 477 106 c 1,3,-1
 483 106 l 1,4,-1
 461 0 l 1,5,-1
 556 0 l 1,6,-1
 630 371 l 1,7,-1
 387 371 l 1,8,-1
 368 277 l 1,9,-1
 507 277 l 1,10,-1
 498 231 l 2,11,12
 482 162 482 162 430.5 123.5 c 128,-1,13
 379 85 379 85 310 85 c 0,14,15
 244 85 244 85 204.5 127 c 128,-1,16
 165 169 165 169 165 248 c 0,17,18
 165 277 165 277 171 306 c 2,19,-1
 192 413 l 2,20,21
 210 507 210 507 264.5 560 c 128,-1,22
 319 613 319 613 404 613 c 0,23,24
 527 613 527 613 562 502 c 1,25,-1
 656 548 l 1,26,27
 632 626 632 626 568.5 668 c 128,-1,28
 505 710 505 710 413 710 c 0,29,30
 330 710 330 710 263.5 675.5 c 128,-1,31
 197 641 197 641 151 580 c 0,32,33
 56 449 56 449 56 267 c 0,34,35
 56 129 56 129 118.5 58.5 c 128,-1,36
 181 -12 181 -12 281 -12 c 0,0,1
435 755 m 0,37,38
 505 755 505 755 555 804 c 0,39,40
 599 848 599 848 623 903 c 1,41,-1
 560 934 l 1,42,-1
 538 904 l 1,43,44
 493 833 493 833 439 833 c 0,45,46
 409 833 409 833 392 851.5 c 128,-1,47
 375 870 375 870 361 903 c 2,48,-1
 347 934 l 1,49,-1
 287 905 l 1,50,51
 293 852 293 852 326 805 c 0,52,53
 364 755 364 755 435 755 c 0,37,38
EndSplineSet
EndChar

StartChar: gbreve
Encoding: 287 287 222
Width: 566
Flags: W
LayerCount: 2
Fore
SplineSet
344 589 m 0,0,1
 292 589 292 589 262 613 c 128,-1,2
 232 637 232 637 217 671 c 128,-1,3
 202 705 202 705 197 739 c 1,4,-1
 257 768 l 1,5,-1
 271 739 l 2,6,7
 285 705 285 705 302 686.5 c 128,-1,8
 319 668 319 668 349 668 c 0,9,10
 376 668 376 668 398 685.5 c 128,-1,11
 420 703 420 703 448 740 c 2,12,-1
 470 768 l 1,13,-1
 533 737 l 1,14,15
 515 702 515 702 490.5 668.5 c 128,-1,16
 466 635 466 635 430.5 612 c 128,-1,17
 395 589 395 589 344 589 c 0,0,1
202 -212 m 0,18,19
 66 -212 66 -212 3 -121 c 1,20,-1
 73 -59 l 1,21,22
 114 -125 114 -125 201 -125 c 0,23,24
 317 -125 317 -125 344 12 c 2,25,-1
 366 122 l 1,26,-1
 362 122 l 1,27,28
 332 58 332 58 292 26 c 128,-1,29
 252 -6 252 -6 193 -6 c 0,30,31
 122 -6 122 -6 83 46.5 c 128,-1,32
 44 99 44 99 44 185 c 0,33,34
 44 276 44 276 73.5 355 c 128,-1,35
 103 434 103 434 158.5 483 c 128,-1,36
 214 532 214 532 291 532 c 0,37,38
 341 532 341 532 378 505.5 c 128,-1,39
 415 479 415 479 424 433 c 1,40,-1
 429 433 l 1,41,-1
 446 520 l 1,42,-1
 550 520 l 1,43,-1
 447 4 l 2,44,45
 427 -100 427 -100 368.5 -156 c 128,-1,46
 310 -212 310 -212 202 -212 c 0,18,19
235 83 m 0,47,48
 289 83 289 83 334 133 c 0,49,50
 377 179 377 179 391 248 c 0,51,52
 410 348 410 348 410 358 c 0,53,54
 410 387 410 387 390 415 c 128,-1,55
 370 443 370 443 310 443 c 0,56,57
 199 443 199 443 170 303 c 2,58,-1
 156 236 l 2,59,60
 151 208 151 208 151 182 c 0,61,62
 151 139 151 139 172 111 c 128,-1,63
 193 83 193 83 235 83 c 0,47,48
EndSplineSet
EndChar

StartChar: Gdotaccent
Encoding: 288 288 223
Width: 678
Flags: W
LayerCount: 2
Fore
SplineSet
281 -12 m 0,0,1
 355 -12 355 -12 404 22 c 128,-1,2
 453 56 453 56 477 106 c 1,3,-1
 483 106 l 1,4,-1
 461 0 l 1,5,-1
 556 0 l 1,6,-1
 630 371 l 1,7,-1
 387 371 l 1,8,-1
 368 277 l 1,9,-1
 507 277 l 1,10,-1
 498 231 l 2,11,12
 482 162 482 162 430.5 123.5 c 128,-1,13
 379 85 379 85 310 85 c 0,14,15
 244 85 244 85 204.5 127 c 128,-1,16
 165 169 165 169 165 248 c 0,17,18
 165 277 165 277 171 306 c 2,19,-1
 192 413 l 2,20,21
 210 507 210 507 264.5 560 c 128,-1,22
 319 613 319 613 404 613 c 0,23,24
 527 613 527 613 562 502 c 1,25,-1
 656 548 l 1,26,27
 632 626 632 626 568.5 668 c 128,-1,28
 505 710 505 710 413 710 c 0,29,30
 330 710 330 710 263.5 675.5 c 128,-1,31
 197 641 197 641 151 580 c 0,32,33
 56 449 56 449 56 267 c 0,34,35
 56 129 56 129 118.5 58.5 c 128,-1,36
 181 -12 181 -12 281 -12 c 0,0,1
435 772 m 0,37,38
 470 772 470 772 486 787 c 128,-1,39
 502 802 502 802 507 828 c 0,40,41
 509 835 509 835 509.5 840 c 128,-1,42
 510 845 510 845 511 850 c 128,-1,43
 512 855 512 855 512 859 c 0,44,45
 512 904 512 904 456 904 c 0,46,47
 421 904 421 904 405 889 c 128,-1,48
 389 874 389 874 384 848 c 0,49,50
 382 841 382 841 381.5 836 c 128,-1,51
 381 831 381 831 380 826.5 c 128,-1,52
 379 822 379 822 379 817 c 0,53,54
 379 772 379 772 435 772 c 0,37,38
EndSplineSet
EndChar

StartChar: gdotaccent
Encoding: 289 289 224
Width: 566
Flags: W
LayerCount: 2
Fore
SplineSet
347 605 m 0,0,1
 291 605 291 605 291 650 c 0,2,3
 291 657 291 657 296 682 c 128,-1,4
 301 707 301 707 317.5 722 c 128,-1,5
 334 737 334 737 368 737 c 0,6,7
 424 737 424 737 424 692 c 0,8,9
 424 685 424 685 419 660 c 128,-1,10
 414 635 414 635 398 620 c 128,-1,11
 382 605 382 605 347 605 c 0,0,1
202 -212 m 0,12,13
 66 -212 66 -212 3 -121 c 1,14,-1
 73 -59 l 1,15,16
 114 -125 114 -125 201 -125 c 0,17,18
 317 -125 317 -125 344 12 c 2,19,-1
 366 122 l 1,20,-1
 362 122 l 1,21,22
 332 58 332 58 292 26 c 128,-1,23
 252 -6 252 -6 193 -6 c 0,24,25
 122 -6 122 -6 83 46.5 c 128,-1,26
 44 99 44 99 44 185 c 0,27,28
 44 276 44 276 73.5 355 c 128,-1,29
 103 434 103 434 158.5 483 c 128,-1,30
 214 532 214 532 291 532 c 0,31,32
 341 532 341 532 378 505.5 c 128,-1,33
 415 479 415 479 424 433 c 1,34,-1
 429 433 l 1,35,-1
 446 520 l 1,36,-1
 550 520 l 1,37,-1
 447 4 l 2,38,39
 427 -100 427 -100 368.5 -156 c 128,-1,40
 310 -212 310 -212 202 -212 c 0,12,13
235 83 m 0,41,42
 289 83 289 83 334 133 c 0,43,44
 377 179 377 179 391 248 c 0,45,46
 410 348 410 348 410 358 c 0,47,48
 410 387 410 387 390 415 c 128,-1,49
 370 443 370 443 310 443 c 0,50,51
 199 443 199 443 170 303 c 2,52,-1
 156 236 l 2,53,54
 151 208 151 208 151 182 c 0,55,56
 151 139 151 139 172 111 c 128,-1,57
 193 83 193 83 235 83 c 0,41,42
EndSplineSet
EndChar

StartChar: u0122
Encoding: 290 290 225
Width: 678
Flags: W
LayerCount: 2
Fore
SplineSet
281 -12 m 0,0,1
 355 -12 355 -12 404 22 c 128,-1,2
 453 56 453 56 477 106 c 1,3,-1
 483 106 l 1,4,-1
 461 0 l 1,5,-1
 556 0 l 1,6,-1
 630 371 l 1,7,-1
 387 371 l 1,8,-1
 368 277 l 1,9,-1
 507 277 l 1,10,-1
 498 231 l 2,11,12
 482 162 482 162 430.5 123.5 c 128,-1,13
 379 85 379 85 310 85 c 0,14,15
 244 85 244 85 204.5 127 c 128,-1,16
 165 169 165 169 165 248 c 0,17,18
 165 277 165 277 171 306 c 2,19,-1
 192 413 l 2,20,21
 210 507 210 507 264.5 560 c 128,-1,22
 319 613 319 613 404 613 c 0,23,24
 527 613 527 613 562 502 c 1,25,-1
 656 548 l 1,26,27
 632 626 632 626 568.5 668 c 128,-1,28
 505 710 505 710 413 710 c 0,29,30
 330 710 330 710 263.5 675.5 c 128,-1,31
 197 641 197 641 151 580 c 0,32,33
 56 449 56 449 56 267 c 0,34,35
 56 129 56 129 118.5 58.5 c 128,-1,36
 181 -12 181 -12 281 -12 c 0,0,1
237 -258 m 1,37,38
 297 -206 297 -206 318 -124 c 0,39,40
 319 -117 319 -117 320 -112.5 c 128,-1,41
 321 -108 321 -108 321 -99 c 0,42,43
 321 -56 321 -56 272 -56 c 0,44,45
 218 -56 218 -56 206 -109 c 2,46,-1
 205 -113 l 1,47,-1
 203 -134 l 2,48,49
 203 -165 203 -165 235 -172 c 1,50,51
 224 -197 224 -197 209.5 -216.5 c 128,-1,52
 195 -236 195 -236 169 -258 c 1,53,-1
 237 -258 l 1,37,38
EndSplineSet
EndChar

StartChar: u0123
Encoding: 291 291 226
Width: 566
Flags: W
LayerCount: 2
Fore
SplineSet
342 587 m 0,0,1
 291 587 291 587 291 629 c 0,2,3
 291 640 291 640 294 655 c 0,4,5
 315 737 315 737 375 789 c 1,6,-1
 443 789 l 1,7,8
 397 747 397 747 377 703 c 1,9,10
 409 700 409 700 409 665 c 2,11,-1
 409 657 l 1,12,13
 403 587 403 587 342 587 c 0,0,1
202 -212 m 0,14,15
 66 -212 66 -212 3 -121 c 1,16,-1
 73 -59 l 1,17,18
 114 -125 114 -125 201 -125 c 0,19,20
 317 -125 317 -125 344 12 c 2,21,-1
 366 122 l 1,22,-1
 362 122 l 1,23,24
 332 58 332 58 292 26 c 128,-1,25
 252 -6 252 -6 193 -6 c 0,26,27
 122 -6 122 -6 83 46.5 c 128,-1,28
 44 99 44 99 44 185 c 0,29,30
 44 276 44 276 73.5 355 c 128,-1,31
 103 434 103 434 158.5 483 c 128,-1,32
 214 532 214 532 291 532 c 0,33,34
 341 532 341 532 378 505.5 c 128,-1,35
 415 479 415 479 424 433 c 1,36,-1
 429 433 l 1,37,-1
 446 520 l 1,38,-1
 550 520 l 1,39,-1
 447 4 l 2,40,41
 427 -100 427 -100 368.5 -156 c 128,-1,42
 310 -212 310 -212 202 -212 c 0,14,15
235 83 m 0,43,44
 289 83 289 83 334 133 c 0,45,46
 377 179 377 179 391 248 c 0,47,48
 410 348 410 348 410 358 c 0,49,50
 410 387 410 387 390 415 c 128,-1,51
 370 443 370 443 310 443 c 0,52,53
 199 443 199 443 170 303 c 2,54,-1
 156 236 l 2,55,56
 151 208 151 208 151 182 c 0,57,58
 151 139 151 139 172 111 c 128,-1,59
 193 83 193 83 235 83 c 0,43,44
EndSplineSet
EndChar

StartChar: Hcircumflex
Encoding: 292 292 227
Width: 691
Flags: W
LayerCount: 2
Fore
SplineSet
554 0 m 1,0,-1
 694 698 l 1,1,-1
 586 698 l 1,2,-1
 527 400 l 1,3,-1
 221 400 l 1,4,-1
 280 698 l 1,5,-1
 172 698 l 1,6,-1
 32 0 l 1,7,-1
 140 0 l 1,8,-1
 202 304 l 1,9,-1
 508 304 l 1,10,-1
 446 0 l 1,11,-1
 554 0 l 1,0,-1
325 751 m 1,12,-1
 462 867 l 1,13,-1
 557 752 l 1,14,-1
 614 794 l 1,15,-1
 524 944 l 1,16,-1
 418 944 l 1,17,-1
 272 794 l 1,18,-1
 325 751 l 1,12,-1
EndSplineSet
EndChar

StartChar: hcircumflex
Encoding: 293 293 228
Width: 573
Flags: W
LayerCount: 2
Fore
SplineSet
504 0 m 1,0,-1
 521 87 l 1,1,-1
 458 87 l 1,2,-1
 505 322 l 2,3,4
 513 358 513 358 513 392 c 0,5,6
 513 458 513 458 480.5 495 c 128,-1,7
 448 532 448 532 383 532 c 0,8,9
 325 532 325 532 286 500.5 c 128,-1,10
 247 469 247 469 218 409 c 1,11,-1
 213 409 l 1,12,-1
 279 740 l 1,13,-1
 175 740 l 1,14,-1
 27 0 l 1,15,-1
 131 0 l 1,16,-1
 187 280 l 2,17,18
 197 335 197 335 237.5 388.5 c 128,-1,19
 278 442 278 442 338 442 c 0,20,21
 406 442 406 442 406 370 c 0,22,23
 406 345 406 345 400 315 c 2,24,-1
 355 90 l 2,25,26
 353 78 353 78 353 66 c 0,27,28
 353 2 353 2 425 0 c 2,29,-1
 504 0 l 1,0,-1
347 743 m 1,30,-1
 404 786 l 1,31,-1
 314 936 l 1,32,-1
 208 936 l 1,33,-1
 63 787 l 1,34,-1
 115 744 l 1,35,-1
 252 859 l 1,36,-1
 347 743 l 1,30,-1
EndSplineSet
EndChar

StartChar: Hbar
Encoding: 294 294 229
Width: 698
Flags: W
LayerCount: 2
Fore
SplineSet
558 0 m 1,0,-1
 661 517 l 1,1,-1
 730 517 l 1,2,-1
 746 599 l 1,3,-1
 678 599 l 1,4,-1
 698 698 l 1,5,-1
 590 698 l 1,6,-1
 570 599 l 1,7,-1
 264 599 l 1,8,-1
 284 698 l 1,9,-1
 176 698 l 1,10,-1
 156 599 l 1,11,-1
 87 599 l 1,12,-1
 70 517 l 1,13,-1
 139 517 l 1,14,-1
 36 0 l 1,15,-1
 144 0 l 1,16,-1
 206 304 l 1,17,-1
 512 304 l 1,18,-1
 450 0 l 1,19,-1
 558 0 l 1,0,-1
531 400 m 1,20,-1
 225 400 l 1,21,-1
 248 517 l 1,22,-1
 553 517 l 1,23,-1
 531 400 l 1,20,-1
EndSplineSet
EndChar

StartChar: hbar
Encoding: 295 295 230
Width: 573
Flags: W
LayerCount: 2
Fore
SplineSet
504 0 m 1,0,-1
 521 87 l 1,1,-1
 458 87 l 1,2,-1
 505 322 l 2,3,4
 513 358 513 358 513 392 c 0,5,6
 513 458 513 458 480.5 495 c 128,-1,7
 448 532 448 532 383 532 c 0,8,9
 325 532 325 532 286 500.5 c 128,-1,10
 247 469 247 469 218 409 c 1,11,-1
 213 409 l 1,12,-1
 251 600 l 1,13,-1
 394 600 l 1,14,-1
 409 676 l 1,15,-1
 266 676 l 1,16,-1
 279 740 l 1,17,-1
 175 740 l 1,18,-1
 162 676 l 1,19,-1
 97 676 l 1,20,-1
 82 600 l 1,21,-1
 147 600 l 1,22,-1
 27 0 l 1,23,-1
 131 0 l 1,24,-1
 187 280 l 2,25,26
 200 347 200 347 247 398 c 0,27,28
 290 442 290 442 338 442 c 0,29,30
 406 442 406 442 406 370 c 0,31,32
 406 345 406 345 400 315 c 2,33,-1
 355 90 l 2,34,35
 353 78 353 78 353 66 c 0,36,37
 353 2 353 2 425 0 c 2,38,-1
 504 0 l 1,0,-1
EndSplineSet
EndChar

StartChar: Itilde
Encoding: 296 296 231
Width: 276
Flags: W
LayerCount: 2
Fore
SplineSet
317 774 m 0,0,1
 379 774 379 774 423 832 c 1,2,-1
 389 883 l 1,3,4
 372 870 372 870 359.5 863.5 c 128,-1,5
 347 857 347 857 330 857 c 0,6,7
 302 857 302 857 262 880 c 0,8,9
 244 890 244 890 226.5 897 c 128,-1,10
 209 904 209 904 186 904 c 0,11,12
 123 904 123 904 80 847 c 1,13,-1
 114 795 l 1,14,15
 131 808 131 808 144 814.5 c 128,-1,16
 157 821 157 821 173 821 c 0,17,18
 202 821 202 821 241 798 c 2,19,-1
 251 793 l 2,20,21
 265 786 265 786 280.5 780 c 128,-1,22
 296 774 296 774 317 774 c 0,0,1
140 0 m 1,23,-1
 280 698 l 1,24,-1
 172 698 l 1,25,-1
 32 0 l 1,26,-1
 140 0 l 1,23,-1
EndSplineSet
EndChar

StartChar: itilde
Encoding: 297 297 232
Width: 271
Flags: W
LayerCount: 2
Fore
SplineSet
198 0 m 1,0,-1
 215 87 l 1,1,-1
 148 87 l 1,2,-1
 235 520 l 1,3,-1
 131 520 l 1,4,-1
 45 93 l 2,5,6
 43 82 43 82 43 71 c 0,7,8
 43 39 43 39 63 19.5 c 128,-1,9
 83 0 83 0 121 0 c 2,10,-1
 198 0 l 1,0,-1
279 607 m 0,11,12
 314 607 314 607 339.5 623 c 128,-1,13
 365 639 365 639 385 664 c 1,14,-1
 350 716 l 1,15,16
 333 703 333 703 320.5 696.5 c 128,-1,17
 308 690 308 690 291 690 c 0,18,19
 263 690 263 690 223 713 c 0,20,21
 206 722 206 722 188.5 729 c 128,-1,22
 171 736 171 736 148 736 c 0,23,24
 113 736 113 736 87.5 720 c 128,-1,25
 62 704 62 704 42 679 c 1,26,-1
 77 628 l 1,27,28
 94 641 94 641 106.5 647.5 c 128,-1,29
 119 654 119 654 136 654 c 0,30,31
 165 654 165 654 204 631 c 2,32,-1
 209 628 l 2,33,34
 225 620 225 620 241 613.5 c 128,-1,35
 257 607 257 607 279 607 c 0,11,12
EndSplineSet
EndChar

StartChar: Imacron
Encoding: 298 298 233
Width: 276
Flags: W
LayerCount: 2
Fore
SplineSet
381 800 m 1,0,-1
 397 881 l 1,1,-1
 123 881 l 1,2,-1
 106 800 l 1,3,-1
 381 800 l 1,0,-1
140 0 m 1,4,-1
 280 698 l 1,5,-1
 172 698 l 1,6,-1
 32 0 l 1,7,-1
 140 0 l 1,4,-1
EndSplineSet
EndChar

StartChar: imacron
Encoding: 299 299 234
Width: 271
Flags: W
LayerCount: 2
Fore
SplineSet
198 0 m 1,0,-1
 215 87 l 1,1,-1
 148 87 l 1,2,-1
 235 520 l 1,3,-1
 131 520 l 1,4,-1
 45 93 l 2,5,6
 43 82 43 82 43 71 c 0,7,8
 43 39 43 39 63 19.5 c 128,-1,9
 83 0 83 0 121 0 c 2,10,-1
 198 0 l 1,0,-1
343 632 m 1,11,-1
 360 714 l 1,12,-1
 85 714 l 1,13,-1
 68 632 l 1,14,-1
 343 632 l 1,11,-1
EndSplineSet
EndChar

StartChar: Ibreve
Encoding: 300 300 235
Width: 276
Flags: W
LayerCount: 2
Fore
SplineSet
241 755 m 0,0,1
 311 755 311 755 361 804 c 0,2,3
 405 848 405 848 429 903 c 1,4,-1
 366 934 l 1,5,-1
 344 904 l 1,6,7
 299 833 299 833 245 833 c 0,8,9
 215 833 215 833 198 851.5 c 128,-1,10
 181 870 181 870 167 903 c 2,11,-1
 153 934 l 1,12,-1
 93 905 l 1,13,14
 99 852 99 852 132 805 c 0,15,16
 170 755 170 755 241 755 c 0,0,1
140 0 m 1,17,-1
 280 698 l 1,18,-1
 172 698 l 1,19,-1
 32 0 l 1,20,-1
 140 0 l 1,17,-1
EndSplineSet
EndChar

StartChar: ibreve
Encoding: 301 301 236
Width: 271
Flags: W
LayerCount: 2
Fore
SplineSet
198 0 m 1,0,-1
 215 87 l 1,1,-1
 148 87 l 1,2,-1
 235 520 l 1,3,-1
 131 520 l 1,4,-1
 45 93 l 2,5,6
 43 82 43 82 43 71 c 0,7,8
 43 39 43 39 63 19.5 c 128,-1,9
 83 0 83 0 121 0 c 2,10,-1
 198 0 l 1,0,-1
201 589 m 0,11,12
 319 589 319 589 390 737 c 1,13,-1
 327 768 l 1,14,-1
 305 740 l 2,15,16
 277 702 277 702 255 685 c 128,-1,17
 233 668 233 668 206 668 c 0,18,19
 176 668 176 668 159 686.5 c 128,-1,20
 142 705 142 705 128 739 c 2,21,-1
 114 768 l 1,22,-1
 54 739 l 1,23,24
 61 686 61 686 93 639 c 0,25,26
 130 589 130 589 201 589 c 0,11,12
EndSplineSet
EndChar

StartChar: Iogonek
Encoding: 302 302 237
Width: 276
Flags: W
LayerCount: 2
Fore
SplineSet
45 -209 m 0,0,1
 118 -209 118 -209 153 -167 c 1,2,-1
 110 -120 l 1,3,4
 85 -147 85 -147 56 -147 c 0,5,6
 22 -147 22 -147 22 -117 c 0,7,8
 22 -98 22 -98 41 -76 c 0,9,10
 63 -51 63 -51 140 0 c 1,11,-1
 280 698 l 1,12,-1
 172 698 l 1,13,-1
 32 0 l 1,14,-1
 69 0 l 1,15,-1
 70 -5 l 1,16,17
 -61 -51 -61 -51 -61 -131 c 0,18,19
 -61 -171 -61 -171 -29 -190 c 128,-1,20
 3 -209 3 -209 45 -209 c 0,0,1
EndSplineSet
EndChar

StartChar: iogonek
Encoding: 303 303 238
Width: 271
Flags: W
LayerCount: 2
Fore
SplineSet
103 -209 m 0,0,1
 176 -209 176 -209 211 -167 c 1,2,-1
 168 -120 l 1,3,4
 143 -147 143 -147 114 -147 c 0,5,6
 80 -147 80 -147 80 -117 c 0,7,8
 80 -98 80 -98 99 -76 c 0,9,10
 121 -51 121 -51 198 0 c 1,11,-1
 215 87 l 1,12,-1
 148 87 l 1,13,-1
 235 520 l 1,14,-1
 131 520 l 1,15,16
 43 80 43 80 43 70 c 0,17,18
 43 39 43 39 63 19.5 c 128,-1,19
 83 0 83 0 121 0 c 2,20,-1
 128 0 l 1,21,-1
 129 -5 l 1,22,23
 -3 -51 -3 -51 -3 -131 c 0,24,25
 -3 -171 -3 -171 29 -190 c 128,-1,26
 61 -209 61 -209 103 -209 c 0,0,1
204 613 m 0,27,28
 239 613 239 613 254.5 629 c 128,-1,29
 270 645 270 645 275.5 668.5 c 128,-1,30
 281 692 281 692 281 702 c 0,31,32
 281 720 281 720 268 732 c 128,-1,33
 255 744 255 744 226 744 c 0,34,35
 192 744 192 744 175 729 c 0,36,37
 160 712 160 712 154.5 688.5 c 128,-1,38
 149 665 149 665 149 655 c 0,39,40
 149 637 149 637 162 625 c 128,-1,41
 175 613 175 613 204 613 c 0,27,28
EndSplineSet
EndChar

StartChar: Idotaccent
Encoding: 304 304 239
Width: 276
Flags: W
LayerCount: 2
Fore
SplineSet
241 772 m 0,0,1
 276 772 276 772 292 787 c 128,-1,2
 308 802 308 802 313 828 c 0,3,4
 315 835 315 835 315.5 840 c 128,-1,5
 316 845 316 845 317 850 c 128,-1,6
 318 855 318 855 318 859 c 0,7,8
 318 904 318 904 262 904 c 0,9,10
 227 904 227 904 211 889 c 128,-1,11
 195 874 195 874 190 848 c 0,12,13
 188 841 188 841 187.5 836 c 128,-1,14
 187 831 187 831 186 826.5 c 128,-1,15
 185 822 185 822 185 817 c 0,16,17
 185 772 185 772 241 772 c 0,0,1
140 0 m 1,18,-1
 280 698 l 1,19,-1
 172 698 l 1,20,-1
 32 0 l 1,21,-1
 140 0 l 1,18,-1
EndSplineSet
EndChar

StartChar: dotlessi
Encoding: 305 305 240
Width: 271
Flags: W
LayerCount: 2
Fore
SplineSet
198 0 m 1,0,-1
 215 87 l 1,1,-1
 148 87 l 1,2,-1
 235 520 l 1,3,-1
 131 520 l 1,4,-1
 45 93 l 2,5,6
 43 82 43 82 43 71 c 0,7,8
 43 39 43 39 63 19.5 c 128,-1,9
 83 0 83 0 121 0 c 2,10,-1
 198 0 l 1,0,-1
EndSplineSet
EndChar

StartChar: ij
Encoding: 307 307 242
Width: 530
Flags: W
LayerCount: 2
Fore
SplineSet
204 613 m 0,0,1
 239 613 239 613 254.5 629 c 128,-1,2
 270 645 270 645 275.5 668.5 c 128,-1,3
 281 692 281 692 281 702 c 0,4,5
 281 720 281 720 268 732 c 128,-1,6
 255 744 255 744 226 744 c 0,7,8
 192 744 192 744 175 729 c 0,9,10
 160 712 160 712 154.5 688.5 c 128,-1,11
 149 665 149 665 149 655 c 0,12,13
 149 637 149 637 162 625 c 128,-1,14
 175 613 175 613 204 613 c 0,0,1
198 0 m 1,15,-1
 215 87 l 1,16,-1
 148 87 l 1,17,-1
 235 520 l 1,18,-1
 131 520 l 1,19,20
 43 80 43 80 43 70 c 0,21,22
 43 39 43 39 63 19.5 c 128,-1,23
 83 0 83 0 121 0 c 2,24,-1
 198 0 l 1,15,-1
248 -200 m 2,25,26
 310 -200 310 -200 341 -171 c 128,-1,27
 372 -142 372 -142 383 -83 c 2,28,-1
 504 520 l 1,29,-1
 400 520 l 1,30,-1
 273 -114 l 1,31,-1
 193 -114 l 1,32,-1
 176 -200 l 1,33,-1
 248 -200 l 2,25,26
473 613 m 0,34,35
 508 613 508 613 523.5 629 c 128,-1,36
 539 645 539 645 544.5 668.5 c 128,-1,37
 550 692 550 692 550 702 c 0,38,39
 550 720 550 720 537 732 c 128,-1,40
 524 744 524 744 495 744 c 0,41,42
 461 744 461 744 444 729 c 0,43,44
 429 712 429 712 423.5 688.5 c 128,-1,45
 418 665 418 665 418 655 c 0,46,47
 418 637 418 637 431 625 c 128,-1,48
 444 613 444 613 473 613 c 0,34,35
EndSplineSet
EndChar

StartChar: Jcircumflex
Encoding: 308 308 243
Width: 514
Flags: W
LayerCount: 2
Fore
SplineSet
246 751 m 1,0,-1
 193 794 l 1,1,-1
 339 944 l 1,2,-1
 445 944 l 1,3,-1
 535 794 l 1,4,-1
 478 752 l 1,5,-1
 383 867 l 1,6,-1
 246 751 l 1,0,-1
190 -12 m 0,7,8
 105 -12 105 -12 57 36 c 128,-1,9
 9 84 9 84 4 165 c 1,10,-1
 105 185 l 1,11,12
 111 85 111 85 192 85 c 0,13,14
 286 85 286 85 309 199 c 2,15,-1
 408 698 l 1,16,-1
 518 698 l 1,17,-1
 415 186 l 2,18,19
 396 92 396 92 339 40 c 128,-1,20
 282 -12 282 -12 190 -12 c 0,7,8
EndSplineSet
EndChar

StartChar: jcircumflex
Encoding: 309 309 244
Width: 263
Flags: W
LayerCount: 2
Fore
SplineSet
-19 -200 m 2,0,1
 42 -200 42 -200 73 -171 c 128,-1,2
 104 -142 104 -142 115 -82 c 2,3,-1
 237 520 l 1,4,-1
 133 520 l 1,5,-1
 6 -113 l 1,6,-1
 -74 -113 l 1,7,-1
 -91 -200 l 1,8,-1
 -19 -200 l 2,0,1
317 585 m 1,9,-1
 374 628 l 1,10,-1
 284 778 l 1,11,-1
 178 778 l 1,12,-1
 33 629 l 1,13,-1
 85 586 l 1,14,-1
 222 701 l 1,15,-1
 317 585 l 1,9,-1
EndSplineSet
EndChar

StartChar: u0136
Encoding: 310 310 245
Width: 633
Flags: W
LayerCount: 2
Fore
SplineSet
569 0 m 1,0,-1
 387 396 l 1,1,-1
 689 698 l 1,2,-1
 555 698 l 1,3,-1
 332 473 l 1,4,-1
 217 351 l 1,5,-1
 211 351 l 1,6,-1
 281 698 l 1,7,-1
 172 698 l 1,8,-1
 32 0 l 1,9,-1
 140 0 l 1,10,-1
 182 208 l 1,11,-1
 303 324 l 1,12,-1
 450 0 l 1,13,-1
 569 0 l 1,0,-1
229 -258 m 1,14,15
 289 -206 289 -206 310 -124 c 0,16,17
 311 -117 311 -117 312 -112.5 c 128,-1,18
 313 -108 313 -108 313 -99 c 0,19,20
 313 -56 313 -56 264 -56 c 0,21,22
 210 -56 210 -56 198 -109 c 2,23,-1
 197 -113 l 1,24,-1
 195 -134 l 2,25,26
 195 -165 195 -165 227 -172 c 1,27,28
 216 -197 216 -197 201.5 -216.5 c 128,-1,29
 187 -236 187 -236 161 -258 c 1,30,-1
 229 -258 l 1,14,15
EndSplineSet
EndChar

StartChar: u0137
Encoding: 311 311 246
Width: 532
Flags: W
LayerCount: 2
Fore
SplineSet
468 0 m 1,0,-1
 485 87 l 1,1,-1
 422 87 l 1,2,-1
 331 310 l 1,3,-1
 554 520 l 1,4,-1
 431 520 l 1,5,-1
 278 377 l 1,6,-1
 195 289 l 1,7,-1
 189 289 l 1,8,-1
 279 740 l 1,9,-1
 175 740 l 1,10,-1
 27 0 l 1,11,-1
 131 0 l 1,12,-1
 163 162 l 1,13,-1
 249 243 l 1,14,-1
 320 65 l 1,15,16
 341 0 341 0 411 0 c 2,17,-1
 468 0 l 1,0,-1
199 -258 m 1,18,19
 259 -206 259 -206 280 -124 c 0,20,21
 281 -117 281 -117 282 -112.5 c 128,-1,22
 283 -108 283 -108 283 -99 c 0,23,24
 283 -56 283 -56 234 -56 c 0,25,26
 180 -56 180 -56 168 -109 c 2,27,-1
 167 -113 l 1,28,-1
 165 -134 l 2,29,30
 165 -165 165 -165 197 -172 c 1,31,32
 186 -197 186 -197 171.5 -216.5 c 128,-1,33
 157 -236 157 -236 131 -258 c 1,34,-1
 199 -258 l 1,18,19
EndSplineSet
EndChar

StartChar: kgreenlandic
Encoding: 312 312 247
Width: 543
Flags: W
LayerCount: 2
Fore
SplineSet
469 0 m 1,0,-1
 486 87 l 1,1,-1
 422 87 l 1,2,-1
 338 300 l 1,3,-1
 573 520 l 1,4,-1
 450 520 l 1,5,-1
 284 367 l 1,6,-1
 191 272 l 1,7,-1
 185 272 l 1,8,-1
 235 520 l 1,9,-1
 131 520 l 1,10,-1
 27 0 l 1,11,-1
 130 0 l 1,12,-1
 160 149 l 1,13,-1
 254 234 l 1,14,-1
 321 65 l 2,15,16
 333 31 333 31 354.5 15.5 c 128,-1,17
 376 0 376 0 411 0 c 2,18,-1
 469 0 l 1,0,-1
EndSplineSet
EndChar

StartChar: Lacute
Encoding: 313 313 248
Width: 498
Flags: W
LayerCount: 2
Fore
SplineSet
415 0 m 1,0,-1
 434 96 l 1,1,-1
 160 96 l 1,2,-1
 281 698 l 1,3,-1
 172 698 l 1,4,-1
 32 0 l 1,5,-1
 415 0 l 1,0,-1
254 749 m 1,6,-1
 387 916 l 1,7,-1
 300 962 l 1,8,-1
 190 783 l 1,9,-1
 254 749 l 1,6,-1
EndSplineSet
EndChar

StartChar: lacute
Encoding: 314 314 249
Width: 270
Flags: W
LayerCount: 2
Fore
SplineSet
202 0 m 1,0,-1
 219 87 l 1,1,-1
 147 87 l 1,2,-1
 278 740 l 1,3,-1
 174 740 l 1,4,5
 42 80 42 80 42 70 c 0,6,7
 42 39 42 39 62 19.5 c 128,-1,8
 82 0 82 0 120 0 c 2,9,-1
 202 0 l 1,0,-1
252 782 m 1,10,-1
 386 949 l 1,11,-1
 299 995 l 1,12,-1
 189 816 l 1,13,-1
 252 782 l 1,10,-1
EndSplineSet
EndChar

StartChar: u013B
Encoding: 315 315 250
Width: 498
Flags: W
LayerCount: 2
Fore
SplineSet
415 0 m 1,0,-1
 434 96 l 1,1,-1
 160 96 l 1,2,-1
 281 698 l 1,3,-1
 172 698 l 1,4,-1
 32 0 l 1,5,-1
 415 0 l 1,0,-1
177 -258 m 1,6,7
 237 -206 237 -206 258 -124 c 0,8,9
 259 -117 259 -117 260 -112.5 c 128,-1,10
 261 -108 261 -108 261 -99 c 0,11,12
 261 -56 261 -56 212 -56 c 0,13,14
 158 -56 158 -56 146 -109 c 2,15,-1
 145 -113 l 1,16,-1
 143 -134 l 2,17,18
 143 -165 143 -165 175 -172 c 1,19,20
 164 -197 164 -197 149.5 -216.5 c 128,-1,21
 135 -236 135 -236 109 -258 c 1,22,-1
 177 -258 l 1,6,7
EndSplineSet
EndChar

StartChar: u013C
Encoding: 316 316 251
Width: 270
Flags: W
LayerCount: 2
Fore
SplineSet
202 0 m 1,0,-1
 219 87 l 1,1,-1
 147 87 l 1,2,-1
 278 740 l 1,3,-1
 174 740 l 1,4,5
 42 80 42 80 42 70 c 0,6,7
 42 39 42 39 62 19.5 c 128,-1,8
 82 0 82 0 120 0 c 2,9,-1
 202 0 l 1,0,-1
75 -258 m 1,10,11
 135 -206 135 -206 156 -124 c 0,12,13
 157 -117 157 -117 158 -112.5 c 128,-1,14
 159 -108 159 -108 159 -99 c 0,15,16
 159 -56 159 -56 110 -56 c 0,17,18
 56 -56 56 -56 44 -109 c 2,19,-1
 43 -113 l 1,20,-1
 41 -134 l 2,21,22
 41 -165 41 -165 73 -172 c 1,23,24
 62 -197 62 -197 47.5 -216.5 c 128,-1,25
 33 -236 33 -236 7 -258 c 1,26,-1
 75 -258 l 1,10,11
EndSplineSet
EndChar

StartChar: Lcaron
Encoding: 317 317 252
Width: 498
Flags: W
LayerCount: 2
Fore
SplineSet
415 0 m 1,0,-1
 434 96 l 1,1,-1
 160 96 l 1,2,-1
 281 698 l 1,3,-1
 172 698 l 1,4,-1
 32 0 l 1,5,-1
 415 0 l 1,0,-1
396 542 m 1,6,-1
 486 740 l 1,7,-1
 366 740 l 1,8,-1
 324 542 l 1,9,-1
 396 542 l 1,6,-1
EndSplineSet
EndChar

StartChar: lcaron
Encoding: 318 318 253
Width: 303
Flags: W
LayerCount: 2
Fore
SplineSet
202 0 m 1,0,-1
 219 87 l 1,1,-1
 147 87 l 1,2,-1
 278 740 l 1,3,-1
 174 740 l 1,4,5
 42 80 42 80 42 70 c 0,6,7
 42 39 42 39 62 19.5 c 128,-1,8
 82 0 82 0 120 0 c 2,9,-1
 202 0 l 1,0,-1
371 542 m 1,10,-1
 461 740 l 1,11,-1
 341 740 l 1,12,-1
 299 542 l 1,13,-1
 371 542 l 1,10,-1
EndSplineSet
EndChar

StartChar: Ldot
Encoding: 319 319 254
Width: 498
Flags: W
LayerCount: 2
Fore
SplineSet
415 0 m 1,0,-1
 434 96 l 1,1,-1
 160 96 l 1,2,-1
 281 698 l 1,3,-1
 172 698 l 1,4,-1
 32 0 l 1,5,-1
 415 0 l 1,0,-1
393 298 m 0,6,7
 428 298 428 298 444 313 c 128,-1,8
 460 328 460 328 465 354 c 0,9,10
 467 361 467 361 467.5 366 c 128,-1,11
 468 371 468 371 469 376 c 128,-1,12
 470 381 470 381 470 385 c 0,13,14
 470 430 470 430 414 430 c 0,15,16
 379 430 379 430 363 415 c 128,-1,17
 347 400 347 400 342 374 c 0,18,19
 340 367 340 367 339.5 362 c 128,-1,20
 339 357 339 357 338 352.5 c 128,-1,21
 337 348 337 348 337 343 c 0,22,23
 337 298 337 298 393 298 c 0,6,7
EndSplineSet
EndChar

StartChar: ldot
Encoding: 320 320 255
Width: 372
Flags: W
LayerCount: 2
Fore
SplineSet
202 0 m 1,0,-1
 219 87 l 1,1,-1
 147 87 l 1,2,-1
 278 740 l 1,3,-1
 174 740 l 1,4,5
 42 80 42 80 42 70 c 0,6,7
 42 39 42 39 62 19.5 c 128,-1,8
 82 0 82 0 120 0 c 2,9,-1
 202 0 l 1,0,-1
320 262 m 0,10,11
 355 262 355 262 371 277 c 128,-1,12
 387 292 387 292 392 318 c 0,13,14
 394 325 394 325 394.5 330 c 128,-1,15
 395 335 395 335 396 340 c 128,-1,16
 397 345 397 345 397 349 c 0,17,18
 397 394 397 394 341 394 c 0,19,20
 306 394 306 394 290 379 c 128,-1,21
 274 364 274 364 269 338 c 0,22,23
 267 331 267 331 266.5 326 c 128,-1,24
 266 321 266 321 265 316.5 c 128,-1,25
 264 312 264 312 264 307 c 0,26,27
 264 262 264 262 320 262 c 0,10,11
EndSplineSet
EndChar

StartChar: Lslash
Encoding: 321 321 256
Width: 507
Flags: W
LayerCount: 2
Fore
SplineSet
419 0 m 1,0,-1
 438 96 l 1,1,-1
 165 96 l 1,2,-1
 205 295 l 1,3,-1
 384 350 l 1,4,-1
 402 441 l 1,5,-1
 223 384 l 1,6,-1
 285 698 l 1,7,-1
 177 698 l 1,8,-1
 107 349 l 1,9,-1
 12 319 l 1,10,-1
 -5 232 l 1,11,-1
 90 261 l 1,12,-1
 37 0 l 1,13,-1
 419 0 l 1,0,-1
EndSplineSet
EndChar

StartChar: lslash
Encoding: 322 322 257
Width: 282
Flags: W
LayerCount: 2
Fore
SplineSet
203 0 m 1,0,-1
 220 87 l 1,1,-1
 148 87 l 1,2,-1
 200 349 l 1,3,-1
 306 383 l 1,4,-1
 323 468 l 1,5,-1
 217 433 l 1,6,-1
 278 740 l 1,7,-1
 174 740 l 1,8,-1
 105 396 l 1,9,-1
 33 372 l 1,10,-1
 16 288 l 1,11,-1
 88 311 l 1,12,13
 42 80 42 80 42 70 c 0,14,15
 42 39 42 39 62 19.5 c 128,-1,16
 82 0 82 0 120 0 c 2,17,-1
 203 0 l 1,0,-1
EndSplineSet
EndChar

StartChar: Nacute
Encoding: 323 323 258
Width: 691
Flags: W
LayerCount: 2
Fore
SplineSet
554 0 m 1,0,-1
 694 698 l 1,1,-1
 591 698 l 1,2,-1
 483 158 l 1,3,-1
 477 158 l 1,4,-1
 428 313 l 1,5,-1
 292 698 l 1,6,-1
 172 698 l 1,7,-1
 32 0 l 1,8,-1
 135 0 l 1,9,-1
 243 540 l 1,10,-1
 249 540 l 1,11,-1
 298 385 l 1,12,-1
 434 0 l 1,13,-1
 554 0 l 1,0,-1
459 749 m 1,14,-1
 592 916 l 1,15,-1
 505 962 l 1,16,-1
 395 783 l 1,17,-1
 459 749 l 1,14,-1
EndSplineSet
EndChar

StartChar: nacute
Encoding: 324 324 259
Width: 573
Flags: W
LayerCount: 2
Fore
SplineSet
504 0 m 1,0,-1
 521 87 l 1,1,-1
 458 87 l 1,2,-1
 505 322 l 2,3,4
 513 358 513 358 513 392 c 0,5,6
 513 458 513 458 480.5 495 c 128,-1,7
 448 532 448 532 383 532 c 0,8,9
 325 532 325 532 286 500.5 c 128,-1,10
 247 469 247 469 218 409 c 1,11,-1
 213 409 l 1,12,-1
 235 520 l 1,13,-1
 131 520 l 1,14,-1
 27 0 l 1,15,-1
 131 0 l 1,16,-1
 187 280 l 2,17,18
 197 335 197 335 237.5 388.5 c 128,-1,19
 278 442 278 442 338 442 c 0,20,21
 406 442 406 442 406 370 c 0,22,23
 406 345 406 345 400 315 c 2,24,-1
 354 85 l 2,25,26
 353 80 353 80 353 66 c 0,27,28
 353 2 353 2 425 0 c 2,29,-1
 504 0 l 1,0,-1
368 582 m 1,30,-1
 502 749 l 1,31,-1
 415 795 l 1,32,-1
 305 616 l 1,33,-1
 368 582 l 1,30,-1
EndSplineSet
EndChar

StartChar: u0145
Encoding: 325 325 260
Width: 691
Flags: W
LayerCount: 2
Fore
SplineSet
554 0 m 1,0,-1
 694 698 l 1,1,-1
 591 698 l 1,2,-1
 483 158 l 1,3,-1
 477 158 l 1,4,-1
 428 313 l 1,5,-1
 292 698 l 1,6,-1
 172 698 l 1,7,-1
 32 0 l 1,8,-1
 135 0 l 1,9,-1
 243 540 l 1,10,-1
 249 540 l 1,11,-1
 298 385 l 1,12,-1
 434 0 l 1,13,-1
 554 0 l 1,0,-1
247 -258 m 1,14,15
 307 -206 307 -206 328 -124 c 0,16,17
 329 -117 329 -117 330 -112.5 c 128,-1,18
 331 -108 331 -108 331 -99 c 0,19,20
 331 -56 331 -56 282 -56 c 0,21,22
 228 -56 228 -56 216 -109 c 2,23,-1
 215 -113 l 1,24,-1
 213 -134 l 2,25,26
 213 -165 213 -165 245 -172 c 1,27,28
 234 -197 234 -197 219.5 -216.5 c 128,-1,29
 205 -236 205 -236 179 -258 c 1,30,-1
 247 -258 l 1,14,15
EndSplineSet
EndChar

StartChar: u0146
Encoding: 326 326 261
Width: 573
Flags: W
LayerCount: 2
Fore
SplineSet
504 0 m 1,0,-1
 521 87 l 1,1,-1
 458 87 l 1,2,-1
 505 322 l 2,3,4
 513 358 513 358 513 392 c 0,5,6
 513 458 513 458 480.5 495 c 128,-1,7
 448 532 448 532 383 532 c 0,8,9
 325 532 325 532 286 500.5 c 128,-1,10
 247 469 247 469 218 409 c 1,11,-1
 213 409 l 1,12,-1
 235 520 l 1,13,-1
 131 520 l 1,14,-1
 27 0 l 1,15,-1
 131 0 l 1,16,-1
 187 280 l 2,17,18
 197 335 197 335 237.5 388.5 c 128,-1,19
 278 442 278 442 338 442 c 0,20,21
 406 442 406 442 406 370 c 0,22,23
 406 345 406 345 400 315 c 2,24,-1
 354 85 l 2,25,26
 353 80 353 80 353 66 c 0,27,28
 353 2 353 2 425 0 c 2,29,-1
 504 0 l 1,0,-1
210 -258 m 1,30,31
 270 -206 270 -206 291 -124 c 0,32,33
 292 -117 292 -117 293 -112.5 c 128,-1,34
 294 -108 294 -108 294 -99 c 0,35,36
 294 -56 294 -56 245 -56 c 0,37,38
 191 -56 191 -56 179 -109 c 2,39,-1
 178 -113 l 1,40,-1
 176 -134 l 2,41,42
 176 -165 176 -165 208 -172 c 1,43,44
 197 -197 197 -197 182.5 -216.5 c 128,-1,45
 168 -236 168 -236 142 -258 c 1,46,-1
 210 -258 l 1,30,31
EndSplineSet
EndChar

StartChar: Ncaron
Encoding: 327 327 262
Width: 691
Flags: W
LayerCount: 2
Fore
SplineSet
554 0 m 1,0,-1
 694 698 l 1,1,-1
 591 698 l 1,2,-1
 483 158 l 1,3,-1
 477 158 l 1,4,-1
 428 313 l 1,5,-1
 292 698 l 1,6,-1
 172 698 l 1,7,-1
 32 0 l 1,8,-1
 135 0 l 1,9,-1
 243 540 l 1,10,-1
 249 540 l 1,11,-1
 298 385 l 1,12,-1
 434 0 l 1,13,-1
 554 0 l 1,0,-1
499 760 m 1,14,-1
 645 910 l 1,15,-1
 591 953 l 1,16,-1
 452 837 l 1,17,-1
 359 953 l 1,18,-1
 302 910 l 1,19,-1
 393 760 l 1,20,-1
 499 760 l 1,14,-1
EndSplineSet
EndChar

StartChar: ncaron
Encoding: 328 328 263
Width: 573
Flags: W
LayerCount: 2
Fore
SplineSet
504 0 m 1,0,-1
 521 87 l 1,1,-1
 458 87 l 1,2,-1
 505 322 l 2,3,4
 513 358 513 358 513 392 c 0,5,6
 513 458 513 458 480.5 495 c 128,-1,7
 448 532 448 532 383 532 c 0,8,9
 325 532 325 532 286 500.5 c 128,-1,10
 247 469 247 469 218 409 c 1,11,-1
 213 409 l 1,12,-1
 235 520 l 1,13,-1
 131 520 l 1,14,-1
 27 0 l 1,15,-1
 131 0 l 1,16,-1
 187 280 l 2,17,18
 197 335 197 335 237.5 388.5 c 128,-1,19
 278 442 278 442 338 442 c 0,20,21
 406 442 406 442 406 370 c 0,22,23
 406 345 406 345 400 315 c 2,24,-1
 354 85 l 2,25,26
 353 80 353 80 353 66 c 0,27,28
 353 2 353 2 425 0 c 2,29,-1
 504 0 l 1,0,-1
408 594 m 1,30,-1
 553 744 l 1,31,-1
 499 786 l 1,32,-1
 360 670 l 1,33,-1
 268 786 l 1,34,-1
 211 744 l 1,35,-1
 301 594 l 1,36,-1
 408 594 l 1,30,-1
EndSplineSet
EndChar

StartChar: napostrophe
Encoding: 329 329 264
Width: 833
Flags: W
LayerCount: 2
Fore
SplineSet
166 473 m 1,0,1
 220 512 220 512 250.5 563.5 c 128,-1,2
 281 615 281 615 292 663 c 0,3,4
 297 682 297 682 297 699 c 0,5,6
 297 721 297 721 282 735.5 c 128,-1,7
 267 750 267 750 235 750 c 0,8,9
 170 750 170 750 157 687 c 0,10,11
 152 667 152 667 152 650 c 0,12,13
 152 613 152 613 193 604 c 1,14,15
 159 535 159 535 83 473 c 1,16,-1
 166 473 l 1,0,1
764 0 m 1,17,-1
 781 87 l 1,18,-1
 718 87 l 1,19,-1
 765 322 l 2,20,21
 773 358 773 358 773 392 c 0,22,23
 773 458 773 458 740.5 495 c 128,-1,24
 708 532 708 532 643 532 c 0,25,26
 585 532 585 532 546 500.5 c 128,-1,27
 507 469 507 469 478 409 c 1,28,-1
 473 409 l 1,29,-1
 495 520 l 1,30,-1
 391 520 l 1,31,-1
 287 0 l 1,32,-1
 391 0 l 1,33,-1
 447 280 l 2,34,35
 457 335 457 335 497.5 388.5 c 128,-1,36
 538 442 538 442 598 442 c 0,37,38
 666 442 666 442 666 370 c 0,39,40
 666 345 666 345 660 315 c 2,41,-1
 614 85 l 2,42,43
 613 80 613 80 613 66 c 0,44,45
 613 2 613 2 685 0 c 2,46,-1
 764 0 l 1,17,-1
EndSplineSet
EndChar

StartChar: Eng
Encoding: 330 330 265
Width: 691
Flags: W
LayerCount: 2
Fore
SplineSet
401 -200 m 2,0,1
 461 -200 461 -200 493.5 -171 c 128,-1,2
 526 -142 526 -142 538 -80 c 2,3,-1
 694 698 l 1,4,-1
 591 698 l 1,5,-1
 483 158 l 1,6,-1
 477 158 l 1,7,-1
 428 313 l 1,8,-1
 292 698 l 1,9,-1
 172 698 l 1,10,-1
 32 0 l 1,11,-1
 135 0 l 1,12,-1
 243 540 l 1,13,-1
 249 540 l 1,14,-1
 298 385 l 1,15,-1
 434 0 l 1,16,-1
 451 0 l 1,17,-1
 429 -112 l 1,18,-1
 341 -112 l 1,19,-1
 323 -200 l 1,20,-1
 401 -200 l 2,0,1
EndSplineSet
EndChar

StartChar: eng
Encoding: 331 331 266
Width: 573
Flags: W
LayerCount: 2
Fore
SplineSet
290 -200 m 2,0,1
 352 -200 352 -200 383.5 -171 c 128,-1,2
 415 -142 415 -142 425 -82 c 2,3,-1
 506 322 l 2,4,5
 513 361 513 361 513 391 c 0,6,7
 513 457 513 457 481 494.5 c 128,-1,8
 449 532 449 532 383 532 c 0,9,10
 273 532 273 532 218 409 c 1,11,-1
 213 409 l 1,12,-1
 235 520 l 1,13,-1
 131 520 l 1,14,-1
 27 0 l 1,15,-1
 131 0 l 1,16,-1
 188 287 l 2,17,18
 198 335 198 335 237 388.5 c 128,-1,19
 276 442 276 442 339 442 c 0,20,21
 406 442 406 442 406 369 c 0,22,23
 406 348 406 348 401 318 c 2,24,-1
 315 -114 l 1,25,-1
 235 -114 l 1,26,-1
 218 -200 l 1,27,-1
 290 -200 l 2,0,1
EndSplineSet
EndChar

StartChar: Omacron
Encoding: 332 332 267
Width: 687
Flags: W
LayerCount: 2
Fore
SplineSet
303 -12 m 0,0,1
 384 -12 384 -12 450 24.5 c 128,-1,2
 516 61 516 61 563 123 c 0,3,4
 660 258 660 258 660 433 c 0,5,6
 660 568 660 568 588 642 c 0,7,8
 521 710 521 710 412 710 c 0,9,10
 331 710 331 710 265.5 674 c 128,-1,11
 200 638 200 638 153 576 c 0,12,13
 56 441 56 441 56 265 c 0,14,15
 56 131 56 131 129 57 c 0,16,17
 201 -12 201 -12 303 -12 c 0,0,1
313 85 m 0,18,19
 241 85 241 85 203 126 c 128,-1,20
 165 167 165 167 165 240 c 0,21,22
 165 266 165 266 171 302 c 2,23,-1
 192 406 l 1,24,25
 238 613 238 613 404 613 c 0,26,27
 547 613 547 613 551 458 c 0,28,29
 551 433 551 433 545 396 c 2,30,-1
 523 290 l 2,31,32
 503 191 503 191 450 138 c 128,-1,33
 397 85 397 85 313 85 c 0,18,19
576 800 m 1,34,-1
 592 881 l 1,35,-1
 318 881 l 1,36,-1
 301 800 l 1,37,-1
 576 800 l 1,34,-1
EndSplineSet
EndChar

StartChar: omacron
Encoding: 333 333 268
Width: 548
Flags: W
LayerCount: 2
Fore
SplineSet
238 -12 m 0,0,1
 354 -12 354 -12 430 84.5 c 128,-1,2
 506 181 506 181 506 317 c 0,3,4
 506 422 506 422 452 477 c 128,-1,5
 398 532 398 532 310 532 c 0,6,7
 251 532 251 532 202 506 c 128,-1,8
 153 480 153 480 118 435 c 0,9,10
 42 337 42 337 42 203 c 0,11,12
 42 98 42 98 96 43 c 128,-1,13
 150 -12 150 -12 238 -12 c 0,0,1
246 76 m 0,14,15
 196 76 196 76 170.5 104.5 c 128,-1,16
 145 133 145 133 145 181 c 0,17,18
 145 204 145 204 149 220 c 2,19,-1
 166 303 l 2,20,21
 181 372 181 372 217 408 c 128,-1,22
 253 444 253 444 302 444 c 0,23,24
 352 444 352 444 377.5 415.5 c 128,-1,25
 403 387 403 387 403 339 c 0,26,27
 403 317 403 317 399 300 c 2,28,-1
 382 217 l 2,29,30
 367 148 367 148 331 112 c 128,-1,31
 295 76 295 76 246 76 c 0,14,15
474 632 m 1,32,-1
 491 714 l 1,33,-1
 216 714 l 1,34,-1
 199 632 l 1,35,-1
 474 632 l 1,32,-1
EndSplineSet
EndChar

